<svg width="143" height="138" viewBox="0 0 143 138" fill="none" xmlns="http://www.w3.org/2000/svg">
<g clip-path="url(#clip0_70_2)">
<path d="M96.6283 29.6485L23.0129 86.638C22.2543 86.7223 21.1269 86.5326 19.6308 86.0691C17.7554 85.479 15.9748 84.6045 14.289 83.4456C9.48456 80.1583 6.57661 75.4382 5.56515 69.2851C4.57476 63.3849 5.48086 57.0527 8.28345 50.2886C9.21062 48.055 10.3485 45.7476 11.6971 43.3664L14.1626 39.2257C16.1644 35.6645 17.8186 32.1455 19.1251 28.6686C21.2955 22.8527 21.8855 18.554 20.8951 15.7725L21.9066 15.8989C22.6652 16.0464 23.2763 16.3203 23.7398 16.7207C23.6766 16.0464 23.4975 15.2562 23.2025 14.3501C22.5914 12.4958 21.7169 10.9364 20.579 9.6721L23.9927 9.19798C26.8796 9.21905 29.8086 10.0409 32.7798 11.6634L32.5585 9.92496C32.4742 8.74492 32.5901 8.09169 32.9062 7.96526C33.3909 7.77561 34.0863 8.23919 34.9924 9.35602C35.0134 8.42884 35.2136 7.37524 35.5929 6.1952C36.3304 3.87727 37.5737 2.12828 39.3227 0.948242L41.0611 4.14067C42.6837 6.43753 44.6645 8.02847 47.0035 8.9135C49.0475 9.71424 53.6833 10.3253 60.9111 10.7468C67.907 11.1682 72.8379 12.0322 75.7037 13.3386L78.7381 13.5915C81.2035 13.9076 83.4793 14.4871 85.5654 15.33C92.2874 18.0483 95.975 22.8211 96.6283 29.6485Z" fill="#68AE28"/>
<path d="M7.74617 75.4803C2.98387 66.5036 4.12177 56.1888 11.1599 44.5359C7.59867 53.9552 8.79978 61.4884 14.7632 67.1358C17.3551 69.5801 20.6212 71.3713 24.5617 72.5091C28.4179 73.6049 32.5059 73.9631 36.8257 73.5838L22.0963 86.8909C19.9469 86.7012 17.5552 85.6581 14.9212 83.7617C11.9079 81.5491 9.51623 78.7886 7.74617 75.4803Z" fill="#56931F"/>
<path d="M125.518 25.4762C127.394 26.298 129.027 29.0901 130.417 33.8524C131.661 38.1721 132.082 41.2276 131.682 43.0187C134.168 45.9056 136.592 51.5424 138.952 59.9291C141.628 69.3273 142.081 76.1652 140.311 80.4428C139.742 81.8125 138.077 83.6774 135.317 86.0374C132.451 88.524 129.617 90.4415 126.814 91.7901L128.236 94.0975C129.374 96.1205 130.396 98.3014 131.302 100.64C134.189 108.184 135.39 116.002 134.906 124.094C134.758 126.664 132.63 128.772 128.521 130.415C124.496 131.996 120.208 132.523 115.656 131.996C114.118 131.785 112.085 129.983 109.556 126.591C106.669 122.65 104.952 118.562 104.404 114.327C100.548 116.56 97.2921 118.067 94.637 118.847L93.8152 120.237C93.0987 121.375 92.2558 122.429 91.2865 123.398C88.2311 126.517 84.6172 128.255 80.4449 128.614C76.2937 128.972 73.0697 128.645 70.7728 127.634C70.0564 127.318 69.4663 126.949 69.0028 126.528L68.5602 125.99L43.3053 126.844L40.7134 129.119C38.3955 130.658 35.7194 131.469 32.685 131.553C28.5338 131.68 25.2676 131.3 22.8864 130.415C19.8942 129.277 17.7659 127.202 16.5016 124.189C14.6683 119.848 13.699 114.875 13.5936 109.269C13.4461 101.978 15.0792 96.0151 18.4929 91.3792C21.7802 86.9119 26.0683 82.3604 31.3574 77.7245C32.8325 76.4391 36.8467 73.1729 43.4001 67.926C46.7506 65.2709 49.7323 62.7001 52.3453 60.2136C55.0003 57.6849 56.6124 55.8727 57.1813 54.777C57.7924 50.5836 58.5931 46.327 59.5835 42.0073C61.5854 33.3677 63.524 28.7529 65.3994 28.1629C67.2748 27.5939 70.0353 28.1945 73.6808 29.9646C75.493 30.8707 77.1155 31.8189 78.5484 32.8093L80.6978 32.0507C82.5943 31.4817 84.6699 30.9971 86.9246 30.5967C94.1313 29.3535 101.78 29.2797 109.872 30.3755C111.094 29.069 113.792 27.8047 117.964 26.5825C121.989 25.4024 124.507 25.0337 125.518 25.4762Z" fill="#7CBEB3"/>
<path d="M131.239 38.0562L131.871 43.0187L128.616 38.1827C128.953 36.7708 129.1 34.8638 129.058 32.4616L128.869 29.3008C129.838 31.3869 130.628 34.3054 131.239 38.0562Z" fill="#68A198"/>
<path d="M58.8565 43.6509C60.5633 35.8121 62.2386 31.2816 63.8822 30.0594C63.4818 34.6109 63.3448 39.1098 63.4713 43.5561C63.5556 46.169 63.8295 50.1516 64.2931 55.5039C64.567 58.6858 64.2404 61.5095 63.3132 63.9749C62.4914 66.1243 61.4167 67.5888 60.0892 68.3685C58.7827 69.1271 57.7081 68.9585 56.8652 67.8627C55.9591 66.6616 55.6535 64.5966 55.9485 61.6675C56.5386 55.8306 57.5079 49.825 58.8565 43.6509Z" fill="#68A198"/>
<path d="M115.909 123.999C117.532 127.033 119.471 128.93 121.725 129.688L120.524 132.091C117.342 132.723 114.529 131.89 112.085 129.593C109.156 126.791 106.564 121.702 104.309 114.327C100.664 116.539 96.6179 118.193 92.1717 119.289C87.7887 120.385 82.5207 121.049 76.3676 121.281C75.3983 121.597 74.6924 122.271 74.2499 123.303C73.8074 124.294 73.7968 125.189 74.2183 125.99L72.4482 128.076L68.6553 125.769C68.7606 125.052 69.3506 122.914 70.4253 119.352C71.4789 115.939 72.1427 112.978 72.4166 110.471C73.2174 102.969 71.1312 96.1837 66.1582 90.1149C70.5833 94.5611 78.3379 97.3532 89.4218 98.4911C101.264 99.6922 111.326 98.6175 119.608 95.267C116.953 96.9739 115.056 99.629 113.918 103.232C112.907 106.477 112.601 110.07 113.002 114.011C113.402 117.804 114.371 121.133 115.909 123.999Z" fill="#68A198"/>
<path d="M13.2778 105.856C14.1839 113.252 18.2297 118.004 25.4153 120.111C28.1757 120.912 31.0837 121.207 34.1391 120.996C36.9207 120.806 39.207 120.259 40.9981 119.352L43.3055 127.128C41.6619 128.73 39.4493 129.983 36.6678 130.889C31.1048 132.702 25.5101 131.911 19.8839 128.519C17.1656 126.875 15.2164 122.703 14.0363 116.002C13.657 113.747 13.4042 111.461 13.2778 109.143C13.1724 107.204 13.1724 106.109 13.2778 105.856Z" fill="#68A198"/>
<path d="M80.9506 54.3344C81.7724 54.1869 82.6469 54.3239 83.5741 54.7454C80.3922 57.1897 78.7275 60.9406 78.58 65.9979C78.4325 70.6127 79.4861 74.943 81.7408 78.9888C77.3157 78.5042 74.197 77.4927 72.3848 75.9544C71.858 75.4909 71.6368 74.1949 71.7211 72.0666C71.8053 69.8541 72.1952 67.5361 72.8906 65.1128C74.7028 58.6648 77.3894 55.072 80.9506 54.3344Z" fill="white"/>
<path d="M91.887 66.3772C92.8774 69.0323 93.4885 71.4239 93.7203 73.5522C93.9732 75.828 93.7203 77.3452 92.9617 78.1038C92.456 78.6095 91.0968 78.9572 88.8843 79.1469C86.6295 79.3154 84.2484 79.2628 81.7408 78.9888C79.4861 74.943 78.4325 70.6127 78.58 65.9979C78.7275 60.9406 80.3922 57.1897 83.5741 54.7454C86.7138 56.1993 89.4848 60.0766 91.887 66.3772Z" fill="#D60040"/>
<path d="M128.901 52.754C131.535 54.9034 133.104 58.1169 133.61 62.3945C133.926 65.0707 133.8 68.832 133.231 73.6786C132.304 74.0369 131.408 74.2792 130.544 74.4056C129.659 74.5531 128.995 74.5531 128.553 74.4056C127.31 74.0053 126.688 70.8234 126.688 64.86C126.667 58.7701 127.404 54.7348 128.901 52.754Z" fill="#D60040"/>
<path d="M128.9 52.754C129.28 52.2272 129.68 51.9217 130.102 51.8374C132.146 51.3949 134.126 53.8919 136.044 59.3285C137.919 64.723 138.288 68.5792 137.15 70.8971C136.623 71.9929 135.317 72.9201 133.231 73.6786C133.8 68.8321 133.926 65.0707 133.61 62.3945C133.104 58.1169 131.534 54.9034 128.9 52.754Z" fill="white"/>
<path d="M110.346 49.53C109.735 49.7618 108.144 49.1191 105.573 47.6019C102.876 46.0426 101.58 44.7677 101.686 43.7773C101.833 42.4708 104.014 40.6692 108.229 38.3723C112.506 36.0544 115.351 35.201 116.763 35.8121C117.669 36.1914 117.195 38.425 115.34 42.513C113.465 46.6221 111.8 48.9611 110.346 49.53Z" fill="#006359"/>
<path d="M96.2809 52.2483C96.2176 51.9744 96.5337 51.4581 97.2291 50.6995C97.9455 49.9198 98.5882 49.4563 99.1572 49.3087L99.8526 50.2886C100.443 51.279 101.033 52.6697 101.623 54.4609L101.212 55.4407C100.811 56.1572 100.316 56.6524 99.7261 56.9263L98.2089 55.4723C97.1553 54.3134 96.5126 53.2387 96.2809 52.2483Z" fill="#006359"/>
<path d="M120.714 59.1389C121.367 62.8686 121.42 64.9548 120.872 65.3973C120.387 65.7977 118.912 65.6396 116.447 64.9232C113.96 64.2067 112.549 63.5113 112.211 62.837C112.317 61.2777 113.118 59.3285 114.614 56.9895C116.152 54.6505 117.395 53.481 118.343 53.481C119.271 53.481 120.061 55.367 120.714 59.1389Z" fill="#006359"/>
<path d="M122.61 114.106C122.526 112.904 123.264 111.187 124.823 108.953C126.34 106.762 127.436 105.708 128.11 105.793C129.122 105.898 129.817 108.016 130.196 112.146C130.555 116.297 130.228 118.541 129.217 118.878C128.1 119.258 126.762 119.047 125.202 118.246C123.411 117.298 122.547 115.918 122.61 114.106Z" fill="#006359"/>
<path d="M22.4126 96.3417L27.628 96.563C29.967 97.0265 31.3156 97.5428 31.6738 98.1118C32.2638 99.06 31.874 101.062 30.5043 104.117C29.1557 107.152 28.0178 108.711 27.0906 108.795C26.2899 108.859 24.6673 108.058 22.223 106.393C19.7575 104.728 18.5353 103.569 18.5564 102.916C18.5775 102.073 18.9884 100.872 19.7891 99.3129C20.6742 97.5639 21.5487 96.5735 22.4126 96.3417Z" fill="#006359"/>
<path d="M52.4717 69.2535C53.0195 70.2017 52.1345 72.8358 49.8166 77.1555C47.4986 81.4753 45.718 83.7722 44.4748 84.0461C43.3369 84.3201 41.4826 83.8249 38.9118 82.5605C36.4885 81.4016 34.8764 80.3374 34.0757 79.3681C33.8228 79.052 33.9914 78.1249 34.5814 76.5866L35.5297 74.3424L39.7652 70.9919C42.631 68.7372 44.2325 67.5677 44.5696 67.4834L48.5206 67.8311C50.8386 68.2315 52.1556 68.7056 52.4717 69.2535Z" fill="#006359"/>
<path d="M84.5539 57.9378C85.2283 57.9378 85.8183 58.6015 86.324 59.9291C86.8297 61.3409 87.0721 63.1004 87.051 65.2077C87.0088 67.2095 86.7349 68.7899 86.2292 69.9489C85.7656 71.0025 85.1966 71.5293 84.5223 71.5293C83.8902 71.5293 83.3423 70.9603 82.8787 69.8224C82.373 68.6213 82.099 67.1041 82.0569 65.2709C81.9726 63.0583 82.2044 61.2566 82.7523 59.8659C83.2369 58.5805 83.8375 57.9378 84.5539 57.9378Z" fill="white"/>
<path d="M127.415 58.6332L128.047 55.7884C128.3 55.4513 128.542 55.2932 128.774 55.3143C129.153 55.3354 129.511 55.7463 129.848 56.547C130.333 57.6217 130.596 59.1389 130.639 61.0986C130.66 62.9529 130.491 64.3964 130.133 65.4289C129.796 66.3561 129.374 66.8197 128.869 66.8197C128.552 66.8197 128.236 66.5879 127.92 66.1243C127.583 65.6186 127.351 64.9548 127.225 64.133C126.972 62.679 127.035 60.8457 127.415 58.6332Z" fill="white"/>
<path d="M113.95 31.8294C108.176 30.7126 102.328 30.2806 96.4072 30.5335C90.0434 30.7864 84.1959 31.8189 78.8647 33.6311C78.675 33.6943 78.4116 33.4836 78.0745 32.9989C77.7163 32.5143 77.632 32.2298 77.8216 32.1455C83.8693 30.1015 90.4227 29.0058 97.4819 28.8583C103.677 28.7108 109.335 29.2902 114.455 30.5967C117.068 31.271 118.312 31.7662 118.185 32.0823L113.95 31.8294Z" fill="#0D131A"/>
<path d="M131.018 40.6481C135.296 46.8433 138.414 54.0289 140.374 62.2049C142.081 69.3273 142.502 74.8376 141.638 78.736C140.69 83.0557 135.97 87.4809 127.478 92.0114C119.049 96.5208 110.905 99.0179 103.045 99.5025C94.6369 100.008 86.7243 99.3129 79.3069 97.4164C71.8895 95.5199 67.1062 92.9596 64.9568 89.7356C64.2614 88.682 64.0402 88.0393 64.293 87.8075C64.567 87.5757 65.1886 87.9866 66.1579 89.0402C69.0027 92.1589 74.0705 94.54 81.3615 96.1837C88.2942 97.743 95.5325 98.2909 103.076 97.8273C110.957 97.3426 118.912 94.8667 126.94 90.3994C134.653 86.1007 138.93 82.0337 139.773 78.1986C140.658 74.216 140.29 68.8426 138.667 62.0784C136.855 54.5136 133.957 47.7073 129.975 41.6596C128.331 39.152 127.688 37.7612 128.047 37.4873C128.384 37.2134 129.374 38.267 131.018 40.6481Z" fill="#0D131A"/>
<path d="M57.782 55.1246C56.3912 57.7376 53.5781 60.8457 49.3426 64.4491C46.8139 66.5773 42.5574 69.9489 36.5729 74.5637C31.1152 78.9045 26.9008 82.7291 23.9296 86.0374C19.8416 90.589 17.1233 95.0668 15.7747 99.4709C14.1522 104.76 14.0679 110.702 15.5218 117.298C16.8705 123.514 18.788 127.349 21.2745 128.803C23.9507 130.363 27.554 131.047 32.0845 130.858C36.7625 130.668 39.9971 129.572 41.7882 127.571C44.5487 124.473 45.6234 119.458 45.0123 112.525C44.3801 105.445 42.2307 99.7975 38.5642 95.5831C37.1313 93.9184 36.5202 92.9069 36.7309 92.5487C36.9417 92.1905 37.8372 92.8543 39.4176 94.54C44.0324 99.492 46.6032 105.55 47.13 112.715C47.6147 119.521 46.1923 124.789 42.8629 128.519C40.8611 130.774 37.2577 132.038 32.0529 132.312C27.0167 132.586 23.0235 131.859 20.0734 130.131C17.0812 128.382 14.8897 124.252 13.4989 117.74C12.0871 111.039 12.2241 104.844 13.9098 99.1548C15.1952 94.8561 17.7344 90.5469 21.5274 86.2271C24.2878 83.0663 28.281 79.3681 33.5069 75.1326L46.4662 64.6387C51.1443 60.6139 54.6317 56.9158 56.9285 53.5442C57.0339 53.3967 57.2236 53.5758 57.4975 54.0816C57.7925 54.6084 57.8873 54.9561 57.782 55.1246Z" fill="#0D131A"/>
<path d="M65.5261 27.2146C66.8326 26.7932 69.0347 27.2146 72.1323 28.479C75.2509 29.7644 77.8112 31.3342 79.813 33.1886C81.3935 34.6636 82.0045 35.496 81.6463 35.6856C81.3092 35.8963 80.3398 35.3801 78.7384 34.1368C76.6733 32.5775 74.2816 31.2605 71.5633 30.1858C68.9082 29.1111 67.1276 28.7318 66.2215 29.0479C64.7465 29.5326 63.0396 33.2729 61.101 40.2688C59.057 47.6651 57.7295 55.4197 57.1184 63.5324C56.9498 65.8714 56.6548 66.9461 56.2333 66.7565C55.7908 66.5668 55.6117 65.4605 55.696 63.4376C55.9699 56.4206 57.0236 49.077 58.8568 41.4067C60.943 32.725 63.1661 27.9943 65.5261 27.2146Z" fill="#0D131A"/>
<path d="M108.861 29.9329C110.694 28.5422 113.507 27.2146 117.3 25.9503C121.578 24.5174 124.549 24.1803 126.214 24.9389C127.857 25.6764 129.353 28.1524 130.702 32.3668C131.945 36.2862 132.641 40.2267 132.788 44.1882C132.788 44.3779 132.525 44.1777 131.998 43.5877C131.45 42.9977 131.176 42.5973 131.176 42.3866C131.05 39.1836 130.312 35.8121 128.964 32.272C127.678 28.9004 126.488 26.9618 125.392 26.456C124.359 25.9925 121.999 26.2875 118.312 27.3411C114.582 28.3947 111.927 29.522 110.346 30.7231C110.199 30.8496 109.872 30.7864 109.366 30.5335C108.882 30.2596 108.713 30.0594 108.861 29.9329Z" fill="#0D131A"/>
<path d="M110.03 48.645C111.063 48.6239 112.506 46.6537 114.36 42.7342C116.194 38.878 116.878 36.8341 116.415 36.6023C115.382 36.0755 112.822 36.8446 108.734 38.9097C104.625 40.9747 102.56 42.5657 102.539 43.6825C102.518 44.3779 103.424 45.3577 105.257 46.6221C107.133 47.8864 108.724 48.5607 110.03 48.645ZM107.501 38.0562C111.99 35.6329 115.193 34.6004 117.11 34.9586C117.763 35.0851 117.953 35.949 117.679 37.5505C117.426 39.0256 116.857 40.7535 115.972 42.7342C113.76 47.6651 111.779 50.0884 110.03 50.0041C108.639 49.9198 106.785 49.1191 104.467 47.6019C102.044 46.0215 100.832 44.6834 100.832 43.5877C100.832 42.3023 103.055 40.4585 107.501 38.0562Z" fill="#0D131A"/>
<path d="M100.99 54.6505C101.053 54.4819 100.821 53.7023 100.295 52.3115C99.7679 50.8997 99.3886 50.1832 99.1568 50.1622C98.9671 50.1411 98.5457 50.4256 97.8925 51.0156C97.2392 51.6056 96.9126 52.0481 96.9126 52.3431C96.9337 52.6171 97.3762 53.3335 98.2402 54.4925C99.1041 55.6093 99.6099 56.1677 99.7574 56.1677C99.8838 56.1677 100.105 55.957 100.421 55.5356L100.99 54.6505ZM101.053 51.3317C101.707 52.891 102.044 53.9551 102.065 54.5241C102.086 54.9877 101.749 55.6198 101.053 56.4206C100.337 57.2424 99.7995 57.569 99.4413 57.4004C99.0198 57.2108 98.2928 56.4311 97.2603 55.0614C96.1435 53.6075 95.6272 52.6065 95.7115 52.0587C95.7958 51.4897 96.291 50.7733 97.1971 49.9093C98.1032 49.0875 98.788 48.6871 99.2516 48.7082C99.7363 48.7503 100.337 49.6248 101.053 51.3317Z" fill="#0D131A"/>
<path d="M118.122 54.3977C117.469 54.3555 116.394 55.5882 114.898 58.0958C113.444 60.5823 112.801 62.0679 112.97 62.5526C113.138 62.9951 114.329 63.5324 116.541 64.1646C118.775 64.7967 120.05 64.9653 120.366 64.6703C120.851 64.2067 120.756 62.384 120.082 59.2021C119.407 56.0413 118.754 54.4398 118.122 54.3977ZM113.823 57.0527C115.656 53.8919 117.1 52.3642 118.153 52.4696C119.481 52.596 120.545 54.7875 121.346 59.0441C122.126 63.2796 122.062 65.6186 121.156 66.0611C120.377 66.4614 118.659 66.2191 116.004 65.3341C113.391 64.4701 111.958 63.7326 111.705 63.1215C111.305 62.2154 112.011 60.1925 113.823 57.0527Z" fill="#0D131A"/>
<path d="M73.6492 60.6877C76.1146 55.6936 78.7592 53.3546 81.5829 53.6707C85.5655 54.1343 88.9897 57.4953 91.8555 63.7537C93.0566 66.4088 93.8468 69.0322 94.2261 71.6241C94.6265 74.3213 94.4895 76.4707 93.8152 78.0722C93.457 78.9572 92.1084 79.5472 89.7694 79.8422C87.62 80.0951 85.123 80.074 82.2782 79.779C79.4124 79.484 76.9681 78.9677 74.9451 78.2302C72.7115 77.4506 71.4999 76.555 71.3102 75.5435C70.362 70.7391 71.1416 65.7871 73.6492 60.6877ZM88.5051 61.1302C86.2925 57.3794 83.9324 55.367 81.4248 55.093C80.4344 54.9877 79.3598 55.5356 78.2008 56.7367C76.4518 58.5489 75.04 61.1618 73.9653 64.5755C72.8274 68.2842 72.4902 71.8348 72.9538 75.2274C73.1224 76.5339 76.2727 77.5243 82.4047 78.1986C88.5367 78.894 91.866 78.6306 92.3929 77.4084C92.9407 76.0809 92.8459 73.7629 92.1084 70.4546C91.3287 66.9988 90.1276 63.8906 88.5051 61.1302Z" fill="#0D131A"/>
<path d="M135.064 58.6016C133.484 54.6821 131.893 52.7224 130.291 52.7224C128.879 52.7224 128.015 56.0624 127.699 62.7422C127.383 69.3799 127.784 73.0254 128.901 73.6787C129.638 74.1001 131.029 73.8683 133.073 72.9833C135.117 72.0982 136.223 71.2659 136.392 70.4862C137.213 66.7565 136.771 62.7949 135.064 58.6016ZM126.214 62.2049C126.572 54.9139 127.931 51.2685 130.291 51.2685C132.335 51.2685 134.316 53.4494 136.234 57.8114C138.235 62.4051 138.794 66.6932 137.909 70.6759C137.593 72.0245 136.033 73.2256 133.231 74.2792C130.513 75.3117 128.785 75.5119 128.047 74.8798C127.352 74.3108 126.835 72.7515 126.498 70.2018C126.161 67.7574 126.066 65.0918 126.214 62.2049Z" fill="#0D131A"/>
<path d="M44.222 66.8829L49.7534 67.2306C51.9028 67.6099 53.1355 68.1051 53.4516 68.7162C54.0205 69.8751 52.988 72.8463 50.354 77.6297C47.72 82.4552 45.7076 84.8679 44.3168 84.8679C42.9893 84.8679 40.8189 84.2042 37.8055 82.8766C34.6237 81.4859 33.0327 80.348 33.0327 79.4629C33.0327 78.9572 33.2645 78.1986 33.7281 77.1872L35.2453 74.216C35.3506 74.0474 35.6351 73.9421 36.0987 73.8999C36.5834 73.8788 36.773 73.9526 36.6677 74.1212C36.0987 75.1748 35.6457 76.1968 35.3085 77.1872C35.0135 78.0511 34.866 78.6727 34.866 79.052C34.9503 79.621 36.3094 80.4955 38.9434 81.6755C41.5142 82.8345 43.2948 83.4245 44.2852 83.4456C45.2124 83.1506 46.7296 81.0012 48.8368 76.9975C50.944 72.9938 51.8501 70.5494 51.5551 69.6644C51.3865 69.3062 50.4804 68.969 48.8368 68.6529L43.9375 68.3053C43.7268 68.3263 43.6741 68.0945 43.7795 67.6099C43.8849 67.1463 44.0324 66.904 44.222 66.8829Z" fill="#0D131A"/>
<path d="M22.6969 96.9106C22.0437 97.2267 21.2957 98.1012 20.4528 99.5341C19.6099 100.946 19.2201 101.926 19.2833 102.474C19.3676 103.043 20.4844 104.086 22.6337 105.603C24.7831 107.12 26.1738 107.837 26.806 107.752C27.4382 107.668 28.418 106.214 29.7456 103.39C31.0731 100.567 31.5683 98.9757 31.2312 98.6175C30.8519 98.2382 29.4716 97.7957 27.0905 97.2899C24.6672 96.7842 23.2027 96.6578 22.6969 96.9106ZM19.1884 98.7123C20.1788 97.0687 21.1165 96.0151 22.0016 95.5515L27.4698 95.8044C30.5042 96.3733 32.2742 97.0582 32.78 97.8589C33.2435 98.5964 32.7167 100.661 31.1995 104.054C29.6824 107.426 28.4391 109.291 27.4698 109.649C26.7323 109.944 24.9938 109.132 22.2544 107.215C19.4729 105.276 18.0084 103.759 17.8609 102.663C17.7555 101.715 18.1981 100.398 19.1884 98.7123Z" fill="#0D131A"/>
<path d="M123.306 114.042V114.074C123.348 115.823 124.201 117.098 125.866 117.898C127.362 118.615 128.373 118.731 128.9 118.246C129.448 117.74 129.638 115.823 129.469 112.493C129.301 109.101 128.805 107.215 127.984 106.836C127.541 106.646 126.646 107.594 125.297 109.68C123.969 111.766 123.306 113.22 123.306 114.042ZM124.222 108.606C125.845 106.014 127.099 104.728 127.984 104.749C129.417 104.771 130.312 107.057 130.67 111.608C131.029 116.076 130.734 118.657 129.785 119.352C129.006 119.942 127.583 119.837 125.518 119.036C123.158 118.109 121.946 116.56 121.883 114.39C121.862 113.083 122.642 111.155 124.222 108.606Z" fill="#0D131A"/>
<path d="M138.098 77.2504C138.077 78.0722 137.961 78.7465 137.751 79.2733L137.118 80.3164C136.086 81.5385 133.62 83.0768 129.722 84.9312C125.697 86.8487 122.21 88.1025 119.26 88.6925C113.886 89.7883 105.637 89.8831 94.5105 88.977C83.3845 88.092 76.3569 86.7644 73.4279 84.9944C72.9432 84.6783 72.5007 84.162 72.1004 83.4456C71.7421 82.8345 71.4787 82.1602 71.3101 81.4226C70.9941 80.0951 70.973 79.347 71.2469 79.1785C71.5209 79.0099 71.9528 79.621 72.5429 81.0117C72.9011 81.8336 73.2804 82.4657 73.6808 82.9082L74.9451 83.8565C77.3052 85.1419 83.6163 86.2798 93.8784 87.2702C104.983 88.3448 113.349 88.3132 118.975 87.1753C121.504 86.6485 124.507 85.6265 127.984 84.1093C131.208 82.6975 133.62 81.4121 135.222 80.2531C135.812 79.8106 136.244 79.3576 136.518 78.894C136.813 78.4093 137.002 77.8193 137.087 77.1239C137.234 75.8596 137.445 75.2696 137.719 75.3539C137.993 75.4592 138.119 76.0914 138.098 77.2504Z" fill="#0D131A"/>
<path d="M90.1804 51.3001C90.9179 51.9744 91.6343 52.7962 92.3297 53.7655C93.0672 54.777 93.594 55.6936 93.9101 56.5154C94.3737 57.6955 94.3948 58.3592 93.9733 58.5067C93.5308 58.6332 93.0356 58.1696 92.4878 57.116C91.5817 55.3248 90.4754 53.7023 89.1689 52.2483C87.9467 50.8365 87.4621 50.0147 87.7149 49.7829C87.9889 49.5511 88.8107 50.0568 90.1804 51.3001Z" fill="#0D131A"/>
<path d="M125.803 51.5213C125.403 52.6803 125.15 53.9235 125.044 55.2511C124.96 56.41 124.697 56.979 124.254 56.9579C123.812 56.9579 123.622 56.389 123.685 55.2511C123.748 53.8603 124.107 52.4906 124.76 51.142C125.35 49.9409 125.782 49.372 126.056 49.4352C126.309 49.5195 126.224 50.2148 125.803 51.5213Z" fill="#0D131A"/>
<path d="M111.927 84.6467C111.463 84.4149 111.095 84.1199 110.821 83.7617C110.547 83.4245 110.452 83.1822 110.536 83.0347L111.516 83.0663C112.127 83.1927 112.58 83.3929 112.875 83.6668C113.254 84.0461 113.328 84.3727 113.096 84.6467C112.865 84.9206 112.475 84.9206 111.927 84.6467Z" fill="#0D131A"/>
<path d="M122.705 83.0663C122.263 83.6141 121.862 83.8038 121.504 83.6352C121.146 83.4666 121.125 83.119 121.441 82.5922C121.673 82.2129 122.042 81.8757 122.547 81.5807C123.011 81.2857 123.306 81.1909 123.432 81.2962C123.517 81.3805 123.496 81.6018 123.369 81.96L122.705 83.0663Z" fill="#0D131A"/>
<path d="M84.7119 54.9034C84.9016 54.9666 84.9858 55.2721 84.9648 55.82C84.9437 56.3679 84.8489 56.5892 84.6803 56.4838C83.6056 55.8095 82.5942 56.3258 81.6459 58.0326C80.7609 59.5919 80.1498 61.7518 79.8126 64.5123C79.4544 67.357 79.4966 70.0121 79.9391 72.4775C80.4659 75.2801 81.4457 77.282 82.8786 78.4831C83.0472 78.6095 82.9418 78.7992 82.5626 79.052C82.1833 79.2838 81.9093 79.3365 81.7407 79.2101C80.0128 77.9247 78.8222 75.7964 78.169 72.8252C77.6001 70.1491 77.5369 67.2833 77.9794 64.2278C78.4219 61.2145 79.2332 58.8123 80.4132 57.0211C81.6986 55.1036 83.1315 54.3977 84.7119 54.9034Z" fill="#0D131A"/>
<path d="M128.363 53.0069C129.1 52.438 129.954 52.6803 130.923 53.7339C131.893 54.7664 132.725 56.3047 133.42 58.3487C135.148 63.4692 135.222 68.5054 133.642 73.4574C133.578 73.647 133.336 73.784 132.915 73.8683C132.493 73.9315 132.303 73.8683 132.346 73.6786C133.631 69.6749 133.673 65.1339 132.472 60.0555C131.987 58.0115 131.387 56.3995 130.67 55.2195C129.954 54.0184 129.301 53.5759 128.711 53.8919C128.542 53.9973 128.405 53.9025 128.3 53.6075C128.194 53.3335 128.215 53.1333 128.363 53.0069Z" fill="#0D131A"/>
<path d="M126.024 92.2643C125.919 92.0957 126.14 91.8428 126.688 91.5056C127.215 91.1474 127.52 91.0526 127.604 91.2212C133.589 100.893 136.254 112.177 135.601 125.074C135.538 126.275 134.621 127.518 132.851 128.803C131.166 130.025 129.079 131.047 126.593 131.869C120.566 133.85 116.036 133.776 113.001 131.648C111 130.236 108.924 127.539 106.775 123.556C104.71 119.742 103.656 116.845 103.614 114.864C103.614 114.674 103.909 114.464 104.499 114.232L105.352 114.137C105.394 116.097 106.374 118.868 108.292 122.45C110.336 126.264 112.39 128.898 114.455 130.352C117.089 132.185 121.061 132.238 126.372 130.51C128.521 129.815 130.333 128.951 131.808 127.918C133.347 126.865 134.137 125.895 134.179 125.01C134.79 112.957 132.072 102.042 126.024 92.2643Z" fill="#0D131A"/>
<path d="M108.355 112.304C102.897 116.581 96.3862 119.479 88.8213 120.996C81.8043 122.387 75.5353 122.313 70.0144 120.775C69.8248 120.712 69.7932 120.385 69.9196 119.795C70.025 119.226 70.1725 118.963 70.3621 119.005C75.7777 120.522 81.8359 120.617 88.5368 119.289C95.3431 117.941 101.517 115.38 107.059 111.608C109.166 110.176 110.336 109.607 110.568 109.902C110.778 110.176 110.041 110.976 108.355 112.304Z" fill="#0D131A"/>
<path d="M93.5938 118.689C93.6992 118.52 94.1838 118.373 95.0478 118.246L96.1857 118.341C94.5421 121.038 92.5086 123.388 90.0853 125.39C87.3038 127.686 84.575 129.003 81.8988 129.341L72.4164 129.056C69.9298 128.445 68.4653 127.518 68.0228 126.275C67.9596 126.085 68.1176 125.769 68.4969 125.326C68.8552 124.863 69.0659 124.726 69.1291 124.915C69.5506 126.096 70.8465 126.981 73.0169 127.571C75.377 128.224 78.2744 128.34 81.7092 127.918C83.711 127.665 85.8288 126.664 88.0624 124.915C90.275 123.188 92.1188 121.112 93.5938 118.689Z" fill="#0D131A"/>
<path d="M20.0418 15.1719C20.2103 15.0455 20.6213 15.0455 21.2745 15.1719C22.2859 15.3616 23.171 15.8146 23.9296 16.5311C24.0981 16.6575 24.1087 16.8577 23.9612 17.1316C23.8347 17.3845 23.6872 17.4477 23.5187 17.3213C23.0762 16.942 22.6442 16.6891 22.2227 16.5627L21.6222 16.5311L21.7486 17.5425L21.9383 19.439C22.0015 22.3048 21.0638 26.0557 19.1251 30.6915C17.6079 34.3792 15.6588 38.1932 13.2776 42.1337C5.77595 54.5873 4.12179 65.3341 8.31514 74.374C9.89554 77.7877 12.1608 80.5798 15.1109 82.7502C17.7238 84.6467 20.2314 85.6792 22.6336 85.8478C22.8233 85.8689 22.7917 86.1112 22.5388 86.5748C22.307 87.0594 22.0858 87.2912 21.875 87.2702C19.0724 87.0805 16.2699 85.9742 13.4673 83.9513C10.3486 81.6755 7.97798 78.7254 6.35543 75.101C2.14101 65.7029 3.96375 54.503 11.8236 41.5015C15.5323 35.3485 18.0505 30.2912 19.378 26.3296C20.7898 22.1363 21.0216 18.7331 20.0734 16.1202C19.8837 15.6355 19.8732 15.3194 20.0418 15.1719Z" fill="#0D131A"/>
<path d="M36.4148 14.0656C36.5623 14.2131 36.5623 14.4449 36.4148 14.761C36.2673 15.0982 36.1198 15.193 35.9723 15.0455C34.3919 13.4019 32.3373 12.0849 29.8087 11.0945C27.4275 10.1884 25.2887 9.788 23.3922 9.89336C22.5072 9.95658 22.0331 10.0725 21.9698 10.2411C21.9066 10.3886 22.1174 10.8416 22.602 11.6002C24.8989 15.2246 24.9621 20.5769 22.7917 27.6572C21.6116 31.4501 19.7678 36.1703 17.2602 41.8176C13.5515 51.574 13.2565 60.2768 16.3752 67.926C17.6606 71.0868 19.4412 73.7629 21.717 75.9544C23.8242 77.9984 26.1 79.3787 28.5443 80.0951C28.7129 80.1373 28.5865 80.348 28.165 80.7273C27.7436 81.0855 27.4381 81.2435 27.2484 81.2014C20.7793 79.3049 16.3436 74.4794 13.9414 66.7248C11.4338 58.6964 12.0449 50.1411 15.7746 41.059L18.5562 34.769C19.8837 31.6925 20.8846 29.0058 21.5589 26.7089C23.624 19.7973 23.3817 14.7083 20.832 11.4422C19.968 10.3253 19.5676 9.60889 19.6308 9.2928C19.6941 8.93458 20.3262 8.68171 21.5273 8.53421C23.7821 8.2392 26.3107 8.58689 29.1133 9.57728C32.0845 10.6309 34.5183 12.127 36.4148 14.0656Z" fill="#0D131A"/>
<path d="M34.2023 7.96526L35.3718 8.91351C35.4982 9.06101 35.4666 9.36656 35.2769 9.83015C35.0873 10.2727 34.9293 10.4202 34.8028 10.2727L34.139 9.48246C33.7597 9.10316 33.4753 8.95565 33.2856 9.03994C33.1171 9.12423 33.0538 9.39817 33.096 9.86175L33.3805 11.6634C33.4226 11.832 33.254 11.9163 32.8747 11.9163C32.4954 11.8952 32.2952 11.7899 32.2742 11.6002L31.9581 9.6405C31.8738 8.56582 32.0424 7.8599 32.4638 7.52275C32.822 7.24881 33.4015 7.39632 34.2023 7.96526Z" fill="#0D131A"/>
<path d="M82.689 16.8788C87.2195 20.5242 89.6007 24.9283 89.8325 30.091C89.8535 30.3017 89.5796 30.4597 89.0107 30.5651C88.4417 30.6915 88.1572 30.6494 88.1572 30.4387C87.9465 25.7185 85.8182 21.6411 81.7724 18.2063C76.9047 14.0762 70.0984 11.8531 61.3535 11.537C53.8729 11.263 48.5206 10.4307 45.2966 9.03994C42.6836 7.92312 40.7977 6.03716 39.6387 3.38208C39.3858 2.81313 39.1751 2.50758 39.0065 2.46544C38.8169 2.40222 38.5114 2.61295 38.0899 3.0976C36.6781 4.65694 35.8457 6.56397 35.5929 8.81868C35.34 11.1366 35.8247 12.9383 37.0468 14.2237C39.5123 16.7523 41.4615 19.734 42.8944 23.1688C43.7794 25.2971 44.8541 28.8477 46.1184 33.8207C47.6567 39.8684 49.353 44.3673 51.2073 47.3174C52.7034 49.6986 54.8949 51.8479 57.7818 53.7655C57.9082 53.8287 57.8239 54.1343 57.5289 54.6821C57.255 55.2089 57.0337 55.4197 56.8652 55.3143C53.1565 52.8699 50.4908 50.2781 48.8683 47.5387C47.3722 45.01 45.9287 40.901 44.538 35.2115C43.0419 29.0374 41.925 25.0231 41.1875 23.1688C40.0496 20.2398 38.3322 17.5847 36.0354 15.2035C34.3918 13.4967 33.865 10.9786 34.455 7.64918C35.0239 4.50944 36.1724 2.26525 37.9003 0.91664C38.6799 0.305548 39.2278 0.031611 39.5439 0.0948273C39.86 0.158044 40.1655 0.600558 40.4605 1.42237C41.7249 4.70962 43.5371 6.88005 45.8971 7.93365C48.5522 9.09262 53.7149 9.81961 61.3851 10.1146C70.404 10.4307 77.5053 12.6854 82.689 16.8788Z" fill="#0D131A"/>
<path d="M91.9186 18.4592C95.9434 21.915 97.6819 25.6553 97.134 29.6801C97.1129 29.8697 96.7968 29.954 96.1857 29.9329C95.5747 29.9119 95.2796 29.8065 95.3007 29.6169C95.7643 26.161 94.3946 22.9159 91.1917 19.8815C87.504 16.4046 82.373 14.4239 75.7985 13.9392C75.5878 13.9181 74.9767 13.6653 73.9652 13.1806C72.9327 12.6749 72.5112 12.422 72.7009 12.422C80.8347 12.422 87.2406 14.4344 91.9186 18.4592Z" fill="#0D131A"/>
<path d="M42.0095 99.9134C43.1474 95.4672 44.7383 92.1378 46.7823 89.9252L70.204 96.7526C72.248 104.549 72.4482 111.977 70.8045 119.036C69.8141 123.23 68.2653 126.97 66.1581 130.257C65.0202 132.048 62.7023 133.228 59.2043 133.797C55.5167 134.408 51.9661 134.04 48.5524 132.691C46.0659 131.722 44.1167 129.351 42.7049 125.579C41.3984 122.144 40.6925 118.025 40.5871 113.22C40.4818 108.521 40.9559 104.086 42.0095 99.9134Z" fill="#7CBEB3"/>
<path d="M47.0353 108.606C47.1617 107.32 48.7105 105.582 51.6817 103.39C54.6528 101.199 56.5388 100.409 57.3395 101.02C58.1613 101.631 58.3194 104.96 57.8137 111.008C57.3079 117.056 56.5388 120.122 55.5063 120.206C54.8952 120.248 53.3148 118.562 50.765 115.149C48.1942 111.693 46.951 109.512 47.0353 108.606Z" fill="#006359"/>
<path d="M41.4089 101.241C41.5142 110.281 43.5477 117.814 47.5093 123.841C51.3022 129.678 56.0435 132.891 61.7329 133.481C59.415 134.071 56.9074 134.261 54.2102 134.05C48.8157 133.629 45.1808 131.395 43.3054 127.349C41.43 123.325 40.5555 117.761 40.6819 110.66L41.4089 101.241Z" fill="#68A198"/>
<path d="M45.423 93.4021C42.6837 98.1012 41.4404 104.834 41.6933 113.6C41.9672 122.724 43.8848 128.593 47.4459 131.205C49.8692 132.976 53.1143 133.681 57.1813 133.323C61.1007 132.965 63.6925 131.89 64.9569 130.099C67.8227 126.032 69.6981 121.122 70.5831 115.37C71.3839 110.186 71.2785 105.255 70.267 100.577C69.7613 98.2382 69.6981 96.9844 70.0774 96.8158C70.4567 96.6472 70.9624 97.7008 71.5946 99.9766C72.9011 104.718 73.1645 109.849 72.3848 115.37C71.5419 121.375 69.6138 126.527 66.6005 130.826C65.0412 133.039 61.8171 134.335 56.9284 134.714C52.145 135.072 48.5417 134.366 46.1184 132.596C44.3694 131.311 42.926 129.035 41.7881 125.769C40.6923 122.65 40.0286 119.068 39.7968 115.022C39.2278 105.835 40.6818 98.4068 44.1587 92.7384C45.3809 90.7365 46.2238 89.7777 46.6874 89.862C47.172 89.9252 46.7506 91.1053 45.423 93.4021Z" fill="#0D131A"/>
<path d="M47.794 108.29C47.7518 109.027 48.837 111.092 51.0496 114.485C53.3043 117.941 54.7478 119.626 55.3799 119.542C56.0753 119.437 56.6442 116.581 57.0868 110.976C57.5293 105.35 57.4239 102.305 56.7707 101.842C56.1596 101.42 54.516 102.21 51.8398 104.212C49.1847 106.214 47.8361 107.573 47.794 108.29ZM46.34 107.974C46.4032 106.435 48.1627 104.497 51.6185 102.158C55.0112 99.8818 57.0446 99.06 57.7189 99.6922C58.8357 100.767 59.1518 104.423 58.6672 110.66C58.1614 116.898 57.2659 120.385 55.9805 121.123C55.0954 121.649 53.2516 119.985 50.449 116.128C47.6465 112.293 46.2768 109.575 46.34 107.974Z" fill="#0D131A"/>
<path d="M22.5072 130.32C22.4018 130.004 22.8022 129.467 23.7083 128.708C24.6355 127.95 25.3308 127.602 25.7944 127.665C26.6373 127.771 27.2168 128.687 27.5329 130.415C27.8279 132.017 27.849 132.933 27.5961 133.165C27.3011 133.439 26.4793 133.271 25.1307 132.659C23.6767 132.006 22.8022 131.227 22.5072 130.32Z" fill="white"/>
<path d="M31.9264 132.691C30.4514 132.017 29.7139 131.342 29.7139 130.668C29.7139 130.078 30.1458 129.362 31.0098 128.519C31.8527 127.676 32.4954 127.36 32.9379 127.571C33.6333 127.908 34.2022 128.898 34.6447 130.542C35.0662 132.122 35.0873 133.039 34.708 133.292C34.3076 133.566 33.3804 133.365 31.9264 132.691Z" fill="white"/>
<path d="M36.8892 130.763C36.7417 129.667 37.142 128.656 38.0903 127.729L39.5759 126.654C40.3555 126.991 40.9666 128.003 41.4091 129.688C41.8095 131.206 41.9043 132.091 41.6936 132.343L39.1966 132.28C37.7215 131.922 36.9524 131.416 36.8892 130.763Z" fill="white"/>
<path d="M49.3109 133.418C49.2688 132.87 49.4584 132.28 49.8799 131.648C50.3856 130.889 51.0283 130.521 51.808 130.542C52.5876 130.563 53.1882 130.858 53.6096 131.427C53.9468 131.954 54.0943 132.596 54.0521 133.355C54.01 134.05 53.7677 134.83 53.3252 135.694C52.9037 136.558 52.5666 136.99 52.3137 136.99C52.0398 136.99 51.4919 136.537 50.6701 135.631C49.8061 134.682 49.3531 133.945 49.3109 133.418Z" fill="white"/>
<path d="M55.6009 134.113C55.5377 133.081 55.8222 132.228 56.4543 131.553C56.9601 130.984 57.4658 130.7 57.9715 130.7C58.3508 130.7 58.7933 130.984 59.2991 131.553C59.8048 132.143 60.1209 132.733 60.2473 133.323C60.3316 133.703 60.2368 134.356 59.9628 135.283C59.6889 136.273 59.3623 136.863 58.983 137.053C58.6037 137.264 57.9715 137.032 57.0865 136.358C56.1382 135.662 55.643 134.914 55.6009 134.113Z" fill="white"/>
<path d="M61.8276 133.924C61.2376 133.292 61.2903 132.333 61.9857 131.047C62.681 129.762 63.3659 129.214 64.0402 129.404C64.6724 129.615 65.2835 130.5 65.8735 132.059C66.4214 133.555 66.5583 134.514 66.2844 134.935C66.0315 135.315 65.3783 135.399 64.3247 135.188C63.25 134.956 62.4176 134.535 61.8276 133.924Z" fill="white"/>
<path d="M72.5747 128.171C72.4904 127.729 72.9013 127.181 73.8074 126.528C74.6925 125.895 75.3352 125.664 75.7355 125.832C76.4309 126.148 76.884 127.033 77.0947 128.487C77.3054 129.899 77.2211 130.689 76.8418 130.858C76.4625 131.026 75.7145 130.826 74.5977 130.257C73.3965 129.625 72.7222 128.93 72.5747 128.171Z" fill="white"/>
<path d="M81.1402 130.32C79.8548 129.878 79.1067 129.372 78.896 128.803C78.7064 128.319 79.033 127.623 79.8759 126.717C80.7187 125.832 81.3298 125.474 81.7091 125.642C82.4467 125.959 82.9629 126.77 83.2579 128.076C83.5108 129.214 83.5319 129.994 83.3211 130.415L81.1402 130.32Z" fill="white"/>
<path d="M84.5858 127.697C84.3329 127.191 84.6912 126.464 85.6605 125.516C86.6087 124.589 87.2936 124.21 87.715 124.378C88.1997 124.589 88.6738 125.358 89.1374 126.686C89.5799 127.992 89.6958 128.793 89.4851 129.088L87.0828 129.025C85.6921 128.687 84.8597 128.245 84.5858 127.697Z" fill="white"/>
<path d="M120.429 132.565C120.134 132.27 120.366 131.511 121.124 130.289C121.883 129.046 122.526 128.435 123.053 128.456C123.748 128.498 124.528 129.256 125.392 130.731C126.213 132.122 126.529 132.944 126.34 133.197C126.108 133.492 125.212 133.587 123.653 133.481C122.031 133.376 120.956 133.07 120.429 132.565Z" fill="white"/>
<path d="M127.32 130.826C127.025 130.51 127.214 129.72 127.889 128.456C128.542 127.191 129.111 126.58 129.596 126.622C130.059 126.664 130.712 127.402 131.555 128.835C132.356 130.247 132.683 131.111 132.535 131.427C132.345 131.743 131.576 131.859 130.228 131.774C128.795 131.69 127.825 131.374 127.32 130.826Z" fill="white"/>
<path d="M132.598 127.918C132.261 127.497 132.367 126.696 132.915 125.516C133.441 124.378 133.863 123.83 134.179 123.872C134.727 123.936 135.401 124.631 136.202 125.959C136.981 127.265 137.276 128.087 137.087 128.424C136.939 128.782 136.276 128.919 135.095 128.835C133.852 128.751 133.02 128.445 132.598 127.918Z" fill="white"/>
<path d="M23.8662 128.519L25.257 130.257C26.1841 131.543 26.7004 132.544 26.8058 133.26L24.5932 132.122C23.1392 131.3 22.4544 130.71 22.5387 130.352C22.623 129.994 22.8758 129.583 23.2973 129.119L23.8662 128.519Z" fill="#DBDCDC"/>
<path d="M30.9783 128.645L32.1794 130.131C33.0223 131.311 33.5807 132.375 33.8547 133.323C31.2628 132.417 29.9353 131.522 29.872 130.637C29.8299 130.089 29.9985 129.594 30.3778 129.151L30.9783 128.645Z" fill="#DBDCDC"/>
<path d="M40.9031 132.565C39.5545 132.27 38.5852 131.975 37.9952 131.68C37.3209 131.364 36.9416 130.974 36.8573 130.51C36.773 130.11 36.8573 129.646 37.1102 129.119L37.5211 128.456C38.09 128.73 38.7854 129.404 39.6072 130.479C40.3026 131.406 40.7346 132.101 40.9031 132.565Z" fill="#DBDCDC"/>
<path d="M50.5754 131.205L50.8915 133.134C51.1654 134.588 51.5026 135.725 51.9029 136.547L50.7018 135.504C49.9221 134.64 49.5534 133.755 49.5955 132.849C49.6377 132.217 49.7957 131.753 50.0696 131.458C50.2804 131.227 50.4489 131.142 50.5754 131.205Z" fill="#DBDCDC"/>
<path d="M56.2646 132.217L57.4657 134.177L59.0461 137.085C58.4561 136.895 57.8661 136.621 57.2761 136.263C56.096 135.546 55.5482 134.777 55.6325 133.955C55.7167 133.155 55.8432 132.628 56.0117 132.375L56.2646 132.217Z" fill="#DBDCDC"/>
<path d="M61.986 131.079L63.4716 132.501C64.5252 133.576 65.1679 134.472 65.3997 135.188L63.44 134.556C62.1335 134.05 61.5013 133.555 61.5435 133.07L61.7963 131.648L61.986 131.079Z" fill="#DBDCDC"/>
<path d="M73.6176 126.749C73.8073 126.875 74.2076 127.349 74.8187 128.171C75.5773 129.204 75.9988 130.036 76.083 130.668L73.8073 129.593C73.2172 129.235 72.9117 128.782 72.8906 128.234C72.8695 127.834 72.9854 127.465 73.2383 127.128L73.6176 126.749Z" fill="#DBDCDC"/>
<path d="M79.5285 126.938L80.5716 127.665C81.3723 128.403 82.0677 129.372 82.6577 130.573L80.9509 130.099C79.7919 129.678 79.1492 129.193 79.0228 128.645C78.8963 128.097 78.9385 127.655 79.1492 127.318L79.5285 126.938Z" fill="#DBDCDC"/>
<path d="M85.4706 125.674L86.7666 126.622C87.6938 127.444 88.3259 128.298 88.6631 129.183L86.8614 128.93C85.5971 128.614 84.849 128.14 84.6172 127.507C84.4908 127.212 84.5435 126.844 84.7753 126.401C84.986 125.98 85.2178 125.737 85.4706 125.674Z" fill="#DBDCDC"/>
<path d="M121.251 130.131C123.021 130.974 124.443 132.027 125.518 133.292L123.147 133.323C121.567 133.239 120.745 132.923 120.682 132.375C120.619 131.827 120.693 131.29 120.903 130.763L121.251 130.131Z" fill="#DBDCDC"/>
<path d="M127.857 128.772C128.216 128.877 128.816 129.193 129.659 129.72C130.797 130.415 131.503 131.079 131.777 131.711L129.564 131.616C128.068 131.448 127.309 131.121 127.288 130.637C127.246 130.173 127.331 129.72 127.541 129.277L127.857 128.772Z" fill="#DBDCDC"/>
<path d="M132.851 125.674L134.242 126.527C135.275 127.244 135.991 128.003 136.391 128.803L134.748 128.677C133.61 128.508 132.904 128.224 132.63 127.823C132.356 127.423 132.314 126.938 132.504 126.369L132.851 125.674Z" fill="#DBDCDC"/>
<path d="M119.829 132.754C119.66 132.143 119.997 131.163 120.84 129.815C121.683 128.445 122.41 127.75 123.021 127.729C123.632 127.708 124.486 128.508 125.581 130.131C126.656 131.711 127.12 132.786 126.972 133.355C126.846 133.861 125.666 134.019 123.432 133.829C121.198 133.639 119.997 133.281 119.829 132.754ZM121.883 130.289C121.356 131.132 121.146 131.743 121.251 132.122C121.462 132.417 122.21 132.659 123.495 132.849C124.739 133.039 125.413 133.028 125.518 132.818C125.624 132.586 125.339 131.911 124.665 130.795C123.948 129.657 123.39 129.077 122.99 129.056C122.758 129.035 122.389 129.446 121.883 130.289Z" fill="#0D131A"/>
<path d="M131.872 131.174C131.998 130.984 131.724 130.31 131.05 129.151C130.397 127.992 129.901 127.381 129.564 127.318C129.311 127.297 128.953 127.739 128.49 128.645C128.005 129.551 127.805 130.184 127.889 130.542C127.952 130.858 128.616 131.09 129.88 131.237L131.872 131.174ZM129.722 125.895C130.397 125.98 131.197 126.917 132.124 128.708C133.01 130.415 133.357 131.469 133.168 131.869C132.978 132.291 131.977 132.417 130.165 132.249C128.31 132.059 127.194 131.701 126.814 131.174C126.477 130.71 126.698 129.709 127.478 128.171C128.258 126.57 129.006 125.811 129.722 125.895Z" fill="#0D131A"/>
<path d="M133.325 125.864C133.009 126.58 132.946 127.17 133.136 127.634C133.22 127.887 133.778 128.087 134.811 128.234L136.486 128.14C136.613 127.929 136.391 127.318 135.822 126.306C135.253 125.232 134.758 124.705 134.337 124.726C133.979 124.768 133.641 125.147 133.325 125.864ZM132.63 125.074C133.283 123.872 133.842 123.272 134.305 123.272C135.085 123.272 135.907 124.146 136.771 125.895C137.614 127.581 137.909 128.635 137.656 129.056L134.843 129.151C133.115 128.94 132.177 128.645 132.029 128.266C131.713 127.444 131.914 126.38 132.63 125.074Z" fill="#0D131A"/>
<path d="M58.9832 131.996C58.625 131.574 58.2773 131.385 57.9401 131.427C57.4555 131.448 57.0235 131.753 56.6442 132.343C56.2649 132.912 56.1069 133.46 56.1701 133.987C56.2333 134.472 56.6442 135.02 57.4028 135.631C58.1403 136.2 58.6355 136.431 58.8884 136.326C59.057 136.263 59.2361 135.957 59.4257 135.409C59.6786 134.777 59.7629 134.187 59.6786 133.639C59.6154 132.986 59.3836 132.438 58.9832 131.996ZM55.696 131.585C56.4124 130.531 57.1921 130.036 58.035 130.099C58.6461 130.141 59.1939 130.457 59.6786 131.047C60.1632 131.638 60.4688 132.364 60.5952 133.228C60.7427 134.071 60.6795 134.988 60.4056 135.978C60.1316 136.948 59.7945 137.506 59.3941 137.654C58.8884 137.843 58.0771 137.569 56.9603 136.832C55.7592 136.01 55.0743 135.114 54.9058 134.145C54.7793 133.408 55.0427 132.554 55.696 131.585Z" fill="#0D131A"/>
<path d="M52.946 131.933C52.6721 131.553 52.3665 131.342 52.0294 131.3C51.629 131.258 51.2076 131.427 50.765 131.806C50.3015 132.185 50.0697 132.596 50.0697 133.039C50.0907 133.587 50.3963 134.24 50.9863 134.998C51.5131 135.715 51.9029 136.073 52.1558 136.073C52.3876 136.052 52.6405 135.747 52.9144 135.157C53.2094 134.567 53.3675 133.976 53.3885 133.386C53.4096 132.839 53.2621 132.354 52.946 131.933ZM49.6904 130.889C50.47 130.194 51.2813 129.899 52.1242 130.004C52.8196 130.089 53.4201 130.468 53.9259 131.142C54.4105 131.817 54.6318 132.565 54.5896 133.386C54.5686 134.061 54.3052 134.925 53.7994 135.978C53.2516 137.074 52.7774 137.643 52.3771 137.685C51.9135 137.748 51.1865 137.211 50.1961 136.073C49.1425 134.893 48.5946 133.892 48.5525 133.07C48.5103 132.291 48.8896 131.564 49.6904 130.889Z" fill="#0D131A"/>
<path d="M65.1151 131.3C64.6305 130.626 64.188 130.289 63.7876 130.289C63.3872 130.247 62.9868 130.542 62.5865 131.174C62.165 131.827 62.007 132.438 62.1124 133.007C62.2177 133.513 62.8077 133.955 63.8824 134.335C64.9149 134.672 65.5155 134.767 65.6841 134.619C65.8316 134.493 65.8632 134.05 65.7789 133.292C65.6946 132.47 65.4734 131.806 65.1151 131.3ZM64.0088 128.898C65.0414 129.046 65.8527 130.131 66.4427 132.154C66.9905 134.05 67.0959 135.188 66.7588 135.567L63.7876 135.378C62.0175 134.893 61.0587 134.261 60.9112 133.481C60.7427 132.617 60.985 131.627 61.6382 130.51C62.3547 129.309 63.1449 128.772 64.0088 128.898Z" fill="#0D131A"/>
<path d="M41.978 129.435C42.5048 131.458 42.5575 132.596 42.1361 132.849C41.5882 133.165 40.5135 133.102 38.912 132.659C37.2473 132.196 36.3201 131.637 36.1305 130.984C35.8776 130.205 36.1726 129.204 37.0155 127.981C37.8795 126.717 38.7434 126.117 39.6074 126.18C40.6189 126.243 41.4091 127.328 41.978 129.435ZM37.458 130.479C37.5213 130.921 38.1007 131.321 39.1965 131.68C40.2501 132.017 40.8928 132.08 41.1246 131.869C41.2932 131.722 41.1983 131.016 40.8401 129.752C40.4608 128.403 40.0183 127.686 39.5126 127.602C39.0911 127.539 38.6275 127.823 38.1218 128.456C37.5529 129.13 37.3316 129.804 37.458 130.479Z" fill="#0D131A"/>
<path d="M30.4726 130.668C30.4726 131.153 31.0521 131.659 32.2111 132.185C33.349 132.691 34.0022 132.828 34.1708 132.596C34.3604 132.364 34.3077 131.68 34.0127 130.542C33.6966 129.32 33.2857 128.656 32.78 128.55C32.2954 128.445 31.7896 128.666 31.2628 129.214C30.7782 129.72 30.5148 130.184 30.4726 130.605V130.668ZM30.441 128.171C31.3471 127.328 32.1478 126.97 32.8432 127.096C33.8968 127.286 34.6554 128.392 35.119 130.415C35.5615 132.333 35.5721 133.471 35.1506 133.829C34.7503 134.208 33.6334 133.998 31.8002 133.197C29.8826 132.396 28.966 131.49 29.0502 130.479C29.1135 129.762 29.577 128.993 30.441 128.171Z" fill="#0D131A"/>
<path d="M85.2177 127.254C85.2809 127.676 85.892 128.076 87.0509 128.456C88.1677 128.814 88.7999 128.898 88.9474 128.708C89.0949 128.519 89.0001 127.866 88.6629 126.749C88.3047 125.569 87.9149 124.958 87.4934 124.915C87.1352 124.873 86.6506 125.147 86.0395 125.737C85.4284 126.348 85.1544 126.854 85.2177 127.254ZM85.2493 125.137C86.345 124.083 87.209 123.662 87.8411 123.872C88.6419 124.167 89.2951 125.168 89.8008 126.875C90.2855 128.498 90.3698 129.457 90.0537 129.752C89.7376 130.025 88.7051 129.931 86.9561 129.467C85.165 128.982 84.164 128.445 83.9533 127.855C83.7005 127.118 84.1324 126.211 85.2493 125.137Z" fill="#0D131A"/>
<path d="M81.2037 129.783C82.1309 130.099 82.6682 130.184 82.8157 130.036C82.9632 129.889 82.9316 129.288 82.7209 128.234C82.4891 127.118 82.1625 126.506 81.7411 126.401C81.3196 126.296 80.8244 126.528 80.2555 127.096C79.6865 127.686 79.4547 128.203 79.5601 128.645C79.6865 129.088 80.2344 129.467 81.2037 129.783ZM81.9939 125.232C82.6893 125.4 83.2688 126.317 83.7324 127.981C84.1538 129.604 84.196 130.668 83.8588 131.174C83.6481 131.49 82.7104 131.353 81.0457 130.763C79.3178 130.152 78.3906 129.509 78.2642 128.835C78.1167 128.161 78.517 127.349 79.4653 126.401C80.4346 125.432 81.2775 125.042 81.9939 125.232Z" fill="#0D131A"/>
<path d="M74.8186 129.72C75.7458 130.226 76.3042 130.415 76.4939 130.289C76.6625 130.184 76.6835 129.572 76.5571 128.456C76.4096 127.276 76.1146 126.612 75.6721 126.464C75.2506 126.317 74.7449 126.464 74.1549 126.907C73.5859 127.328 73.312 127.75 73.3331 128.171C73.3541 128.677 73.8493 129.193 74.8186 129.72ZM76.0198 125.295C76.9048 125.484 77.4316 126.528 77.6002 128.424C77.7477 130.215 77.6423 131.237 77.2841 131.49C76.8837 131.743 75.8933 131.448 74.3129 130.605C72.7114 129.72 71.8791 128.951 71.8159 128.298C71.7526 127.686 72.2057 126.991 73.175 126.211C74.2076 125.411 75.1558 125.105 76.0198 125.295Z" fill="#0D131A"/>
<path d="M25.0041 131.711C26.1209 132.28 26.7636 132.459 26.9322 132.249C27.1219 132.038 27.0903 131.374 26.8374 130.257C26.5635 129.098 26.2368 128.466 25.8575 128.361C25.415 128.213 24.8777 128.382 24.2455 128.867C23.6134 129.351 23.2973 129.825 23.2973 130.289C23.3184 130.647 23.8873 131.121 25.0041 131.711ZM26.142 126.938C27.0481 127.128 27.6908 128.234 28.0701 130.257C28.4283 132.196 28.4178 133.281 28.0385 133.513C27.3853 133.955 26.2052 133.724 24.4984 132.818C22.8126 131.933 21.9381 131.142 21.8749 130.447C21.7906 129.646 22.2858 128.814 23.3605 127.95C24.4141 127.107 25.3413 126.77 26.142 126.938Z" fill="#0D131A"/>
</g>
<defs>
<clipPath id="clip0_70_2">
<rect width="143" height="137.938" fill="white"/>
</clipPath>
</defs>
</svg>
