<svg width="143" height="131" viewBox="0 0 143 131" fill="none" xmlns="http://www.w3.org/2000/svg">
<g clip-path="url(#clip0_70_92)">
<path d="M128.356 62.5731C133.097 66.3739 136.715 70.5924 139.211 75.2286C141.216 78.9459 142.218 82.256 142.218 85.1589C142.218 88.9493 140.761 92.8128 137.848 96.7494C135.039 100.55 131.489 103.625 127.197 105.975C128.168 107.009 128.863 107.833 129.28 108.45C129.844 109.285 130.126 110.016 130.126 110.642C130.126 110.851 130.032 111.112 129.844 111.425L129.39 112.146C128.304 114.307 124.623 115.644 118.348 116.156C113.388 116.563 108.658 116.443 104.157 115.795C100.868 115.315 98.054 114.537 95.715 113.462C95.1929 113.232 93.6945 112.376 91.2198 110.893C90.1338 110.235 89.3507 109.823 88.8704 109.656C88.129 109.384 87.3719 109.332 86.5993 109.499C75.8963 111.786 67.7307 112.558 62.1026 111.817C59.1997 111.431 56.4796 110.637 53.9422 109.436C51.6346 108.34 49.1912 106.758 46.612 104.69C38.7075 99.2293 33.1315 93.3505 29.8841 87.0541C26.6262 80.7472 25.9841 74.5917 27.9576 68.5876C29.054 65.2462 30.9283 62.1449 33.5805 59.2839C36.2328 56.4123 39.4959 53.9637 43.3698 51.938C47.4108 49.8183 51.8747 48.252 56.7615 47.2391C61.6692 46.2158 66.8171 45.7825 72.2051 45.9391C85.3514 46.315 96.9315 48.1371 106.945 51.4054C115.403 54.1725 122.54 57.8951 128.356 62.5731Z" fill="#0D131A"/>
<path d="M126.445 106.601C127.03 106.956 127.599 107.719 128.153 108.888C128.758 110.141 128.899 111.091 128.576 111.739C127.646 113.597 124.341 114.736 118.661 115.153C114.025 115.487 109.503 115.336 105.097 114.699C101.797 114.229 98.9363 113.514 96.5138 112.553C95.1041 112 93.5013 111.18 91.7053 110.094C90.5253 109.395 89.6691 108.951 89.1366 108.763C88.249 108.46 87.3406 108.403 86.4112 108.59C76.93 110.543 69.3596 111.185 63.7001 110.517C58.0302 109.838 52.5064 107.64 47.1288 103.923C39.4123 98.5872 33.9616 92.865 30.7768 86.7565C27.5816 80.6375 26.9342 74.6752 28.8346 68.8695C31.0588 62.0823 36.2066 56.6421 44.2782 52.5488C52.3498 48.4556 61.6535 46.5604 72.1894 46.8632C90.849 47.4062 105.499 50.2673 116.139 55.4465C126.78 60.6361 134.564 68.7129 139.493 79.6769C141.758 84.6994 140.767 90.1658 136.517 96.0759C134.961 98.2374 133.107 100.253 130.956 102.122C129.15 103.688 127.584 104.795 126.258 105.442C124.399 106.361 123.731 106.857 124.253 106.93C124.597 106.982 125.328 106.873 126.445 106.601Z" fill="#5DC1CF"/>
<path d="M47.1289 103.923L45.124 102.482C50.9088 102.492 57.5603 101.767 65.0785 100.305L84.8606 95.8723C85.9466 100.206 87.3458 104.497 89.0583 108.747C88.1916 108.455 87.3093 108.403 86.4113 108.59C76.93 110.543 69.3597 111.185 63.7002 110.517C58.0302 109.838 52.5064 107.64 47.1289 103.923Z" fill="#50A8B4"/>
<path d="M128.059 91.5023C128.414 89.8838 128.053 88.1557 126.978 86.3179C126.007 84.6577 124.644 83.2062 122.89 81.9637C121.156 80.7211 119.507 80.011 117.94 79.8335C116.238 79.6351 115.001 80.1311 114.228 81.3215C114.447 80.956 114.354 80.3608 113.946 79.5359C113.518 78.6692 112.819 77.7295 111.847 76.7166C109.415 74.2001 106.313 72.2005 102.544 70.7177C97.7927 68.8382 92.7336 68.1647 87.3664 68.6972C80.7985 69.3551 74.1261 71.8089 67.3493 76.0588C64.6449 77.7504 61.7995 78.215 58.8131 77.4528C56.4114 76.8262 53.6809 75.3069 50.6214 72.8949C49.7547 72.2057 47.0764 69.8458 42.5864 65.8153C39.3285 62.8811 36.6397 60.8136 34.52 59.6128C38.4984 55.4569 43.7872 52.246 50.3865 49.9801C57.1006 47.6829 64.3682 46.6439 72.1892 46.8632C90.8488 47.4062 105.499 50.2673 116.139 55.4465C126.779 60.6361 134.564 68.7129 139.492 79.6769C141.758 84.6994 140.766 90.1658 136.516 96.0759C134.961 98.2373 133.107 100.253 130.956 102.122C129.15 103.688 127.583 104.795 126.257 105.442C124.399 106.361 123.73 106.857 124.252 106.93C124.597 106.982 125.328 106.873 126.445 106.601C127.03 106.956 127.599 107.719 128.152 108.888C128.758 110.141 128.899 111.091 128.575 111.739C128.105 112.689 126.967 113.456 125.161 114.041C123.574 114.563 121.538 114.923 119.052 115.122C119 113.368 118.603 111.807 117.862 110.439C117.246 109.321 116.552 108.543 115.779 108.105C122.963 101.589 127.056 96.055 128.059 91.5023Z" fill="#50A8B4"/>
<path d="M123.485 112.334C124.519 113.545 124.983 114.412 124.879 114.934C124.722 115.654 124.466 116.422 124.111 117.236C123.642 118.281 123.213 118.797 122.827 118.787C121.793 118.766 120.666 118.495 119.444 117.973C118.348 117.513 117.298 116.907 116.296 116.156C116.139 116.051 116.045 115.931 116.014 115.795C115.951 115.545 116.103 115.174 116.468 114.683C118.922 111.488 120.483 110.016 121.151 110.266C121.725 110.486 122.503 111.175 123.485 112.334Z" fill="#0D131A"/>
<path d="M123.156 113.007C123.97 114.02 124.341 114.72 124.268 115.106C124.174 115.587 123.939 116.124 123.563 116.72C123.166 117.315 122.848 117.612 122.608 117.612C122.117 117.612 121.167 117.398 119.757 116.97C118.222 116.49 117.303 116.072 117 115.717C117.053 115.414 117.455 114.783 118.207 113.822C119.042 112.767 119.804 112.01 120.493 111.551C120.848 111.311 121.088 111.206 121.214 111.238C121.705 111.425 122.352 112.015 123.156 113.007Z" fill="white"/>
<path d="M121.229 111.253C121.72 111.452 122.368 112.042 123.172 113.023C123.976 114.036 124.341 114.73 124.268 115.106C124.174 115.534 123.97 116.009 123.657 116.532C123.198 114.746 122.389 112.987 121.229 111.253Z" fill="#DBDCDC"/>
<path d="M131.301 109.53C132.773 110.992 133.405 111.984 133.196 112.506C132.789 113.509 131.531 114.166 129.421 114.48C128.596 114.605 127.886 114.621 127.291 114.527C126.675 114.433 126.388 114.25 126.43 113.978C126.534 113.279 126.816 112.057 127.276 110.313C127.725 108.58 127.991 107.698 128.074 107.666C128.743 107.416 129.818 108.037 131.301 109.53Z" fill="#0D131A"/>
<path d="M127.401 113.336L127.37 113.054C127.37 112.543 127.552 111.697 127.918 110.517C128.242 109.452 128.508 108.737 128.717 108.371C129.103 108.601 129.729 109.227 130.596 110.251C131.505 111.326 131.959 112.031 131.959 112.365V112.381C131.938 112.59 131.614 112.84 130.988 113.133C130.309 113.456 129.609 113.66 128.889 113.744C128.012 113.848 127.516 113.712 127.401 113.336Z" fill="#DBDCDC"/>
<path d="M114.526 107.447L120.916 106.915C121.532 106.831 121.83 106.894 121.809 107.103C121.788 107.29 121.553 107.484 121.104 107.682C120.53 107.943 118.473 108.126 114.933 108.23C111.038 108.356 108.464 108.168 107.211 107.666L107.352 107.243C108.365 107.578 110.756 107.645 114.526 107.447Z" fill="#0D131A"/>
<path d="M115.027 74.0696C115.142 73.37 115.288 73.0202 115.466 73.0202C115.653 73.0202 115.737 73.37 115.716 74.0696C115.518 79.0295 114.406 83.1123 112.38 86.3179C110.218 89.7324 106.861 92.3899 102.309 94.2903L102.042 93.6481C106.125 91.9461 109.279 89.0902 111.503 85.0806C113.132 82.1464 114.306 78.4761 115.027 74.0696Z" fill="#0D131A"/>
<path d="M65.1878 41.7571L65.5167 42.0547L50.8406 52.3452C50.59 52.5018 48.0422 53.3581 43.1971 54.9139C38.2999 56.4698 35.7416 57.2268 35.5223 57.185C35.3344 57.1433 34.8541 55.7597 34.0814 53.0344L32.4994 47.3801L30.6355 58.579C26.2499 59.9052 23.9632 60.4951 23.7752 60.3489C23.6708 60.2654 23.6186 59.2943 23.6186 57.4356L23.5873 52.4079L21.5668 61.6803L19.374 62.3851C17.8808 62.8341 17.0506 62.9907 16.8836 62.855C16.7165 62.7192 16.492 61.863 16.2101 60.2863L15.5522 56.6368L13.5317 63.7634C11.6313 64.7136 10.561 65.0948 10.3208 64.9068C10.1851 64.8024 10.0807 64.2177 10.0076 63.1526L9.80396 60.4586L8.36298 65.5803C5.70029 66.1964 4.31674 66.4105 4.21232 66.2225C4.13923 66.0972 4.48903 65.0426 5.26173 63.0586L6.98465 58.6104L0.844813 64.7502C0.458463 65.1157 0.244404 65.1679 0.202637 64.9068L0.265288 64.3899L3.16291 55.979L8.84853 52.9561L4.10268 54.2404L8.12804 48.962L14.9727 45.9235L11.2293 46.6753C9.79874 46.9676 9.04692 47.0616 8.97383 46.9572C8.89029 46.8423 10.0963 45.7355 12.5919 43.6367C15.0771 41.5587 16.4607 40.4728 16.7426 40.3788L19.6402 40.1595L23.8535 39.9559C22.6527 39.5382 21.6503 39.1153 20.8463 38.6872L20.2824 38.4523C20.2615 38.421 20.4599 38.2957 20.8776 38.0764C29.0954 33.8056 37.0625 31.9261 44.7791 32.4377C52.8507 32.9703 59.6536 36.0767 65.1878 41.7571Z" fill="#0D131A"/>
<path d="M21.8174 38.421C30.1604 34.6201 37.9397 33.0225 45.155 33.6281C52.3808 34.2233 58.7921 37.0061 64.389 41.9764L49.8225 51.7814C40.8112 54.893 36.1959 56.4019 35.9766 56.3079C35.82 56.2348 35.2561 54.6424 34.285 51.5308C33.3139 48.4086 32.7918 46.4925 32.7187 45.7825C32.6352 45.0516 32.5203 44.7853 32.3741 44.9837C32.2071 45.1821 31.9773 45.9287 31.685 47.2235C31.2777 48.9881 30.7243 52.5854 30.0247 58.0152L24.4487 59.4718L24.2138 49.4946C24.1825 48.6592 24.1303 48.2207 24.0572 48.1789C23.9736 48.1163 23.7961 48.5339 23.5246 49.4319C23.1383 50.6954 22.2925 54.5902 20.9872 61.1164L17.4005 62.0092C16.6173 58.8453 16.1265 56.5481 15.9281 55.1175C15.7924 54.1673 15.6723 53.7497 15.5679 53.8645L15.2546 55.1019L12.9835 63.1682L10.963 63.5755L10.6341 61.555C10.4462 60.3646 10.3156 59.4353 10.2425 58.767C10.159 57.963 10.0859 57.5609 10.0233 57.5609C9.9606 57.5714 9.8092 57.9577 9.56903 58.72C9.26622 59.7224 8.68147 61.8056 7.81479 64.9695L5.26175 65.361L8.15938 57.373C8.43087 56.6734 8.42042 56.4019 8.12805 56.5585L7.59551 57.0127L1.40869 63.1996L3.72679 56.4645C8.03929 54.0838 10.7542 52.6428 11.8715 52.1416C13.657 51.3271 13.5735 51.1131 11.6209 51.4994C10.7751 51.6665 9.74132 51.9275 8.51962 52.2826L5.88826 53.05L8.56661 49.5259L12.6389 47.7247L17.792 45.4222C18.6483 45.0359 19.0816 44.8114 19.092 44.7487C19.1025 44.6548 18.6065 44.66 17.6041 44.7644L14.3462 45.2813L11.3546 45.8451L17.0245 41.0523L21.0186 40.833L25.6861 40.5511C26.2395 40.4989 26.5214 40.4362 26.5319 40.3631C26.5319 40.29 26.2813 40.1282 25.7801 39.8776C25.4668 39.721 24.8664 39.5017 23.9788 39.2198C23.0495 38.9274 22.329 38.6611 21.8174 38.421Z" fill="#00A63C"/>
<path d="M33.69 42.0861C33.4081 42.0861 32.9904 41.778 32.437 41.162L30.6514 39.2041C28.8345 37.3768 27.0072 36.6406 25.1694 36.9956C32.8233 34.0093 39.9656 32.939 46.5962 33.7848C53.2372 34.6201 59.1682 37.3507 64.3892 41.9764L50.2926 51.4681C48.528 48.9829 46.1054 46.8528 43.0251 45.0777C39.8403 43.2294 36.7286 42.2322 33.69 42.0861Z" fill="#009233"/>
<path d="M57.372 38.6872L60.301 41.2559L59.1576 41.5535C58.2805 41.2612 57.0901 40.9897 55.5865 40.7391C52.6105 40.2587 49.4675 40.123 46.1574 40.3318C35.6424 40.9897 25.4668 44.9524 15.6305 52.2199L14.8317 52.7994C14.4454 53.0187 14.6177 52.7107 15.3486 51.8753C19.8804 46.6648 25.7383 42.8327 32.9223 40.3788C40.7015 37.7266 48.8514 37.1627 57.372 38.6872Z" fill="#0D131A"/>
<path d="M58.7505 40.833C52.7464 39.58 47.3532 39.2668 42.5708 39.8933C35.0839 40.8748 27.2055 44.0439 18.9355 49.4006C23.4673 45.1612 29.0433 42.1435 35.6635 40.3475C42.5238 38.4784 49.76 38.1338 57.3722 39.3137L57.6384 39.815C57.889 40.1909 58.2597 40.5302 58.7505 40.833Z" fill="#00A63C"/>
<path d="M57.3725 39.3137L57.6387 39.815C57.8893 40.1909 58.26 40.5302 58.7508 40.833C54.7411 39.9872 51.1961 39.5591 48.1157 39.5487C43.5213 39.5174 38.8642 40.2848 34.1445 41.8511L33.1577 41.0993C36.7915 39.8776 40.6289 39.1101 44.6699 38.7969C48.8258 38.4732 53.06 38.6455 57.3725 39.3137Z" fill="#009233"/>
<path d="M92.0499 29.963L92.1595 30.01L92.2222 30.1196C93.0158 31.2891 93.4334 32.5265 93.4752 33.8317C93.5274 35.1474 93.1985 36.4161 92.4884 37.6378C91.0684 40.0812 88.4422 41.9921 84.61 43.3704C80.0469 44.9993 74.4344 45.5632 67.7725 45.062C66.8849 44.9889 66.3263 44.6078 66.0966 43.9186C65.7937 43.0102 66.1592 41.7154 67.193 40.0342C68.2267 38.3635 69.6938 36.6876 71.5942 35.0064C74.0481 32.8345 76.669 31.1795 79.457 30.0413C84.041 28.1618 88.2386 28.1357 92.0499 29.963Z" fill="#00A63C"/>
<path d="M91.5329 30.7462C92.2221 31.8008 92.5667 32.9076 92.5667 34.0667C92.5667 35.1318 92.2743 36.1655 91.6895 37.1679C90.353 39.4756 87.8365 41.2768 84.14 42.5716C79.744 44.0961 74.309 44.6182 67.835 44.1379C67.3547 44.1066 67.0675 43.9343 66.9736 43.621C66.7438 42.9736 67.0937 41.9138 68.023 40.4415C69.0254 38.8647 70.4194 37.2828 72.205 35.6956C74.5335 33.6386 77.0187 32.0566 79.6605 30.9498C84.0043 29.1433 87.9618 29.0755 91.5329 30.7462Z" fill="#009233"/>
<path d="M78.6269 17.8556C80.0366 18.5866 80.9659 19.5159 81.4149 20.6436C83.0334 24.7577 83.9209 28.4646 84.0776 31.7642C84.2551 35.3458 83.6338 39.3137 82.2137 43.668C81.8796 44.7018 81.0808 45.6624 79.8173 46.55C78.5016 47.4897 76.8831 48.1946 74.9618 48.6645C72.2782 49.3223 69.6782 49.458 67.1617 49.0717C64.1127 48.6018 61.7946 47.3801 60.2074 45.4066C57.1479 41.5744 56.0985 36.578 57.0592 30.4172C57.3933 28.2662 57.9572 26.1308 58.7508 24.0111C59.346 22.3822 59.9098 21.1501 60.4424 20.3147C61.3612 18.8424 63.1572 17.7512 65.8304 17.0412C68.232 16.4042 70.7276 16.2058 73.3172 16.446C75.4474 16.6548 77.2173 17.1247 78.6269 17.8556Z" fill="#0D131A"/>
<path d="M80.5532 20.9882C82.109 24.9248 82.9548 28.6369 83.0905 32.1245C83.2472 35.7687 82.652 39.5487 81.305 43.4644C81.0126 44.3102 80.2921 45.1247 79.1435 45.9078C77.9322 46.7223 76.4599 47.3436 74.7266 47.7717C72.1266 48.4191 69.657 48.5757 67.3181 48.2416C64.3943 47.8343 62.259 46.6909 60.912 44.8114C58.2806 41.1359 57.3826 36.3482 58.2179 30.4486C58.5208 28.3706 59.0168 26.324 59.7059 24.3087C60.2489 22.7111 60.7501 21.5416 61.2096 20.8003C62.0449 19.4741 63.7052 18.4978 66.1903 17.8713C68.4458 17.3075 70.7952 17.1404 73.2386 17.3701C75.1599 17.5476 76.7628 17.9548 78.0471 18.5918C79.3419 19.2392 80.1772 20.038 80.5532 20.9882Z" fill="#C28600"/>
<path d="M80.5532 20.9882C81.8688 24.3401 82.6781 27.5092 82.9809 30.4956C83.2837 33.6177 83.0644 36.7764 82.3231 39.9716C78.209 36.8495 74.027 34.1398 69.7771 31.8426C64.222 28.8562 60.4786 27.7598 58.5469 28.5534C58.8915 26.8513 59.3561 25.212 59.9409 23.6352C60.4108 22.3613 60.8336 21.4163 61.2096 20.8003C62.0449 19.4741 63.7052 18.4978 66.1903 17.8713C68.4458 17.3075 70.7952 17.1404 73.2386 17.3701C75.1599 17.5476 76.7628 17.9548 78.0471 18.5918C79.3419 19.2392 80.1773 20.038 80.5532 20.9882Z" fill="#986A00"/>
<path d="M76.7627 25.7497C76.888 25.7079 77.3892 26.2248 78.2663 27.3003L79.77 29.1642C80.762 27.7963 81.6077 26.726 82.3074 25.9533L82.6206 25.6087L82.6989 26.0786C82.9913 27.6971 83.2993 29.112 83.623 30.3233C83.7483 31.0542 83.6857 32.2341 83.4351 33.8631L83.5134 35.351L83.1062 35.9619L82.276 37.9354L81.0073 40.833L80.7567 41.3186L78.8302 35.633L76.1049 41.068L73.7711 36.8703L71.0458 40.974L68.3048 37.3246L65.9553 42.0234L63.5903 36.8547L61.0685 39.7993L60.63 40.2222L60.2071 39.7053L57.4817 35.7113V35.633C57.4295 32.4273 57.8629 29.065 58.7818 25.5461L58.9071 25.0919L60.9432 27.8015L62.1649 26.4702C62.8646 25.7184 63.2979 25.3634 63.465 25.4051C63.632 25.4469 63.9296 26.3553 64.3577 28.1305L65.1096 31.31L66.8795 28.3811C67.861 26.7313 68.4144 25.9011 68.5397 25.8907C68.665 25.8802 69.0409 26.5015 69.6674 27.7546L70.7795 29.9787L71.9855 27.8329C72.6538 26.6216 73.0506 26.0055 73.1759 25.9847C73.3117 25.9638 73.6719 26.6686 74.2567 28.0991L75.3687 30.8245L76.0422 28.0052C76.3868 26.5433 76.627 25.7915 76.7627 25.7497Z" fill="#0D131A"/>
<path d="M82.3231 26.6425C82.7616 29.1172 82.9809 31.0803 82.9809 32.5317L82.9339 33.8004L82.699 35.2884C82.6363 35.3824 82.3753 36.082 81.9158 37.3872L80.8508 40.1282L79.8483 36.698C79.3054 34.8394 79.0026 33.9153 78.9399 33.9257C78.8668 33.9257 78.4126 34.8655 77.5772 36.745L76.0893 40.0812L74.8519 37.4342C74.1941 35.9828 73.8286 35.2779 73.7555 35.3197C73.6929 35.3615 73.2543 36.1237 72.4398 37.6065L71.0145 40.1752L69.4639 37.7474C68.5659 36.3691 68.0803 35.7061 68.0072 35.7583C67.9341 35.8105 67.6157 36.6093 67.0518 38.1547L65.9711 40.9583L64.812 37.9354C64.1751 36.2647 63.8148 35.4032 63.7313 35.351C63.6478 35.2988 63.1883 35.894 62.353 37.1366L60.8963 39.2824L57.9517 35.5546L57.936 35.1474C57.936 32.3281 58.3276 29.3261 59.1107 26.1413L59.8469 27.316L60.4734 28.3497L60.7867 28.757C60.8493 28.7987 60.9694 28.7309 61.1469 28.5534C62.0867 27.6136 62.7393 27.0027 63.1048 26.7208L63.9506 29.6498C64.4622 31.3518 64.8016 32.2393 64.9686 32.3124C65.1253 32.3855 65.7309 31.6389 66.7855 30.0727L68.5868 27.3317L69.6675 29.2738C70.2731 30.318 70.6386 30.8349 70.7639 30.8245C70.8892 30.814 71.2703 30.3233 71.9073 29.3522L73.0663 27.5039L74.3977 29.9474L75.4784 32.0148L76.982 27.0497L79.817 29.869L79.9736 29.6498L80.7881 28.569L82.3231 26.6425Z" fill="#C28600"/>
<path d="M61.5073 28.2088C62.3218 27.4048 62.8543 26.9088 63.1049 26.7208L63.7001 28.8353L61.5073 28.2088Z" fill="#986A00"/>
<path d="M59.1107 26.1413C59.3405 26.4545 59.7007 27.0549 60.1915 27.9425L58.7505 27.7389L59.1107 26.1413Z" fill="#986A00"/>
<path d="M76.9821 27.0497L79.8171 29.869L79.9737 29.6498L80.7882 28.569L82.3232 26.6425C82.7617 29.1172 82.981 31.0803 82.981 32.5317L82.934 33.8004L82.6991 35.2884L82.0882 36.886L81.1798 39.3764L80.4749 38.8908C79.5247 35.5703 79.0131 33.9153 78.94 33.9257C78.8669 33.9257 78.4022 34.8812 77.546 36.792C75.2905 35.1631 73.552 33.9518 72.3303 33.1582C70.3567 31.8843 68.5137 30.8506 66.8013 30.057L68.5868 27.3317L69.6676 29.2739C70.2732 30.318 70.6387 30.8349 70.764 30.8245C70.8893 30.814 71.2704 30.3233 71.9074 29.3522L73.0664 27.504L74.3977 29.9474L75.4785 32.0149L76.9821 27.0497Z" fill="#986A00"/>
<path d="M80.851 40.1282L80.4751 38.8908L81.1799 39.3764L80.851 40.1282Z" fill="#C28600"/>
<path d="M106.428 11.4809L106.898 12.1074L72.1736 17.4014L38.5142 9.0218L41.1455 6.10851C43.0042 4.28118 44.3512 3.43017 45.1865 3.55547C45.4371 3.59724 45.9018 3.76431 46.5805 4.05668L48.3661 4.8085L47.2854 3.61812C46.9199 3.19 46.8468 2.92896 47.0661 2.83498C48.1625 2.31288 49.7026 1.79601 51.6866 1.28436C54.934 0.428122 57.7429 0.151412 60.1132 0.454227C63.2353 0.861461 67.3808 4.02013 72.5495 9.93025C73.907 7.63303 74.8885 6.05108 75.4941 5.18441C77.1439 2.84542 78.5745 1.45143 79.7857 1.00243C81.2372 0.459448 83.2577 0.198401 85.8473 0.219285C88.1862 0.240168 89.434 0.375913 89.5907 0.626518C89.6742 0.772705 89.4706 1.26869 88.9798 2.11449L87.9304 3.93138C90.7184 2.35465 92.4257 1.58195 93.0522 1.61328C94.9735 1.75946 97.7406 3.40406 101.353 6.54707C103.87 8.72943 105.562 10.374 106.428 11.4809Z" fill="#0D131A"/>
<path d="M99.239 6.10851C102.1 8.33263 104.084 10.1078 105.191 11.4339L72.2206 16.4616L39.9082 8.64589C40.566 7.80009 41.2552 7.0535 41.9757 6.4061C43.0512 5.42456 44.0328 4.81371 44.9203 4.57355C45.7348 4.80327 47.275 5.36191 49.5408 6.24947L51.0758 6.86032L48.2565 3.14823C49.8854 2.58437 51.5039 2.14059 53.112 1.81689C55.7747 1.26347 58.0667 1.11206 59.988 1.36267C62.0763 1.63416 64.7129 3.23177 67.8977 6.1555C69.4953 7.61736 70.8945 9.06878 72.0953 10.5098L72.5339 11.0266L72.8628 10.4471L75.3689 6.54707C77.2693 3.89483 78.8512 2.33376 80.1147 1.86388C81.3677 1.38355 82.9079 1.10684 84.7352 1.03375C86.2806 0.971096 87.5546 1.04941 88.557 1.26869C88.0036 1.93697 87.4971 2.73055 87.0377 3.64944L86.4895 4.88681L86.0823 6.07718L87.163 5.45067L89.5907 3.9627C91.2614 2.98116 92.2847 2.46951 92.6607 2.42774C93.757 2.32332 95.9498 3.55024 99.239 6.10851Z" fill="#E85382"/>
<path d="M102.184 8.53626C103.645 9.82061 104.648 10.7865 105.191 11.4339L72.2206 16.4617L41.96 9.14711C46.6901 9.05313 50.3813 9.0949 53.0336 9.27241C57.1164 9.52302 60.8128 10.1234 64.1229 11.0736C63.1831 8.44228 61.9144 6.21816 60.3168 4.40127C58.928 2.8141 57.5445 1.79602 56.1662 1.34702C57.5654 1.21127 58.8393 1.21649 59.9879 1.36268C62.0763 1.63417 64.7128 3.23178 67.8976 6.15551C69.4952 7.61737 70.8944 9.0688 72.0953 10.5098L72.5338 11.0267L72.5495 10.9953C73.1133 11.7785 73.6824 12.264 74.2567 12.452C75.8961 12.9114 77.5303 12.8592 79.1592 12.2953C80.1721 11.9508 81.7227 11.1415 83.8111 9.8676C86.1187 8.46839 88.0192 7.45552 89.5123 6.82901C92.0288 5.77438 94.7072 5.11132 97.5474 4.83983C99.0301 5.89446 100.576 7.1266 102.184 8.53626Z" fill="#C94772"/>
<path d="M78.1566 5.482C78.6892 5.77437 79.1591 6.16072 79.5663 6.64105C79.8482 6.9543 80.0727 7.27278 80.2398 7.59648C80.4173 7.9515 80.4747 8.21255 80.4121 8.37962C80.3286 8.58846 79.8482 8.83384 78.9711 9.11578C77.9791 9.41859 77.0028 9.56478 76.0422 9.55433C74.904 9.53345 73.9851 9.28807 73.2855 8.81818L73.1445 8.7242L73.2385 8.58324C73.9486 7.43463 74.7265 6.31213 75.5723 5.21573L75.6193 5.16874L75.6662 5.15308C76.512 4.94424 77.3422 5.05388 78.1566 5.482Z" fill="#0D131A"/>
<path d="M79.0341 6.56273C79.3577 6.88643 79.624 7.22579 79.8329 7.58082C79.9999 7.88363 80.0835 8.09769 80.0835 8.22299V8.23866C80.0313 8.32219 79.8224 8.43705 79.457 8.58324L78.016 8.99047L76.0424 9.19409C75.0609 9.17321 74.2569 8.98003 73.6304 8.61456C74.4031 7.41375 75.1288 6.36956 75.8075 5.482C76.4653 5.32537 77.118 5.39324 77.7654 5.68561C78.2248 5.88401 78.6477 6.17638 79.0341 6.56273Z" fill="#FCEEF4"/>
<path d="M91.2354 5.85791C91.4129 5.7535 91.794 5.84225 92.3788 6.12418C93.5169 6.66716 94.6708 7.48685 95.8402 8.58325C97.3334 10.0138 98.2628 11.4495 98.6282 12.8905L98.6752 13.0628L92.739 13.9713L92.6764 13.9556C91.4338 13.3604 90.4731 12.5877 89.7944 11.6375C89.2827 10.9692 89.1627 10.0608 89.4341 8.91217C89.6117 8.23345 89.8988 7.57038 90.2956 6.92299C90.6611 6.33824 90.9743 5.98322 91.2354 5.85791Z" fill="#0D131A"/>
<path d="M91.3763 6.17117C91.5016 6.10851 91.867 6.23382 92.4727 6.54707C93.6213 7.14226 94.7229 7.95673 95.7775 8.99048C97.0514 10.2539 97.8711 11.5174 98.2366 12.7809L92.7859 13.6267C91.606 13.0419 90.6975 12.311 90.0606 11.4339C89.7787 11.058 89.6377 10.5829 89.6377 10.0086C89.6377 9.6953 89.6847 9.36116 89.7787 9.00614C89.9457 8.3483 90.2172 7.71134 90.5931 7.09527C90.9168 6.56274 91.1779 6.2547 91.3763 6.17117Z" fill="#D9CED4"/>
<path d="M89.4027 3.50848L89.3557 3.86872C89.2409 4.53701 89.0059 5.17918 88.6509 5.79525C88.2332 6.51574 87.7477 7.00651 87.1943 7.26756L84.7665 7.33021C83.9416 7.13182 83.2838 6.85511 82.793 6.50008C82.532 6.30169 82.4067 6.11373 82.4171 5.93622C82.4798 5.46633 82.5842 5.00167 82.7304 4.54223C83.0019 3.62334 83.3256 3.15345 83.7015 3.13257L84.6099 3.05426L87.7111 2.8663H88.0087L87.8521 3.13257C87.4866 3.72776 87.1838 4.32295 86.9437 4.91813L89.4027 3.50848Z" fill="#0D131A"/>
<path d="M83.7171 3.47715L84.6413 3.39884L87.257 3.22655C87.0586 3.59201 86.8758 3.97314 86.7088 4.36993L86.4895 4.88681L86.0822 6.07718L88.8389 4.40126C88.6823 4.9338 88.4525 5.4089 88.1497 5.82658C87.826 6.29646 87.4553 6.62538 87.0377 6.81334C86.526 7.0535 85.8473 7.10049 85.0015 6.9543C84.2288 6.829 83.5971 6.6045 83.1063 6.2808L82.7617 5.96754C82.8139 5.48722 82.934 4.97034 83.122 4.41692C83.3412 3.80085 83.5396 3.48759 83.7171 3.47715Z" fill="#FCEEF4"/>
<path d="M64.7179 3.10125L64.9215 3.24221L64.7336 3.39884C63.9191 4.01491 62.7601 4.74063 61.2564 5.57598C59.4709 6.5784 58.4006 7.00652 58.0455 6.86033C57.6801 6.71415 57.3668 6.27036 57.1058 5.52899C56.8134 4.69364 56.8447 3.98881 57.1998 3.41451C57.5026 2.93418 57.9411 2.48518 58.5154 2.0675C59.1837 1.58717 59.899 1.2687 60.6612 1.11207L60.6926 1.09641L60.7396 1.11207C61.909 1.43577 63.2352 2.09883 64.7179 3.10125Z" fill="#0D131A"/>
<path d="M58.2339 6.29647C58.0041 6.21293 57.7953 5.9049 57.6074 5.37236C57.4925 4.98601 57.4351 4.64665 57.4351 4.35428C57.4351 4.0619 57.4925 3.8113 57.6074 3.60246C57.8684 3.17434 58.2704 2.77233 58.8134 2.39642C59.4086 1.97875 60.0351 1.69682 60.6929 1.55063C61.7267 1.83256 62.8962 2.40686 64.2014 3.27354C63.3765 3.86873 62.2436 4.53701 60.8026 5.27838C59.3094 6.05108 58.4531 6.39045 58.2339 6.29647Z" fill="#FCEEF4"/>
<path d="M62.1965 4.52657C61.027 3.72254 59.8575 3.04382 58.688 2.4904C59.3354 2.01007 60.0037 1.69682 60.6928 1.55063C61.7266 1.83256 62.8961 2.40686 64.2013 3.27354C63.6583 3.67033 62.99 4.08801 62.1965 4.52657Z" fill="#D9CED4"/>
<path d="M51.2324 3.25787C52.4959 3.17434 53.2947 3.27876 53.6288 3.57113C53.9003 3.81129 53.989 4.26029 53.8951 4.91813C53.8011 5.55509 53.5609 6.19726 53.1746 6.84466C52.2035 8.49448 51.0601 9.10011 49.7444 8.66155C48.5123 8.3483 47.5986 7.13181 47.0034 5.01211L47.1131 4.65186L49.2119 5.45067L48.2095 4.13499L48.3504 4.02535C48.9456 3.58679 49.9063 3.33096 51.2324 3.25787Z" fill="#0D131A"/>
<path d="M51.5928 3.60246C52.5952 3.58158 53.2008 3.65989 53.4097 3.83741C53.5141 3.95227 53.4827 4.32818 53.3157 4.96513C53.1277 5.68562 52.8406 6.33824 52.4542 6.92299C51.7024 8.06115 50.8462 8.46839 49.8855 8.14469H49.8699C48.9405 7.91497 48.2357 7.05351 47.7554 5.56032L51.0759 6.86034L48.9771 4.08801C49.6245 3.79564 50.4964 3.63379 51.5928 3.60246Z" fill="#FCEEF4"/>
<path d="M69.8242 14.4568L70.0748 14.5821V20.8629L69.5266 20.7533C64.3892 20.2938 58.4216 20.4191 51.6239 21.1292C38.0704 22.5597 26.8505 26.1622 17.9645 31.9365L16.4765 32.9076C16.1737 33.0329 16.0693 32.7719 16.1633 32.1245C16.5496 29.5558 17.3067 26.5537 18.4344 23.1184C19.4368 20.0693 20.0894 18.4143 20.3922 18.1532C20.5697 18.0071 21.2485 17.652 22.4284 17.0882L26.0465 15.3339L22.2561 16.305C20.8987 16.6496 20.2513 16.7436 20.3139 16.587C20.4601 16.2319 21.1597 15.1825 22.4127 13.4387C23.8015 11.507 24.7152 10.4315 25.1537 10.2122C31.6277 6.87078 40.1013 6.18161 50.5745 8.14469C54.4067 8.86518 58.2545 9.89892 62.118 11.2459C65.1984 12.3214 67.7671 13.3917 69.8242 14.4568Z" fill="#0D131A"/>
<path d="M69.1508 15.146V19.7509C63.6062 18.832 57.3776 18.738 50.465 19.4689C38.1645 20.7846 27.0908 24.7055 17.2441 31.2317C17.5887 29.4984 18.2831 27.0654 19.3273 23.9328C19.9851 21.928 20.5855 20.226 21.1285 18.8267L24.6683 16.9002L29.0383 14.4412L30.26 13.6423C30.3331 13.5484 30.0616 13.5484 29.4455 13.6423L25.9997 14.3628L22.2876 15.2086C23.6346 13.1829 24.7675 11.7732 25.6864 10.9797C34.1757 8.24389 43.0147 7.71657 52.2036 9.39771C58.1868 10.5046 63.8359 12.4206 69.1508 15.146Z" fill="#E85382"/>
<path d="M60.2228 11.4652C63.3763 12.4885 66.3522 13.7154 69.1506 15.146V19.7508C65.2871 19.1243 60.8859 18.8998 55.9469 19.0773C55.2159 16.8741 54.0256 14.8536 52.3757 13.0158C50.799 11.2511 48.9456 9.80494 46.8154 8.67722C51.3054 9.08445 55.7746 10.0138 60.2228 11.4652Z" fill="#C94772"/>
<path d="M47.2852 8.14469L47.3635 8.16035L47.4105 8.20734L49.3997 10.7291C49.88 11.4078 50.0993 11.862 50.0575 12.0917L49.9479 12.2953C42.7952 14.7074 38.9108 15.7986 38.2947 15.5689C37.804 15.4018 36.7076 14.6918 35.0055 13.4387C33.0947 12.05 32.1967 11.1363 32.3115 10.6977C32.3742 10.4785 32.6718 10.2383 33.2043 9.97724L34.8802 9.25675C36.0602 8.78686 36.9007 8.37963 37.402 8.03505L37.4333 8.00372H37.4803C40.7068 7.76356 43.9751 7.81055 47.2852 8.14469Z" fill="#0D131A"/>
<path d="M47.0659 8.69288C48.6426 10.6037 49.431 11.7054 49.431 11.9977C49.0446 12.217 47.2277 12.7809 43.9803 13.6893C40.6702 14.6291 38.869 15.0572 38.5766 14.9737C38.0545 14.7753 37.0312 14.1122 35.5067 12.9845C33.93 11.815 33.1416 11.0893 33.1416 10.8074V10.7917C33.1729 10.6455 33.4027 10.4628 33.8308 10.2435L35.1778 9.64832C36.1384 9.24108 36.8433 8.90694 37.2923 8.6459C40.4561 8.37441 43.714 8.39007 47.0659 8.69288Z" fill="#FCEEF4"/>
<path d="M33.7524 17.4641C34.8071 17.7042 35.6163 17.9131 36.1802 18.0906C36.7023 18.2472 37.0521 18.6022 37.2296 19.1557C37.3027 19.3854 37.3392 19.6569 37.3392 19.9701C37.3392 20.4296 37.2557 20.9047 37.0886 21.3954C36.932 21.8653 36.7232 22.2621 36.4621 22.5858L36.4308 22.6328L36.3681 22.6485C34.0083 23.3585 31.7267 24.1678 29.5235 25.0762L29.2102 25.2485L27.0174 22.7894C25.5764 21.1083 24.9029 20.179 24.9969 20.0015C25.1849 19.6778 26.0881 19.0878 27.7066 18.2316C29.4191 17.3231 30.5677 16.9002 31.1524 16.9629L33.7524 17.4641Z" fill="#0D131A"/>
<path d="M36.102 22.3822C33.7944 23.0923 31.6277 23.8597 29.6019 24.6846L27.9573 22.8521C26.5268 21.3171 25.8115 20.4296 25.8115 20.1894V20.1737C25.9577 19.9127 26.7461 19.401 28.1766 18.6388C29.6802 17.8348 30.6774 17.4589 31.1682 17.5111L33.6429 17.9809C34.6558 18.2211 35.4337 18.4247 35.9767 18.5918C36.3735 18.7171 36.6345 18.9886 36.7598 19.4063C36.8329 19.6151 36.8695 19.8448 36.8695 20.0954C36.8695 20.4922 36.7964 20.9047 36.6502 21.3328C36.504 21.74 36.3213 22.0898 36.102 22.3822Z" fill="#FCEEF4"/>
<path d="M119.366 19.0617C119.846 21.7661 119.977 23.369 119.757 23.8702C119.663 24.0895 119.1 23.9276 118.066 23.3846L115.231 21.8967L118.63 25.2328C119.966 26.5485 120.687 27.3578 120.791 27.6606C120.916 28.0156 120.775 28.9554 120.368 30.4799C119.982 31.9731 119.684 32.8032 119.475 32.9703C119.204 33.2 118.113 32.6831 116.202 31.4197L117.925 33.7221C118.51 34.5052 118.807 34.9595 118.818 35.0848C118.818 35.2832 117.988 35.8888 116.327 36.9017C112.568 33.059 107.963 29.5192 102.513 26.2823C91.6426 19.8292 81.7541 17.8974 72.8472 20.487L72.4556 20.5966L72.299 20.2207C71.9544 19.4271 71.7978 18.383 71.8291 17.0882L72.0014 15.3026L72.0327 15.146L72.158 15.0363C73.6095 13.7415 75.75 12.4259 78.5798 11.0893C82.0778 9.43948 85.7064 8.2491 89.4655 7.51817C99.8552 5.482 109.028 7.28322 116.985 12.9218C118.019 13.9243 118.812 15.9709 119.366 19.0617Z" fill="#0D131A"/>
<path d="M114.009 29.9474L117.611 34.9751L116.656 35.9306C112.197 31.545 107.117 27.7702 101.416 24.6063C91.0889 18.8529 81.6285 17.1456 73.0349 19.4846C72.8469 18.8476 72.7529 18.1741 72.7529 17.4641C72.7529 16.7958 72.7947 16.1849 72.8782 15.6315C74.3505 14.3681 76.5016 13.0994 79.3313 11.8255C82.7876 10.2592 86.3587 9.14711 90.0447 8.48927C100.173 6.67238 108.934 8.56759 116.327 14.1749C116.995 15.0207 117.559 16.4147 118.019 18.3569C118.311 19.589 118.541 20.936 118.708 22.3979L113.476 20.1268C112.61 19.7613 112.161 19.6517 112.129 19.7978C112.108 19.9127 112.385 20.2729 112.959 20.8786L119.757 27.9269L118.708 31.9679C118.374 31.7486 117.768 31.4197 116.891 30.9811L114.902 29.9787C114.233 29.561 113.831 29.3208 113.696 29.2582C113.497 29.1642 113.602 29.3939 114.009 29.9474Z" fill="#E85382"/>
<path d="M97.1556 7.84708C95.015 9.08967 93.1407 10.7238 91.5327 12.7496C89.9455 14.7544 88.776 16.9472 88.0242 19.3279C82.7197 18.1585 77.7233 18.2107 73.0349 19.4846C72.8469 18.8476 72.7529 18.1741 72.7529 17.4641C72.7529 16.7958 72.7947 16.1849 72.8782 15.6315C74.9144 13.8773 77.9478 12.2431 81.9783 10.729C87.0949 8.7973 92.154 7.83664 97.1556 7.84708Z" fill="#C94772"/>
<path d="M113.477 20.1268C112.61 19.7613 112.161 19.6517 112.13 19.7978C112.109 19.9127 112.386 20.2729 112.96 20.8786L114.62 22.6015C111.404 20.1581 108.24 18.0071 105.128 16.1484C109.462 15.7934 113.68 16.2267 117.784 17.4484C118.181 18.879 118.489 20.5288 118.708 22.3979L113.477 20.1268Z" fill="#C94772"/>
<path d="M108.903 9.50735L108.997 9.53867L109.013 9.63265C109.159 10.207 109.081 11.1154 108.778 12.358L108.245 14.1279C108.12 14.4829 107.164 14.8745 105.379 15.3026C103.374 15.7829 101.745 15.7986 100.492 15.3496C100.022 15.1825 99.3017 14.6343 98.3306 13.705C97.3491 12.7652 96.8166 12.1074 96.733 11.7315C96.7017 11.5748 96.686 11.4182 96.686 11.2616C96.686 10.1234 97.5632 8.88083 99.3174 7.53383L99.3644 7.5025H99.4427C102.763 7.72178 105.917 8.39006 108.903 9.50735Z" fill="#0D131A"/>
<path d="M105.191 14.7544C103.363 15.1408 101.87 15.1303 100.711 14.7231C100.273 14.5665 99.599 14.0809 98.6906 13.2664C97.7926 12.4624 97.3122 11.9247 97.2496 11.6532L97.2183 11.2773C97.2183 10.2853 98.0014 9.18366 99.5677 7.9724C102.711 8.19168 105.692 8.81819 108.511 9.85194L108.558 10.3375C108.558 10.8283 108.464 11.46 108.276 12.2327L107.759 13.9243C107.467 14.1749 106.611 14.4516 105.191 14.7544Z" fill="#FCEEF4"/>
<path d="M109.717 22.9617C110.856 22.8364 111.571 22.8886 111.863 23.1184C112.197 23.3898 112.584 24.2356 113.022 25.6557C113.482 27.1698 113.711 28.4803 113.711 29.5871V29.8064L113.492 29.7594C112.197 29.5088 110.835 29.7698 109.404 30.5425L109.31 30.5895L106.71 28.71L106.726 28.6003C106.809 28.2244 106.794 27.5562 106.679 26.5955C106.595 25.9377 106.559 25.4678 106.569 25.1858C106.59 24.716 106.715 24.3557 106.945 24.1051C107.498 23.489 108.423 23.1079 109.717 22.9617Z" fill="#0D131A"/>
<path d="M107.243 27.8955L107.117 26.5642L107.023 25.4051C107.023 24.9561 107.112 24.6272 107.29 24.4184C107.77 23.8858 108.574 23.5778 109.702 23.4943C110.652 23.4212 111.247 23.4734 111.487 23.6509C111.769 23.8702 112.114 24.5802 112.521 25.781C112.97 27.1072 113.21 28.2871 113.242 29.3209C111.999 29.1225 110.709 29.3783 109.373 30.0883L107.18 28.5064L107.243 27.8955Z" fill="#FCEEF4"/>
<path d="M92.4883 12.358C92.7807 12.6086 93.2401 13.1933 93.8667 14.1122C94.5976 15.1669 94.9265 15.8665 94.8534 16.2111C94.7699 16.6392 94.0494 16.9838 92.6919 17.2448C91.3867 17.5058 90.0449 17.5894 88.6666 17.4954H88.5883L86.6774 15.4592C85.414 14.06 84.8083 13.2403 84.8605 13.0002C84.8814 12.854 84.965 12.7548 85.1111 12.7026L88.7449 12.3267C91.0213 12.17 92.2691 12.1805 92.4883 12.358Z" fill="#0D131A"/>
<path d="M93.4752 14.3472C94.1122 15.2974 94.4098 15.8874 94.368 16.1171C94.3263 16.3468 93.752 16.5661 92.6451 16.7749L88.7921 17.0099L87.821 16.0544L86.2234 14.4411C85.6282 13.7938 85.3306 13.3656 85.3306 13.1568L85.3462 13.1255L85.3776 13.0785L88.8077 12.7339C90.8648 12.6086 91.9977 12.5982 92.2066 12.7026C92.4676 12.9323 92.8905 13.4805 93.4752 14.3472Z" fill="#FCEEF4"/>
<path d="M91.8776 12.6556L90.421 14.8327C89.7736 15.7516 89.3037 16.4773 89.0113 17.0098H88.7921L87.821 16.0544L86.2234 14.4411C85.6282 13.7937 85.3306 13.3656 85.3306 13.1568L85.3462 13.1255L85.3776 13.0785L88.2752 12.7652L91.8776 12.6556Z" fill="#D9CED4"/>
<path d="M85.1893 6.37479L84.8604 7.76878C83.764 11.7889 82.7302 15.3444 81.7591 18.4352C81.4146 19.542 79.9945 20.3826 77.4989 20.9569C75.7759 21.3432 73.4004 21.62 70.3723 21.787L62.8541 21.5521C60.1601 21.1553 58.5677 20.3878 58.0769 19.2496C57.1789 17.1926 56.3645 14.8066 55.6335 12.0917C54.913 9.36639 54.7355 8.04027 55.101 8.11336L57.9986 8.48927L60.9746 8.8965C61.1207 8.02983 61.3191 7.01174 61.5697 5.84225C61.9143 4.17155 62.1597 3.20567 62.3059 2.94462C62.4521 2.69402 63.1935 3.25266 64.53 4.62055L66.9734 7.20492C67.2554 6.82901 67.9236 6.02498 68.9783 4.79284L70.7952 2.74101C70.91 2.65747 71.265 3.14302 71.8602 4.19765L73.0663 6.37479L75.0868 4.24464C76.131 3.15868 76.6948 2.62615 76.7784 2.64703C76.8723 2.66791 77.1125 3.27876 77.4989 4.47958L78.329 7.01696L80.0049 4.98079C80.8089 4.03058 81.2893 3.58158 81.4459 3.63379C81.6025 3.69644 81.8114 4.22898 82.0724 5.2314L82.5736 7.26757L83.67 6.81334C84.2026 6.60451 84.5785 6.43744 84.7977 6.31213C85.0588 6.16595 85.1893 6.18683 85.1893 6.37479Z" fill="#0D131A"/>
<path d="M83.3883 7.92541L80.5533 17.5737C80.2923 18.3777 79.2011 19.093 77.2798 19.7195C75.3585 20.3356 73.0404 20.7167 70.3255 20.8629C67.5271 21.0195 65.1045 20.8786 63.0579 20.44C61.0113 20.0119 59.8053 19.3854 59.4398 18.5605C58.333 16.0544 57.2052 12.7913 56.0566 8.7712L61.7109 9.9929L62.1338 7.37721C62.4262 5.59164 62.6089 4.60488 62.682 4.41693C62.7551 4.21853 63.2772 4.62055 64.2483 5.62297L66.2531 7.83143L66.864 8.59891L67.3965 8.17601C67.8142 7.72701 68.8793 6.3539 70.5918 4.05668C70.6753 3.93138 71.0877 4.47958 71.8291 5.70128L72.9099 7.56516L76.4027 4.33861C76.4758 4.26552 76.7577 4.98079 77.2485 6.48442L77.969 8.7712L79.3943 7.14226C80.3654 6.04586 80.9136 5.47678 81.0389 5.43501C81.1642 5.39325 81.3626 5.89446 81.6341 6.93865L81.9943 8.52059L83.3883 7.92541Z" fill="#D7A400"/>
<path d="M83.7326 7.64347L84.3434 7.06395L84.1085 7.87842L81.2108 17.7773C80.8767 18.832 79.5923 19.7091 77.3578 20.4087C75.3843 21.0248 73.0557 21.4059 70.3722 21.5521C67.6051 21.7087 65.1721 21.573 63.0733 21.1448C60.6925 20.6645 59.2672 19.897 58.7973 18.8424C57.7427 16.4303 56.6045 13.1255 55.3828 8.92783L56.0563 8.52059C56.6306 9.15755 57.4555 9.94069 58.531 10.87L60.5672 12.5146L62.3215 10.4158C63.3865 9.13144 63.9713 8.47361 64.0757 8.44228C64.1801 8.4214 64.9998 9.24108 66.5348 10.9013L69.1035 13.7363L70.2312 10.917C70.8995 9.29852 71.3171 8.47361 71.4842 8.44228C71.6513 8.4214 72.0272 8.98526 72.6119 10.1339L73.8336 12.5303L75.5879 10.1809C76.6216 8.83385 77.222 8.18645 77.3891 8.23866C77.5562 8.29087 77.9008 8.95915 78.4229 10.2435L79.3626 12.5146C81.3675 10.1443 82.8241 8.52059 83.7326 7.64347Z" fill="#0D131A"/>
<path d="M79.5038 13.0628C80.1095 12.5407 81.4669 11.1833 83.5762 8.99048L82.2762 13.0785L80.7725 17.652C80.4593 18.6336 79.3785 19.6047 77.5303 20.5653C75.4315 21.6617 73.0873 22.2778 70.4977 22.4135C67.8037 22.5597 65.2976 22.1943 62.9795 21.3171C60.9016 20.5236 59.6486 19.636 59.2205 18.6545C58.2389 16.4094 57.1947 13.4126 56.0879 9.66398C57.1843 10.6873 58.5574 11.8202 60.2072 13.0628C60.4369 13.2612 60.6249 13.3447 60.7711 13.3134C60.8964 13.2925 61.0478 13.1411 61.2253 12.8592C61.3715 12.6295 61.8779 12.0395 62.7446 11.0893L64.2326 9.50735L66.6916 12.1387C68.2266 13.7363 69.0776 14.5299 69.2447 14.5195C69.4117 14.509 69.8033 13.7781 70.4194 12.3267L71.5315 9.66398L72.6435 11.7002C73.2387 12.7652 73.6146 13.303 73.7712 13.3134C73.9174 13.3239 74.4761 12.7339 75.4472 11.5435L77.1231 9.42904L78.0002 11.0893L78.8147 12.7965C78.9295 13.0994 79.0131 13.2612 79.0653 13.2821C79.1384 13.3239 79.2846 13.2508 79.5038 13.0628Z" fill="#F9BE00"/>
<path d="M101.98 39.5487C106.971 40.9792 110.135 41.9869 111.472 42.5716C112.255 42.9058 112.579 43.1407 112.443 43.2764L111.315 43.6367L106.428 45.1247L111.284 44.3259L114.166 43.9656C114.542 44.0074 115.57 44.7174 117.251 46.0958C118.891 47.4323 119.7 48.1737 119.679 48.3199C119.669 48.4243 118.917 48.7323 117.424 49.244L113.696 50.5283L118.379 50.591L121.59 50.7476C121.788 50.8416 122.248 51.4681 122.968 52.6272C123.678 53.7758 124.018 54.4284 123.986 54.585C123.955 54.6999 123.402 54.8461 122.326 55.0236L119.115 55.5404L122.639 55.5561L124.535 55.6188C124.723 55.6814 125.313 56.2923 126.305 57.4513C127.317 58.6208 127.793 59.2943 127.73 59.4718C127.688 59.618 127.229 59.7329 126.352 59.8164L123.846 60.0827L126.837 60.3176L128.466 60.5369C128.612 60.6518 128.785 61.6646 128.983 63.5755C131.541 68.149 132.773 70.5246 132.679 70.7021C132.627 70.8065 131.562 70.4463 129.484 69.6213L125.396 67.9767L128.184 73.0358C129.667 75.7507 130.361 77.1447 130.267 77.2178L127.652 77.0299C125.991 76.7897 125.067 76.5652 124.879 76.3564C124.723 76.1893 124.352 75.2808 123.767 73.631L122.436 69.8876L122.89 73.2708C123.047 74.5134 123.083 75.1921 123 75.3069C122.906 75.4531 121.893 75.2443 119.961 74.6804C118.05 74.127 117.032 73.7563 116.907 73.5684L116.218 71.7985L115.106 68.6972L115.497 71.5165C115.643 72.4981 115.664 73.0202 115.56 73.0828C115.393 73.1977 113.216 72.1378 109.028 69.9033L108.997 69.7466L107.447 63.6538L107.587 67.6635C107.64 69.1776 107.593 69.9607 107.447 70.0129C107.279 70.0547 106.663 69.7571 105.598 69.1201L103.922 68.0864L101.839 68.102C100.503 68.0603 99.7456 67.9193 99.5681 67.6791C99.4115 67.4494 99.1504 66.3321 98.785 64.3273L97.7982 59.0019L97.8139 64.0924C97.8139 65.951 97.7408 66.8908 97.5946 66.9117C97.5111 66.9221 96.3363 66.541 94.0705 65.7683L87.5234 63.5598L87.4921 63.1526L84.8764 62.1658L82.5269 61.3514C82.151 61.2678 81.9265 61.106 81.8534 60.8658C81.7595 60.5734 81.749 59.9104 81.8221 58.8766C81.8848 57.9891 81.9004 57.0597 81.8691 56.0886L81.7595 53.3946L80.4125 57.4356C79.8799 58.9497 79.504 59.7015 79.2847 59.6911C78.9297 59.6807 76.5698 58.5059 72.2051 56.167L73.5365 49.6512C71.5525 51.489 69.8453 52.9404 68.4147 54.0055C66.3159 55.5404 64.9846 56.1095 64.4207 55.7127C62.2175 54.2509 60.7765 52.7629 60.0978 51.2488C59.5861 50.1002 59.5339 48.9777 59.9411 47.8813C60.7765 45.6363 63.1833 43.7933 67.1617 42.3523C70.8268 41.0262 74.2048 40.5354 77.2956 40.88L78.7365 40.0186C79.6867 39.4651 80.6317 38.9848 81.5715 38.5776C84.5474 37.2828 87.3981 36.7189 90.1234 36.886C92.2849 37.0217 96.2372 37.9093 101.98 39.5487Z" fill="#0D131A"/>
<path d="M113.978 44.7017L118.285 48.1006C115.038 49.2388 112.871 50.0376 111.785 50.497C110.971 50.8416 110.569 51.0348 110.579 51.0765L111.895 51.1705C113.064 51.1809 116.165 51.2697 121.198 51.4368L122.859 54.0995L119.382 54.7103C117.398 55.0549 116.192 55.3159 115.763 55.4934L114.745 55.9477C114.662 56.0521 115.022 56.1304 115.826 56.1826C117.016 56.2661 119.81 56.3079 124.206 56.3079L126.43 58.9706L121.057 59.8321C120.327 59.9887 119.94 60.114 119.898 60.208C119.846 60.3124 120.243 60.4168 121.089 60.5212L127.871 61.1634L128.325 63.8104L125.6 63.4188C123.793 63.1891 122.947 63.1839 123.062 63.4032C123.167 63.612 124.127 63.847 125.944 64.108L128.685 64.4839L131.238 69.4334L123.939 66.708L129.014 76.325L125.396 75.7455C123.934 71.7776 122.979 69.3028 122.53 68.3213C122.217 67.6217 121.95 67.298 121.731 67.3502C121.658 67.3711 121.7 68.3735 121.856 70.3575L122.217 74.3672L117.439 73.0045C116.092 69.2559 115.215 66.8803 114.808 65.8779C114.474 65.0634 114.26 64.6458 114.166 64.6249C114.041 64.5936 114.03 65.0634 114.134 66.0345L114.745 71.9238L109.624 69.4177C107.932 62.5992 107.076 59.7955 107.055 61.0068L106.898 64.8598L106.742 68.8069L103.875 67.1466C103.666 63.0951 103.421 61.0381 103.139 60.9754C102.972 60.9441 102.92 61.957 102.983 64.014L103.045 67.1153L100.148 67.0056L99.3174 62.3381C98.7431 59.2264 98.2628 57.0806 97.8765 55.9007C97.4483 54.5954 97.1612 54.0316 97.015 54.2091C96.921 54.3344 96.8532 55.0079 96.8114 56.2296C96.7801 57.0545 96.7957 58.8192 96.8584 61.5236L96.9367 65.9092L87.8992 62.4164L87.7269 58.7357C87.6225 56.2087 87.5024 54.7938 87.3667 54.491C87.2309 54.1882 87.184 55.3734 87.2257 58.0465L87.2414 62.1658L82.6208 60.3803C82.4433 56.026 82.3598 52.9247 82.3702 51.0765V50.9826H82.3546C82.3024 50.5544 82.2345 50.2725 82.151 50.1368C82.0152 49.8966 81.8586 50.1837 81.6811 50.9982V51.0609C81.6811 51.4472 81.3678 52.4914 80.7413 54.1934C80.2401 55.5509 79.6345 57.0702 78.9244 58.7513L72.9882 55.7754L74.6485 47.6464L69.9496 51.5621C66.7753 54.1308 65.0628 55.3264 64.8122 55.1489C61.168 52.7368 59.7635 50.3978 60.5989 48.1319C61.2776 46.2837 64.2901 44.6391 69.6364 43.1981C72.299 42.4776 74.8991 41.9399 77.4365 41.5848L82.01 39.4704C85.4454 38.092 88.1394 37.4603 90.092 37.5752C92.2431 37.7109 95.5584 38.4262 100.038 39.721C104.183 40.9218 107.577 42.0913 110.219 43.2294C106.136 44.4094 103.499 45.25 102.309 45.7512C101.495 46.0853 101.124 46.3098 101.197 46.4247C101.26 46.5291 101.683 46.5291 102.466 46.4247L113.978 44.7017Z" fill="#00A63C"/>
<path d="M110.219 43.2294C106.136 44.4094 103.499 45.25 102.309 45.7512C101.495 46.0853 101.124 46.3098 101.197 46.4247C101.26 46.5291 101.683 46.5291 102.466 46.4247L113.978 44.7018L115.732 46.0801C112.808 46.2785 110.61 46.5082 109.138 46.7692C106.538 47.2182 104.518 48.1998 103.077 49.7139C91.8306 45.3178 82.4329 47.6568 74.8834 56.7308L72.9882 55.7754L74.6485 47.6464L69.9496 51.5621C66.7753 54.1308 65.0628 55.3264 64.8122 55.1489C61.168 52.7368 59.7635 50.3978 60.5989 48.1319C61.2776 46.2837 64.2901 44.6391 69.6364 43.1981C72.299 42.4776 74.8991 41.9399 77.4365 41.5848L82.01 39.4704C85.4454 38.092 88.1394 37.4603 90.092 37.5752C92.2431 37.7109 95.5584 38.4262 100.038 39.721C104.183 40.9218 107.577 42.0913 110.219 43.2294Z" fill="#009233"/>
<path d="M117.925 61.1164C118.802 62.171 119.12 62.7297 118.88 62.7923C118.661 62.855 118.175 62.5313 117.424 61.8212C108.339 53.2067 98.4088 47.5315 87.6328 44.7957C84.2392 43.9395 80.9656 43.4278 77.8122 43.2608L74.0061 43.2764L73.8965 42.8379L74.6483 42.0234C75.3688 41.4595 76.2616 41.1515 77.3266 41.0993L78.9869 40.974L78.9243 40.9583C85.9725 41.1463 92.7284 42.8379 99.192 46.0331C106.198 49.4894 112.443 54.5171 117.925 61.1164Z" fill="#0D131A"/>
<path d="M73.9593 42.2114C74.732 41.7206 76.0059 41.5013 77.781 41.5535C84.892 41.7832 91.6061 43.3547 97.9234 46.268C104.126 49.1291 109.603 53.1127 114.354 58.2188C107.347 51.8806 99.3018 47.4062 90.2173 44.7957C87.0534 43.8873 83.9522 43.266 80.9136 42.9319L75.6196 42.7282L73.8966 42.6656C73.646 42.5612 73.6669 42.4098 73.9593 42.2114Z" fill="#00A63C"/>
<path d="M102.873 48.8837L102.184 48.9777C101.912 49.009 101.724 49.1343 101.62 49.3536C96.3258 46.6074 90.8021 44.6809 85.0486 43.574C81.0911 42.8118 77.9481 42.5298 75.6196 42.7282L73.8966 42.6656C73.646 42.5612 73.6669 42.4098 73.9593 42.2114C74.732 41.7206 76.0059 41.5013 77.781 41.5535C82.3128 41.6997 86.7141 42.4045 90.9848 43.668C95.172 44.9001 99.1347 46.6387 102.873 48.8837Z" fill="#009233"/>
<path d="M2.56795 91.612C3.73744 90.0561 4.89127 88.9023 6.02944 88.1505C7.74191 87.0019 10.3785 87.1063 13.9392 88.4637C18.1577 90.0718 22.5381 92.8337 27.0803 96.7494C31.6225 100.655 34.233 103.907 34.9117 106.507L35.6165 107.384L36.5407 111.175C36.7391 112.188 36.7547 112.976 36.5876 113.54C36.4206 114.135 35.9977 114.662 35.319 115.122C34.7238 115.529 33.7109 116.03 32.2804 116.626C31.0691 117.127 29.0956 117.445 26.3598 117.581C23.6762 117.706 20.8517 117.633 17.8862 117.362C10.6395 116.683 6.32703 115.31 4.9487 113.242C4.6981 112.856 4.5728 112.459 4.5728 112.052C4.79208 111.415 4.9487 110.815 5.04268 110.251C5.23064 109.165 5.01658 108.121 4.40051 107.118C2.95952 104.978 1.97276 103.432 1.44023 102.482C0.552667 100.895 0.108887 99.3285 0.108887 97.7831C0.108887 95.82 0.928575 93.763 2.56795 91.612Z" fill="#0D131A"/>
<path d="M6.54617 88.918C7.9976 87.9469 10.3522 88.0826 13.6101 89.3252C17.6511 90.8706 21.9062 93.5489 26.3753 97.3602C30.834 101.172 33.3818 104.299 34.0188 106.742L34.1911 107.463C35.0056 110.585 35.3084 112.496 35.0995 113.195C34.9533 113.665 34.6035 114.093 34.0501 114.48C33.6742 114.741 32.8806 115.174 31.6694 115.78C30.7505 116.239 28.9858 116.516 26.3753 116.61L18.1993 116.344C11.0362 115.675 6.87509 114.469 5.71604 112.725C5.24616 112.047 5.53853 111.253 6.59316 110.345C6.89598 110.084 6.91686 109.65 6.65581 109.045C6.4783 108.648 5.98231 107.833 5.16784 106.601C3.62244 104.283 2.49994 102.336 1.80033 100.759C0.944097 98.8378 1.32523 96.4205 2.94372 93.5072C3.51802 92.4525 4.19675 91.4553 4.97989 90.5156C5.63773 89.7115 6.15982 89.179 6.54617 88.918Z" fill="#5DC1CF"/>
<path d="M8.89551 88.3071C10.1799 88.2967 11.7514 88.636 13.61 89.3252C17.651 90.8706 21.9061 93.5489 26.3752 97.3602C30.8339 101.172 33.3817 104.299 34.0187 106.742L34.191 107.463C35.0055 110.585 35.3083 112.496 35.0994 113.195C34.9533 113.665 34.6035 114.093 34.05 114.48C33.6741 114.741 32.8805 115.174 31.6693 115.78C30.8966 116.166 29.4817 116.427 27.4246 116.563C25.472 116.688 23.2531 116.683 20.7679 116.547C19.0033 116.422 17.5936 115.9 16.539 114.981C15.0145 113.644 15.4896 111.927 17.9643 109.828C20.4181 107.75 20.1571 104.236 17.1812 99.2868C16.1683 97.6056 14.7482 95.606 12.9209 93.2879L8.89551 88.3071Z" fill="#50A8B4"/>
<path d="M13.0462 108.716C12.9418 108.528 13.1089 108.497 13.5474 108.622C14.5708 108.914 16.372 109.264 18.9511 109.671C22.2925 110.193 24.7359 110.381 26.2813 110.235C26.887 110.183 27.0906 110.246 26.8922 110.423L26.4066 110.689C24.9761 111.065 22.5901 110.987 19.2487 110.454C16.3145 109.984 14.3463 109.515 13.3438 109.045L13.0462 108.716Z" fill="#0D131A"/>
<path d="M8.84867 113.242C8.91132 114.015 8.81734 114.662 8.56674 115.185L6.07635 115.905C4.57271 116.312 3.49198 116.532 2.83414 116.563C2.01967 116.594 1.51846 116.505 1.33051 116.297C1.13211 116.077 1.10078 115.54 1.23653 114.683C1.38271 113.806 1.85782 112.793 2.66185 111.645C3.46587 110.475 4.25424 109.676 5.02694 109.248C5.29842 109.102 5.58036 109.019 5.87273 108.998L6.43659 109.107C7.94022 110.319 8.74425 111.697 8.84867 113.242Z" fill="#0D131A"/>
<path d="M2.11367 115.451C1.78997 115.138 2.05624 114.229 2.91248 112.725C3.75827 111.211 4.53097 110.266 5.23058 109.89C5.54383 109.734 5.79444 109.708 5.98239 109.812C6.74465 110.48 7.31374 111.399 7.68964 112.569C8.01334 113.592 8.07599 114.25 7.8776 114.542C7.70009 114.803 6.7812 115.091 5.12094 115.404C3.41891 115.728 2.41649 115.743 2.11367 115.451Z" fill="white"/>
<path d="M6.54656 110.407C7.12086 111.107 7.53331 111.937 7.78392 112.898C8.01364 113.754 8.04497 114.302 7.8779 114.542C7.76304 114.709 7.20439 114.918 6.20197 115.169C5.16823 115.43 4.24934 115.581 3.44531 115.623C3.8421 114.642 4.30677 113.691 4.83931 112.772C5.44494 111.739 6.01402 110.95 6.54656 110.407Z" fill="#DBDCDC"/>
<path d="M12.6547 120.244C11.7671 119.701 11.5583 118.521 12.0282 116.704C12.4667 115.033 13.1872 113.665 14.1896 112.6C14.9101 111.838 15.5262 111.394 16.0378 111.269C16.5599 111.144 17.0664 111.321 17.5571 111.801C18.9772 113.19 19.917 114.558 20.3765 115.905C20.6166 116.573 20.7106 117.106 20.6584 117.503C20.2929 117.91 18.9981 118.526 16.774 119.351C14.4559 120.218 13.0828 120.515 12.6547 120.244Z" fill="#0D131A"/>
<path d="M16.5392 112.068C16.9674 112.151 17.6043 112.788 18.4501 113.978C19.3377 115.221 19.8023 116.208 19.8441 116.939C19.4891 117.273 18.3875 117.811 16.5392 118.552C14.6179 119.314 13.4798 119.633 13.1247 119.507C12.9263 119.434 12.848 119.017 12.8898 118.254C12.9316 117.471 13.0882 116.641 13.3597 115.764C14.0906 113.404 15.1505 112.172 16.5392 112.068Z" fill="white"/>
<path d="M16.602 112.083C17.0615 112.24 17.6984 112.898 18.5129 114.057C19.3587 115.268 19.8025 116.229 19.8442 116.939C19.5936 117.169 18.8522 117.55 17.6201 118.082C16.3566 118.636 15.2811 119.043 14.3936 119.304C14.4562 117.894 14.6285 116.667 14.9104 115.623C15.2655 114.36 15.8293 113.18 16.602 112.083Z" fill="#DBDCDC"/>
<path d="M27.5191 112.522C27.7592 112.303 28.0307 112.156 28.3336 112.083C28.5842 112.021 28.8191 112.021 29.0384 112.083C29.7067 112.282 30.5838 112.84 31.6697 113.759C32.7975 114.699 33.4135 115.44 33.518 115.983C33.6224 116.516 33.2987 117.44 32.5469 118.756C31.889 119.936 31.2834 120.797 30.73 121.34C30.448 121.622 30.1661 121.773 29.8842 121.794C29.6231 121.805 29.2681 121.711 28.8191 121.512C27.493 120.928 26.407 120.056 25.5612 118.897L24.6998 117.346C24.6267 116.928 24.9243 116.156 25.5926 115.028C26.2504 113.921 26.8926 113.086 27.5191 112.522Z" fill="#0D131A"/>
<path d="M27.8633 113.242C28.2497 112.887 28.5577 112.741 28.7874 112.804C29.3931 112.981 30.1501 113.493 31.0586 114.339C31.9774 115.174 32.4786 115.816 32.5622 116.265C32.6353 116.652 32.275 117.456 31.4814 118.677C30.7296 119.816 30.1867 120.494 29.8525 120.714C29.6854 120.755 29.2782 120.588 28.6308 120.212C27.9208 119.795 27.2629 119.309 26.6573 118.756C25.9995 118.16 25.6392 117.696 25.5766 117.362C25.5139 117.048 25.728 116.427 26.2187 115.498C26.7408 114.527 27.289 113.775 27.8633 113.242Z" fill="white"/>
<path d="M32.5624 116.265C32.6355 116.631 32.317 117.367 31.607 118.474C30.97 119.476 30.4323 120.186 29.9937 120.604C29.9519 119.121 29.8475 117.821 29.6805 116.704C29.4821 115.305 29.174 114.005 28.7563 112.804H28.7877C29.3933 112.981 30.1503 113.493 31.0588 114.339C31.9777 115.174 32.4789 115.816 32.5624 116.265Z" fill="#DBDCDC"/>
<path d="M8.31634 100.054C8.31634 100.138 8.1806 100.315 7.90911 100.587C7.4079 101.098 7.12597 101.516 7.06332 101.84C6.92757 102.498 7.41312 103.082 8.51996 103.594C8.84366 103.74 8.93764 103.86 8.80189 103.954C8.73924 104.006 8.64004 104.038 8.5043 104.048C7.21994 103.996 6.49423 103.542 6.32716 102.686C6.24363 102.205 6.34805 101.709 6.64042 101.198C6.93279 100.696 7.29304 100.352 7.72115 100.164C8.11795 99.9968 8.31634 99.9603 8.31634 100.054Z" fill="#0D131A"/>
<path d="M104.408 110.298C104.502 110.183 104.596 110.141 104.69 110.172C105.535 110.339 106.36 110.799 107.164 111.551C108.167 112.491 108.96 113.764 109.545 115.372C108.668 115.999 107.739 116.563 106.757 117.064C104.794 118.077 103.557 118.291 103.045 117.706C102.742 117.362 102.836 116.093 103.327 113.9C103.786 111.854 104.147 110.653 104.408 110.298Z" fill="#0D131A"/>
<path d="M103.562 117.362C103.531 117.299 103.713 116.291 104.11 114.339C104.528 112.334 104.815 111.154 104.972 110.799L106.757 112.209C107.666 113.096 108.203 114.036 108.371 115.028C108.433 115.331 107.66 115.822 106.052 116.5C104.455 117.169 103.625 117.456 103.562 117.362Z" fill="#DBDCDC"/>
<path d="M107.086 86.3806C107.994 89.0015 108.558 91.5493 108.778 94.0241C109.373 100.916 107.431 108.392 102.951 116.453C102.836 116.662 102.674 117.44 102.465 118.787C102.278 119.977 101.875 120.948 101.259 121.7C99.2859 124.091 94.4252 125.444 86.6773 125.757C82.062 125.945 78.2664 125.198 75.2904 123.517C72.5024 121.94 71.0406 119.93 70.9048 117.487C70.8526 116.589 70.555 115.263 70.0121 113.509C69.2394 110.992 68.7747 109.405 68.6181 108.747C67.6156 104.602 67.9498 101.14 69.6205 98.3626C70.6333 96.6711 72.9149 94.4574 76.4651 91.7216C79.9319 89.0589 83.6857 86.5946 87.7267 84.3287C92.081 81.8749 95.7409 80.2564 98.7064 79.4733C102.11 78.5753 104.131 78.9251 104.768 80.5227L107.086 86.3806Z" fill="#5DC1CF"/>
<path d="M104.768 80.5227L107.086 86.3806C107.995 89.0015 108.558 91.5493 108.778 94.024C109.373 100.916 107.431 108.392 102.951 116.453C102.805 116.725 102.659 117.403 102.513 118.489C102.366 119.554 102.095 120.416 101.698 121.074C100.393 123.256 97.1141 124.681 91.8618 125.35L90.1546 125.303C89.2044 125.553 88.6927 125.548 88.6196 125.287C88.8389 123.679 88.9068 122.201 88.8233 120.854C88.7293 119.424 88.4578 118.051 88.0088 116.735C94.9213 115.962 99.1294 111.723 100.633 104.017C101.782 98.1068 101.312 90.9854 99.2234 82.6528C98.3149 78.9982 98.8892 77.3692 100.946 77.766C101.688 77.9122 102.476 78.2985 103.311 78.9251C104.095 79.5202 104.58 80.0528 104.768 80.5227Z" fill="#50A8B4"/>
<path d="M104.361 80.742C103.87 79.6978 103.766 79.1339 104.048 79.0504C104.309 78.9773 104.685 79.395 105.175 80.3034C107.942 85.4617 109.279 91.1264 109.185 97.2976C109.07 104.189 107.128 110.648 103.358 116.673C103.129 117.048 103.014 117.555 103.014 118.192C103.003 119.309 102.868 120.207 102.607 120.886C102.241 121.857 101.573 122.677 100.602 123.345C98.2001 124.984 93.5639 125.945 86.6932 126.227C81.5662 126.425 77.52 125.72 74.5545 124.112C71.6307 122.525 70.2628 120.327 70.4508 117.518C70.4821 116.975 70.2785 116.156 69.84 115.059L68.7905 112.397C67.8821 109.483 67.4383 107.003 67.4592 104.957C67.4801 102.701 68.0544 100.451 69.1821 98.206L70.0436 98.5193C69.0307 101.234 68.6391 103.907 68.8689 106.539C69.0046 108.084 69.4797 110.172 70.2942 112.804L70.9833 115.185C71.2026 116.041 71.3279 116.798 71.3592 117.456C71.4845 119.722 72.8472 121.601 75.4472 123.094C78.3188 124.755 82.057 125.491 86.6618 125.303C93.0418 125.042 97.3961 124.091 99.7247 122.452C100.602 121.836 101.228 121.095 101.604 120.228C101.813 119.727 101.98 119.006 102.105 118.067C102.21 117.2 102.361 116.589 102.56 116.234C106.736 108.705 108.402 100.832 107.556 92.6144C107.107 88.3541 106.042 84.3966 104.361 80.742Z" fill="#0D131A"/>
<path d="M79.065 114.668C78.5116 114.344 78.2297 114.13 78.2192 114.025C78.2192 113.9 78.5743 113.978 79.2843 114.26C80.3703 114.689 82.0305 115.132 84.2651 115.592C87.1262 116.177 89.6322 116.453 91.7833 116.422C93.7254 116.391 94.4512 116.495 93.9604 116.735C93.4696 116.975 92.5977 117.085 91.3447 117.064C88.4314 117.033 85.6748 116.699 83.0747 116.062C81.2056 115.602 79.8691 115.138 79.065 114.668Z" fill="#0D131A"/>
<path d="M70.5916 116.062L70.9989 116.015C72.2519 116.808 73.1708 118.145 73.7555 120.024C74.121 121.183 74.3037 122.175 74.3037 123C74.3037 123.366 73.8391 123.627 72.9097 123.783L69.276 124.159C66.8221 124.295 65.4647 124.107 65.2036 123.595C64.953 123.094 65.4803 121.878 66.7856 119.946C68.0386 118.108 69.0671 116.902 69.8711 116.328C70.0487 116.203 70.2888 116.114 70.5916 116.062Z" fill="#0D131A"/>
<path d="M66.3003 123.11C66.3003 122.598 66.7754 121.617 67.7256 120.165C68.6967 118.662 69.5477 117.654 70.2787 117.142C70.5084 116.975 70.6493 116.918 70.7016 116.97C71.4012 117.513 72.0642 118.531 72.6907 120.024C73.1815 121.183 73.4582 122.055 73.5209 122.64C73.1345 122.828 71.9233 122.995 69.8871 123.141C67.8405 123.287 66.6449 123.293 66.3003 123.157V123.11Z" fill="white"/>
<path d="M72.0172 118.63C72.414 119.33 72.769 120.134 73.0823 121.042C73.3433 121.784 73.4895 122.316 73.5209 122.64C73.1345 122.828 71.9233 122.995 69.8871 123.141C67.8405 123.287 66.6449 123.293 66.3003 123.157V123.11C66.3003 122.964 66.3368 122.797 66.4099 122.609C67.6734 121.063 69.5425 119.737 72.0172 118.63Z" fill="#DBDCDC"/>
<path d="M85.1424 123.032C86.458 121.476 87.3038 120.698 87.6797 120.698C88.0556 120.698 88.9223 121.33 90.2798 122.593C91.6581 123.867 92.3629 124.723 92.3943 125.162C92.4256 125.611 91.9661 126.53 91.0159 127.918C90.0553 129.328 89.3609 130.054 88.9328 130.096C88.6195 130.127 87.8572 129.793 86.646 129.093C85.4765 128.425 84.6098 127.835 84.046 127.323C83.4925 126.822 83.2158 126.331 83.2158 125.851C83.2158 125.506 83.858 124.567 85.1424 123.032Z" fill="#0D131A"/>
<path d="M87.7579 121.888C88.0398 121.909 88.6977 122.395 89.7314 123.345C90.7756 124.306 91.3082 124.942 91.329 125.256C91.3604 125.632 90.9949 126.363 90.2326 127.449C89.4913 128.514 88.99 129.057 88.729 129.077C88.5306 129.098 88.0137 128.848 87.1784 128.326C86.2908 127.783 85.5547 127.245 84.9699 126.712L84.3747 126.07L84.2808 125.867C84.3121 125.585 84.8342 124.864 85.847 123.705C86.8599 122.546 87.4969 121.94 87.7579 121.888Z" fill="white"/>
<path d="M103.123 120.51C104.199 122.149 104.606 123.324 104.345 124.034C104.262 124.253 104.074 124.452 103.781 124.629C103.437 124.828 103.019 124.948 102.528 124.989C101.484 125.073 100.362 125.057 99.1607 124.942C97.5945 124.786 96.7278 124.483 96.5607 124.034L96.2944 123.345C96.2944 122.656 96.8896 121.585 98.08 120.134C98.9884 119.017 99.6933 118.265 100.194 117.879C100.372 117.732 100.534 117.675 100.68 117.706L100.962 117.879C101.495 118.254 102.215 119.132 103.123 120.51Z" fill="#0D131A"/>
<path d="M103.546 124.003L100.273 124.112C98.5186 123.956 97.5109 123.726 97.2499 123.423C97.0097 123.141 97.4222 122.301 98.4872 120.901C99.521 119.523 100.21 118.808 100.555 118.756C100.889 118.703 101.568 119.507 102.591 121.168C103.625 122.838 103.943 123.783 103.546 124.003Z" fill="white"/>
<path d="M101.604 121.544C101.886 121.909 102.392 122.765 103.123 124.112C102.371 124.238 101.27 124.222 99.8184 124.065C98.3252 123.909 97.469 123.695 97.2497 123.423C97.093 123.246 97.2444 122.776 97.7039 122.014C98.1111 121.345 98.6228 120.661 99.2389 119.962C100.147 120.171 100.936 120.698 101.604 121.544Z" fill="#DBDCDC"/>
<path d="M99.7558 100.837C100.247 100.827 100.701 101.02 101.119 101.417C101.547 101.824 101.782 102.299 101.823 102.842C101.855 103.291 101.677 103.735 101.291 104.174C100.79 104.748 100.08 104.998 99.1606 104.925L98.8317 104.706C98.6751 104.56 98.7691 104.482 99.1137 104.471C99.688 104.45 100.168 104.048 100.555 103.265C100.972 102.419 100.711 101.767 99.7715 101.307C99.4165 101.13 99.3068 100.999 99.4426 100.916L99.7558 100.837Z" fill="#0D131A"/>
<path d="M119.601 88.0408C119.664 87.9886 119.758 87.9573 119.883 87.9469C120.332 87.926 120.744 88.1453 121.12 88.6047C121.507 89.0746 121.721 89.628 121.762 90.265C121.783 90.7975 121.621 91.3144 121.277 91.8156C120.817 92.4734 120.175 92.7658 119.35 92.6927L119.053 92.4421C118.906 92.2646 118.99 92.1706 119.303 92.1602C119.815 92.1393 120.248 91.6746 120.603 90.7662C120.99 89.7742 120.755 89.0119 119.898 88.4794C119.575 88.281 119.476 88.1348 119.601 88.0408Z" fill="#0D131A"/>
<path d="M132.021 77.0612C132.46 77.0403 132.867 77.2335 133.243 77.6407C133.619 78.0479 133.828 78.5283 133.869 79.0817C133.901 79.5411 133.744 79.9954 133.399 80.4444C132.95 81.0187 132.313 81.2745 131.489 81.2118L131.191 80.9926C131.055 80.8359 131.139 80.7524 131.442 80.742C131.953 80.7211 132.381 80.3086 132.726 79.5046C133.102 78.6484 132.872 77.9853 132.037 77.5154C131.723 77.3483 131.63 77.223 131.755 77.1395C131.807 77.0977 131.896 77.0716 132.021 77.0612Z" fill="#0D131A"/>
<path d="M131.457 90.218C131.948 90.1971 132.402 90.4529 132.82 90.9854C133.248 91.518 133.483 92.1445 133.525 92.865C133.556 93.4602 133.379 94.0449 132.992 94.6192C132.491 95.3815 131.781 95.7156 130.862 95.6216L130.533 95.3397C130.377 95.1413 130.471 95.0317 130.815 95.0108C131.035 95.0004 131.285 94.8437 131.567 94.5409C131.859 94.2172 132.089 93.8413 132.256 93.4132C132.674 92.2959 132.413 91.4344 131.473 90.8288C131.118 90.5991 131.008 90.4268 131.144 90.3119L131.457 90.218Z" fill="#0D131A"/>
<path d="M89.6378 100.665C90.0138 101.01 90.1495 101.579 90.0451 102.372C89.9824 102.884 89.7109 103.312 89.2306 103.657C88.7503 104.001 88.1916 104.174 87.5547 104.174L87.2571 104.033C87.1214 103.918 87.2206 103.813 87.5547 103.719C88.3796 103.5 88.8808 103.051 89.0583 102.372C89.2567 101.621 88.8025 101.031 87.6957 100.602L87.1475 100.289C87.1475 100.206 87.3667 100.164 87.8053 100.164C88.672 100.153 89.2828 100.32 89.6378 100.665Z" fill="#0D131A"/>
<path d="M99.6618 87.6806C99.9437 87.9521 100.111 88.3123 100.163 88.7613C100.205 89.1581 100.038 89.5445 99.6618 89.9204C99.265 90.3172 98.8107 90.5208 98.2991 90.5312C98.038 90.5417 97.8866 90.4999 97.8449 90.4059C97.8031 90.3119 97.9284 90.2023 98.2208 90.077C99.2336 89.6593 99.6148 89.1686 99.3642 88.6047C99.1553 88.1452 98.7272 87.8268 98.0798 87.6493C97.7039 87.5553 97.589 87.4509 97.7352 87.336L98.0642 87.195C98.7638 87.1637 99.2963 87.3256 99.6618 87.6806Z" fill="#0D131A"/>
<path d="M69.887 60.3959C75.463 59.7485 79.1542 59.8895 80.9606 60.8188C81.5141 61.1112 81.8639 61.6437 82.0101 62.4164L82.0884 64.108C82.0884 66.8333 81.1173 70.8117 79.1751 76.0431C82.0675 78.6745 84.1402 80.8516 85.3932 82.5745C86.8655 84.6002 87.6017 86.4798 87.6017 88.2131C87.6017 88.7665 87.5443 89.4244 87.4294 90.1866C87.2936 91.0533 87.137 91.6903 86.9595 92.0975C85.7691 94.8333 84.5892 96.7911 83.4197 97.9711C82.104 99.3076 80.2558 100.274 77.8751 100.869C75.8493 101.38 71.5212 103.218 64.8906 106.382L58.5941 109.452C56.3178 110.548 54.5218 111.363 53.2061 111.895C50.3554 113.054 45.9437 113.321 39.971 112.694C33.7998 112.036 29.644 110.736 27.5034 108.794C26.7933 108.136 23.6242 106.283 17.996 103.234C13.5582 100.822 10.3526 99.1197 8.37903 98.1277C7.12601 97.5012 6.0035 95.6269 5.01152 92.5047C4.0091 89.3617 3.86291 87.2159 4.57296 86.0673C5.51273 84.5532 6.93283 82.658 8.83326 80.3817C10.8277 77.9905 12.4357 76.2937 13.6574 75.2913C12.9265 74.2471 12.1851 72.5137 11.4333 70.0912C10.6397 67.533 10.2429 65.4446 10.2429 63.8261C10.2429 63.5024 10.2586 63.2152 10.2899 62.9646C10.4256 62.0249 10.7389 61.4558 11.2297 61.2574C13.1092 60.4534 16.5028 60.4534 21.4105 61.2574C23.9583 61.6751 26.7463 62.2546 29.7745 62.9959C32.5938 61.9309 36.9272 61.4923 42.7746 61.6803C47.7554 61.8369 52.4699 62.359 56.9182 63.2466C60.2805 61.9518 64.6034 61.0016 69.887 60.3959Z" fill="#0D131A"/>
<path d="M80.1462 61.7899C80.5116 61.9465 80.7361 62.1241 80.8197 62.3225C81.6028 64.4944 80.7674 68.8382 78.3136 75.3539C78.0943 75.1764 77.6714 75.0407 77.0449 74.9467C76.6586 74.8945 76.716 75.1347 77.2172 75.6672L78.0943 76.466C81.843 79.8387 84.2759 82.9086 85.3932 85.6757C86.239 87.785 86.3069 89.6593 85.5968 91.2987C84.5109 93.7839 83.3936 95.606 82.245 96.765C81.0964 97.9137 79.5092 98.8064 77.4835 99.4434C76.481 99.7566 74.779 100.461 72.3774 101.558L65.0472 105.004C59.1893 107.823 55.1378 109.687 52.8928 110.595C49.7811 111.869 45.2859 112.104 39.4071 111.3C36.995 110.966 34.7813 110.501 32.7661 109.906C30.7612 109.311 29.3516 108.7 28.5371 108.074C27.7226 107.447 24.6005 105.677 19.1707 102.764C13.3024 99.6105 10.0445 97.8301 9.3971 97.4229C8.33202 96.765 7.39225 95.157 6.57779 92.5987C5.80509 90.1971 5.54926 88.4115 5.81031 87.242C6.01915 86.2918 7.29306 84.2922 9.63204 81.2432C11.8979 78.2881 13.4381 76.5339 14.2526 75.9805C15.3281 75.26 15.8502 74.7013 15.8189 74.3045C15.798 73.9077 15.3333 74.0435 14.4249 74.7118C13.3911 72.9993 12.5558 71.0519 11.9188 68.8695C11.2297 66.5201 10.9895 64.5936 11.1983 63.0899C11.2923 62.5365 11.4542 62.1919 11.6839 62.0562C12.4044 61.6489 14.8112 61.6959 18.9044 62.1972C22.225 62.5939 25.8326 63.1682 29.7275 63.9201L29.8528 63.9357L29.9781 63.8887C32.7034 62.8237 36.9794 62.3903 42.8059 62.5887C47.7554 62.7558 52.4386 63.2831 56.8555 64.1707L56.9965 64.202L57.1218 64.155C60.3692 62.8811 64.593 61.9779 69.793 61.4453C74.9931 60.9128 78.4441 61.0277 80.1462 61.7899Z" fill="#5DC1CF"/>
<path d="M16.649 98.6446C15.2393 98.4671 14.122 97.6683 13.2971 96.2482L12.2164 94.353C11.83 93.7473 11.4176 93.2305 10.979 92.8023C11.783 93.4289 13.0883 93.904 14.8947 94.2277L16.649 94.4939C17.265 94.4939 18.9618 95.6112 21.7394 97.8458L25.7177 101.198L22.3816 100.086C19.9068 99.3129 17.996 98.8325 16.649 98.6446Z" fill="#50A8B4"/>
<path d="M29.7275 63.9201L29.8528 63.9357L29.9781 63.8887C32.7034 62.8237 36.9794 62.3903 42.8059 62.5887C47.7554 62.7558 52.4386 63.2831 56.8555 64.1707L56.9965 64.202L57.1218 64.155C58.9596 63.4345 61.2724 62.808 64.0604 62.2755C66.7127 61.7638 69.344 61.4245 71.9545 61.2574C67.3705 61.9883 63.3713 63.5494 59.9568 65.9406C57.6491 67.5695 55.9627 69.2507 54.8977 70.984C50.7627 72.3728 46.21 74.3933 41.2397 77.0455C34.6404 80.5644 30.4375 83.7701 28.6311 86.6625C28.464 86.6625 27.7905 86.3179 26.6106 85.6288C25.0965 84.7308 24.0784 84.1512 23.5563 83.8902C24.1515 83.0966 24.6579 82.0629 25.0756 80.7889L25.984 77.3901C26.7045 74.5812 27.7383 72.7539 29.0853 71.9081C27.3102 69.778 25.1174 67.8306 22.5069 66.0659C20.3872 64.6353 17.8185 63.2205 14.8008 61.8212C16.6177 61.9048 19.0193 62.1658 22.0057 62.6044C24.6162 62.9907 27.1901 63.4293 29.7275 63.9201Z" fill="#50A8B4"/>
<path d="M39.5324 100.916C41.9654 100.268 44.5289 99.151 47.2229 97.5638C50.1362 95.8514 52.0888 94.8281 53.0808 94.4939L59.4242 93.3349C62.4942 92.7397 65.0211 92.3899 67.0051 92.2855C68.3103 92.2855 69.6991 91.6903 71.1714 90.4999C72.6646 89.2678 73.3485 88.1035 73.2232 87.0071C72.7324 85.7332 71.3802 84.3287 69.1665 82.7938C67.6002 81.6974 66.0235 80.0998 64.4363 78.001C62.8805 75.9439 61.1471 74.2784 59.2363 73.0045C60.3953 72.6286 61.9773 71.7724 63.9821 70.4358C66.603 68.7024 68.091 67.7366 68.446 67.5382L74.6485 64.1237C76.8831 63.0273 78.9036 62.3747 80.71 62.1658L80.8197 62.3224C81.6028 64.4944 80.7675 68.8382 78.3136 75.3539C78.0943 75.1764 77.6714 75.0407 77.0449 74.9467C76.6586 74.8945 76.716 75.1347 77.2172 75.6672L78.0943 76.466C81.843 79.8387 84.2759 82.9086 85.3932 85.6757C86.239 87.785 86.3069 89.6593 85.5968 91.2987C84.5109 93.7839 83.3936 95.606 82.245 96.765C81.0964 97.9136 79.5092 98.8064 77.4835 99.4434C76.4811 99.7566 74.779 100.461 72.3774 101.558L65.0472 105.004C59.1893 107.823 55.1378 109.687 52.8928 110.595C49.7811 111.869 45.2859 112.104 39.4071 111.3C36.995 110.966 34.7814 110.501 32.7661 109.906C30.7612 109.311 29.3516 108.7 28.5371 108.074C30.0825 108.084 32.2596 107.009 35.0685 104.847C36.6139 103.657 38.1019 102.346 39.5324 100.916Z" fill="#50A8B4"/>
<path d="M79.0027 63.6381C79.2742 63.7321 79.4099 63.9305 79.4099 64.2333C79.4099 64.9956 79.0184 66.5096 78.2352 68.7755L76.8099 72.6443C76.6533 73.1246 76.4288 73.3856 76.1364 73.4274C75.8336 73.4796 75.3428 73.3282 74.6641 72.9732C71.1765 71.1041 69.0098 69.9816 68.164 69.6057C67.7568 69.4282 67.5218 69.2767 67.4592 69.1514C67.3757 69.0157 67.4488 68.8277 67.6785 68.5876C68.566 67.6478 70.2837 66.5305 72.8315 65.2357C75.7657 63.7321 77.8228 63.1996 79.0027 63.6381Z" fill="#0D131A"/>
<path d="M78.9401 64.2333C78.9401 65.3088 77.9481 68.1334 75.9642 72.7069L72.769 70.9527C70.9834 70.0129 69.6468 69.3812 68.7593 69.0575C70.075 67.8149 71.9441 66.6036 74.3666 65.4237C76.7369 64.2646 78.2249 63.8104 78.8305 64.061C78.9036 64.0924 78.9401 64.1498 78.9401 64.2333Z" fill="#C6000B"/>
<path d="M78.8305 64.061C78.9036 64.0924 78.9401 64.1498 78.9401 64.2333C78.9401 64.9434 78.4807 66.4783 77.5618 68.8382C76.3923 68.5145 75.3638 68.3892 74.4762 68.4623C73.3276 68.5667 71.9754 69.0053 70.4195 69.778C69.8035 69.4752 69.25 69.235 68.7593 69.0575C70.075 67.8149 71.9441 66.6036 74.3666 65.4237C76.7369 64.2646 78.2249 63.8104 78.8305 64.061Z" fill="#A30000"/>
<path d="M22.8045 69.4334C22.8359 69.5169 22.6688 69.6788 22.3033 69.9189L17.5105 73.3647C16.884 73.8138 16.4872 73.9443 16.3201 73.7563L15.537 72.2527C14.9522 71.2503 14.4667 70.1121 14.0803 68.8382C13.6 67.2406 13.5635 66.1703 13.9707 65.6273C14.1378 65.4185 14.9261 65.5229 16.3358 65.9406C18.1631 66.4835 20.0635 67.4494 22.0371 68.8382L22.8045 69.4334Z" fill="#0D131A"/>
<path d="M18.6694 67.7888C20.173 68.5302 21.2276 69.1514 21.8333 69.6527C20.9666 70.0599 20.0581 70.5977 19.1079 71.2659C18.5441 71.6627 17.8236 72.2161 16.9464 72.9262L16.6802 73.1298C16.3043 72.6077 15.8553 71.6784 15.3332 70.3418C14.7484 68.8591 14.4561 67.7783 14.4561 67.0996C14.4561 66.8595 14.4978 66.6924 14.5814 66.5984C14.644 66.5253 14.7798 66.494 14.9886 66.5044C15.7404 66.5253 16.9673 66.9534 18.6694 67.7888Z" fill="#C6000B"/>
<path d="M14.9886 66.5044C15.6882 66.5149 16.8786 66.9273 18.5597 67.7418C17.7557 68.2117 17.2179 68.9948 16.9464 70.0912C16.8003 70.7177 16.675 71.6732 16.5705 72.9575C16.1633 72.2892 15.7247 71.3442 15.2549 70.1225C14.7223 68.7442 14.4561 67.7366 14.4561 67.0996C14.4561 66.8595 14.4978 66.6924 14.5814 66.5984C14.644 66.5253 14.7798 66.494 14.9886 66.5044Z" fill="#A30000"/>
<path d="M15.0512 94.1337C17.3588 93.9979 20.3296 94.3269 23.9633 95.1205L33.0791 97.4229C34.8856 97.8823 36.5928 98.2478 38.2009 98.5193C39.8507 98.8012 40.9053 98.8952 41.3648 98.8012L42.4768 98.5663C56.7509 95.6112 66.488 94.1337 71.688 94.1337H72.2519L71.9856 94.6349C70.8161 96.953 67.2607 99.8767 61.3192 103.406C58.8654 104.858 56.5159 106.09 54.2709 107.103C51.9737 108.136 50.2769 108.716 49.1805 108.841C46.9877 109.102 43.8343 109.045 39.7202 108.669C35.6165 108.282 33.0843 107.813 32.1237 107.259L28.5995 104.925L22.6947 100.978C18.8938 98.5036 16.3721 96.7912 15.1295 95.8409C14.2837 95.1935 13.8869 94.7602 13.9391 94.5409C13.96 94.4887 14.101 94.4104 14.362 94.306L15.0512 94.1337Z" fill="#0D131A"/>
<path d="M24.6053 95.7626C26.2343 96.0863 29.2467 96.812 33.6428 97.9398L38.6392 99.1771C40.0593 99.4695 41.0148 99.5687 41.5055 99.4747L42.6176 99.2398L60.3949 95.559C65.8038 94.5044 69.6412 93.951 71.9071 93.8987C70.3826 96.1542 66.5348 99.0623 60.3636 102.623C54.5057 105.996 50.4856 107.813 48.3032 108.074C46.1626 108.324 43.1815 108.215 39.3597 107.745C35.7155 107.306 33.4496 106.836 32.562 106.335C30.7138 105.28 27.7692 103.396 23.7282 100.681C19.0816 97.5691 16.4293 95.606 15.7715 94.7915C18.0583 94.6975 21.0029 95.0213 24.6053 95.7626Z" fill="#922F00"/>
<path d="M22.7571 97.8144C22.4647 97.2819 22.3603 96.7128 22.4439 96.1072C22.4961 95.6895 22.6266 95.3084 22.8354 94.9638C34.5617 97.6474 40.3674 99.0309 40.2525 99.1145L64.2636 94.9638C64.7857 95.4232 64.8693 96.0498 64.5143 96.8433C64.2219 97.5012 63.6371 98.2478 62.76 99.0831C60.6508 101.088 57.5704 102.795 53.5189 104.205C49.1229 105.729 44.92 106.387 40.9104 106.178L40.4561 106.147C36.5091 105.938 32.7291 104.91 29.1162 103.061C25.8584 101.401 23.7387 99.6522 22.7571 97.8144Z" fill="#0D131A"/>
<path d="M23.3684 95.5433C25.5507 95.961 28.7199 96.7076 32.8757 97.7831L38.4204 99.1301C39.9762 99.4643 41.0047 99.5791 41.506 99.4747L43.1506 99.1301C51.9635 97.261 58.7977 95.9767 63.6532 95.2771C63.4966 96.3213 62.7918 97.4438 61.5387 98.6446C59.4608 100.618 56.5788 102.268 52.8928 103.594C48.8101 105.056 44.8265 105.688 40.9421 105.489C37.183 105.28 33.497 104.226 29.8841 102.325C26.6471 100.613 24.564 98.8847 23.6347 97.1409C23.3945 96.7024 23.2744 96.3056 23.2744 95.9506L23.3684 95.5433Z" fill="#ED8599"/>
<path d="M28.1296 85.5504C28.9232 86.4798 29.1529 86.9079 28.8188 86.8348L28.0669 86.4589C27.8163 87.4404 27.0906 88.2914 25.8898 89.0119C24.6786 89.7429 23.4986 90.03 22.35 89.8734C21.0761 89.6959 19.9588 89.0537 18.9982 87.9469C17.5363 86.2448 16.7532 83.6866 16.6487 80.2721C15.709 80.0841 15.1608 79.8596 15.0041 79.5986C14.8371 79.3166 15.5367 79.2749 17.103 79.4733C19.2122 79.7552 21.0343 80.2773 22.5693 81.0395C24.5324 82.0211 26.3858 83.5247 28.1296 85.5504Z" fill="#0D131A"/>
<path d="M25.6082 87.9939C24.5744 88.6308 23.5093 88.8866 22.4129 88.7613C20.9615 88.6151 19.8077 87.8216 18.9515 86.3806C18.0743 84.9291 17.5627 82.9347 17.4165 80.3974C21.5411 81.3371 24.8929 83.1592 27.472 85.8637C27.1901 86.6991 26.5688 87.4091 25.6082 87.9939Z" fill="white"/>
<path d="M26.1718 83.8745L26.2971 83.9842L26.3285 84.3444C26.0048 85.1797 25.5036 85.8219 24.8248 86.2709C24.1461 86.7199 23.4674 86.8609 22.7887 86.6938C22.0369 86.5267 21.4103 85.9681 20.9091 85.0179C20.3244 83.9006 20.0999 82.5118 20.2356 80.8516L20.4706 80.5853L20.7525 80.695C22.7156 81.4885 24.522 82.5484 26.1718 83.8745Z" fill="#0D131A"/>
<path d="M22.9766 85.989C22.277 85.8324 21.7341 85.2476 21.3477 84.2348C21.0136 83.3785 20.8569 82.4596 20.8778 81.4781C22.6216 82.1777 24.2192 83.0966 25.6706 84.2348C25.3678 84.8822 24.9763 85.3677 24.4959 85.6914C24.0052 86.0151 23.4987 86.1143 22.9766 85.989Z" fill="#C6000B"/>
<path d="M24.5115 83.389C24.2609 84.0468 23.9163 84.3705 23.4777 84.3601C22.9347 84.3496 22.5745 83.6135 22.397 82.1516C23.1175 82.5066 23.8223 82.9191 24.5115 83.389Z" fill="white"/>
<path d="M18.544 77.4214C18.993 76.9724 19.8127 76.4138 21.0031 75.7455C22.2979 75.025 23.2638 74.6282 23.9007 74.5551C25.2999 74.409 25.3469 74.5604 24.0417 75.0094C23.4883 75.1869 22.6738 75.6359 21.5983 76.3564L19.2489 77.9383C18.6641 78.3142 18.2986 78.4239 18.1525 78.2672C17.9958 78.1106 18.1263 77.8287 18.544 77.4214Z" fill="#0D131A"/>
<path d="M27.9889 77.4997C27.9158 76.5391 27.9628 76.1475 28.1299 76.325C28.297 76.4921 28.464 76.9933 28.6311 77.8287C28.7982 78.5909 28.9287 79.4889 29.0227 80.5227C29.1167 81.5564 29.1428 82.3709 29.101 82.9661C29.0592 83.5404 28.9026 83.8328 28.6311 83.8432C28.3596 83.8536 28.2187 83.603 28.2082 83.0914L28.1456 80.695L27.9889 77.4997Z" fill="#0D131A"/>
<path d="M58.6565 72.8635C59.1159 72.5816 59.6902 72.4824 60.3794 72.5659C60.7031 72.6077 60.8754 72.7069 60.8963 72.8635C60.9276 73.0202 60.7814 73.135 60.4577 73.2081L59.6119 73.3491C59.3091 73.3804 59.0898 73.4378 58.9541 73.5214C58.2649 73.9286 57.5496 75.3644 56.8083 77.8287L55.6022 82.6058C55.4143 83.3263 55.2837 83.6291 55.2106 83.5143C55.1689 83.4412 55.1428 83.1175 55.1323 82.5432C55.1323 81.6138 55.4404 80.0528 56.0564 77.86C56.8291 75.0929 57.6958 73.4274 58.6565 72.8635Z" fill="#0D131A"/>
<path d="M64.4363 73.0515C65.209 73.3752 65.9556 73.7824 66.6761 74.2732C67.4279 74.7849 68.0649 75.3278 68.587 75.9021C69.1091 76.4764 69.344 76.774 69.2918 76.7949L68.2111 76.1527C66.1331 74.7744 64.7652 73.9443 64.1074 73.6624C63.648 73.4744 63.413 73.2499 63.4026 72.9888C63.3921 72.7382 63.7367 72.7591 64.4363 73.0515Z" fill="#0D131A"/>
<path d="M68.9785 77.3588C69.5946 77.3275 70.0227 77.4319 70.2629 77.672C70.4926 77.9226 70.195 78.0741 69.3701 78.1263C69.5476 81.7287 69.0255 84.5585 67.8038 86.6155C66.9371 88.0669 65.8407 88.9963 64.5146 89.4035C63.2198 89.7899 61.8206 89.6437 60.317 88.9649C58.8655 88.3175 57.7483 87.3778 56.9651 86.1456C56.2655 86.9392 55.8896 87.242 55.8374 87.0541C55.7852 86.8661 56.0828 86.2396 56.7302 85.1745C57.8997 83.2741 59.6435 81.5512 61.9616 80.0058C64.4363 78.356 66.7753 77.4736 68.9785 77.3588Z" fill="#0D131A"/>
<path d="M57.5288 85.5035C59.1369 83.5195 61.2566 81.7339 63.8879 80.1468C66.2687 78.7267 67.8297 78.1106 68.5711 78.2985V78.7058C68.5711 81.4207 68.19 83.6291 67.4277 85.3312C66.6655 87.0436 65.5847 88.1087 64.1855 88.5264C63.0369 88.8605 61.8518 88.7561 60.63 88.2131C59.3875 87.6493 58.3537 86.746 57.5288 85.5035Z" fill="white"/>
<path d="M61.2098 84.642C60.364 84.1721 59.842 83.4777 59.6436 82.5589L60.0038 81.948C61.4448 80.7889 63.0058 79.8126 64.687 79.019L64.9063 78.9094L65.1882 78.8781C65.7416 80.2042 65.8617 81.452 65.5484 82.6215C65.2352 83.7492 64.6191 84.4958 63.7002 84.8613C62.8753 85.185 62.0452 85.1119 61.2098 84.642Z" fill="#0D131A"/>
<path d="M62.0556 84.1878C61.7528 84.1042 61.4552 83.9111 61.1628 83.6082C60.8809 83.3159 60.6511 82.9713 60.4736 82.5745C61.8624 81.4259 63.3034 80.4444 64.7966 79.6299C64.9428 80.2146 65.0159 80.7785 65.0159 81.3215C65.0159 82.1464 64.7757 82.8355 64.2954 83.389C64.003 83.7231 63.6532 83.9633 63.246 84.1095L62.0556 84.1878Z" fill="#C6000B"/>
<path d="M63.1831 80.5853C63.2875 81.8279 63.0839 82.5275 62.5722 82.6841C62.0919 82.8303 61.6951 82.5536 61.3818 81.854L63.1831 80.5853Z" fill="white"/>
<path d="M16.4765 98.3626C16.1946 98.2687 15.6098 97.5325 14.7223 96.1542L13.4692 94.118L16.3355 94.1337C18.236 94.1754 19.1444 94.2851 19.0609 94.4626L17.9175 96.7337C17.2492 97.9241 16.7689 98.4671 16.4765 98.3626Z" fill="#0D131A"/>
<path d="M14.4561 94.5723L16.5705 94.6349C17.6669 94.6662 18.1943 94.7237 18.1525 94.8072C17.9645 95.2353 17.6565 95.7939 17.2284 96.4831C16.7689 97.2245 16.487 97.5743 16.3826 97.5325C16.1842 97.4699 15.542 96.4831 14.4561 94.5723Z" fill="white"/>
<path d="M73.5832 93.8831C73.625 94.2903 73.317 95.11 72.6591 96.3421C71.97 97.6056 71.4374 98.2321 71.0615 98.2217C70.7274 98.2112 70.1896 97.5221 69.4483 96.1542L68.4302 94.118L70.9832 93.7264C72.6957 93.528 73.5624 93.5803 73.5832 93.8831Z" fill="#0D131A"/>
<path d="M73.0819 93.8987C72.894 94.567 72.5442 95.3084 72.0325 96.1229C71.5209 96.9478 71.1658 97.3289 70.9674 97.2663C70.769 97.2036 70.4714 96.859 70.0747 96.2325C69.6779 95.6269 69.3489 95.0004 69.0879 94.353L73.0819 93.8987Z" fill="white"/>
<path d="M29.1476 99.4747C29.2833 99.4852 29.4138 100.08 29.5391 101.26C29.6644 102.409 29.6906 103.051 29.6175 103.187C29.5444 103.364 29.3199 103.495 28.944 103.578C28.5263 103.662 28.1556 103.615 27.8319 103.437C27.6439 103.323 27.4821 103.082 27.3463 102.717C27.2106 102.362 27.1741 102.117 27.2367 101.981C27.3829 101.688 27.7014 101.208 28.1921 100.54C28.7142 99.8193 29.0327 99.4643 29.1476 99.4747Z" fill="#0D131A"/>
<path d="M29.0067 100.07C29.0693 100.143 29.1372 100.613 29.2103 101.48C29.2834 102.367 29.2729 102.832 29.179 102.874C29.0432 102.947 28.8657 102.999 28.6464 103.03L28.0199 102.952C27.8006 102.837 27.6806 102.529 27.6597 102.028L28.3332 100.978C28.7404 100.331 28.9649 100.028 29.0067 100.07Z" fill="white"/>
<path d="M33.0793 101.339C33.2046 101.38 33.3508 102.07 33.5179 103.406C33.6745 104.711 33.7215 105.411 33.6589 105.505C33.5962 105.63 33.3143 105.714 32.8131 105.756C32.2597 105.797 31.8315 105.709 31.5287 105.489C31.2677 105.301 31.0745 105.045 30.9492 104.722C30.8239 104.409 30.8082 104.147 30.9022 103.939C30.9962 103.751 31.3356 103.281 31.9203 102.529C32.5677 101.694 32.954 101.297 33.0793 101.339Z" fill="#0D131A"/>
<path d="M32.8287 102.043C32.8705 102.096 32.9331 102.623 33.0167 103.625C33.0898 104.638 33.095 105.171 33.0323 105.223L32.5155 105.301C32.2022 105.291 31.962 105.228 31.795 105.113C31.5339 104.915 31.393 104.544 31.3721 104.001L32.0926 102.936C32.5416 102.299 32.7869 102.002 32.8287 102.043Z" fill="white"/>
<path d="M55.9156 103.312C55.853 103.135 55.9208 102.503 56.1192 101.417C56.3072 100.31 56.469 99.7514 56.6048 99.741C56.7719 99.7201 57.1112 100.086 57.6229 100.837L58.453 102.153C58.5887 102.341 58.5783 102.597 58.4217 102.921C58.265 103.244 58.0249 103.484 57.7012 103.641C57.367 103.808 56.9911 103.839 56.5735 103.735C56.208 103.631 55.9887 103.49 55.9156 103.312Z" fill="#0D131A"/>
<path d="M57.9675 102.31C57.9257 102.759 57.7847 103.046 57.5446 103.171L56.9181 103.218L56.4169 103.061C56.3229 103.009 56.3385 102.545 56.4638 101.668C56.5787 100.801 56.6675 100.336 56.7301 100.274C56.7719 100.232 56.9859 100.545 57.3723 101.213L57.9675 102.31Z" fill="white"/>
<path d="M52.078 105.521C51.8274 105.374 51.7804 104.654 51.937 103.359C52.0937 102.064 52.3077 101.359 52.5792 101.245C52.715 101.203 53.0387 101.527 53.5503 102.216C54.0515 102.915 54.4013 103.505 54.5997 103.986C54.6728 104.163 54.6519 104.398 54.5371 104.69C54.4013 105.025 54.1873 105.291 53.8949 105.489C53.5816 105.688 53.211 105.761 52.7828 105.709C52.4696 105.677 52.2346 105.615 52.078 105.521Z" fill="#0D131A"/>
<path d="M54.1301 104.017C54.0883 104.508 53.9108 104.852 53.5975 105.051L52.9084 105.223L52.3915 105.129C52.3288 105.077 52.3706 104.549 52.5168 103.547C52.6525 102.555 52.7465 102.033 52.7987 101.981C52.83 101.939 53.0545 102.252 53.4722 102.921L54.1301 104.017Z" fill="white"/>
<path d="M10.3839 92.5987C10.2586 92.275 10.2012 91.9461 10.2117 91.612C10.2325 91.069 10.3265 90.8132 10.4936 90.8445C10.6398 90.8758 10.7599 91.0846 10.8538 91.471C10.9269 91.7216 11.0313 91.9774 11.1671 92.2385L11.4647 92.677C12.039 93.2513 12.7281 93.622 13.5322 93.7891L17.7142 93.9927C20.2724 93.9614 22.8724 94.2329 25.5142 94.8072C27.1119 95.1518 29.2524 95.7626 31.936 96.6397L36.118 97.9241C37.6738 98.3418 38.9843 98.5663 40.0494 98.5976C40.561 98.608 41.8976 98.394 44.0591 97.9554L51.5929 96.3891C59.6331 94.7706 66.53 93.7473 72.2835 93.3192C74.1944 93.1835 75.8024 92.8389 77.1076 92.2855C78.2876 91.7843 79.0864 91.1838 79.5041 90.4842C79.8695 89.8682 80.1776 89.6646 80.4282 89.8734C80.6788 90.0822 80.6527 90.4059 80.3498 90.8445C79.4936 92.0557 78.5016 92.8911 77.3739 93.3505C76.3924 93.7369 74.7269 94.0345 72.3775 94.2433C68.9838 94.5357 62.7553 95.5329 53.6917 97.2349C45.3382 98.7908 40.8377 99.553 40.1903 99.5217C38.3212 99.4068 35.4758 98.7386 31.6541 97.5169C28.9705 96.6502 26.8717 96.0498 25.3576 95.7156C22.768 95.1518 20.2254 94.8855 17.7298 94.9168C15.3595 94.9481 13.7097 94.8333 12.7804 94.5722C12.133 94.3947 11.4803 93.9823 10.8225 93.3349C10.6346 93.1469 10.4884 92.9015 10.3839 92.5987Z" fill="#0D131A"/>
<path d="M34.2069 95.0265C33.9354 94.8803 33.8309 94.6819 33.8936 94.4313C33.9667 94.1807 34.186 94.0919 34.5514 94.165C34.9169 94.2381 35.2041 94.353 35.4129 94.5096L36.243 95.3554C36.5458 95.7 36.5772 95.9193 36.337 96.0132L35.8671 96.0446C35.3555 95.6478 34.802 95.3084 34.2069 95.0265Z" fill="#0D131A"/>
<path d="M42.1165 95.747C42.4506 95.3397 42.7639 95.0526 43.0563 94.8855C43.3173 94.7498 43.7037 94.6349 44.2153 94.5409C44.6956 94.4574 44.9515 94.567 44.9828 94.8698C45.0037 95.1726 44.7896 95.3658 44.3406 95.4494C43.9647 95.5329 43.5784 95.6739 43.1816 95.8723C42.8474 96.0393 42.6804 96.1385 42.6804 96.1698L42.1478 96.2795C41.845 96.2795 41.8346 96.102 42.1165 95.747Z" fill="#0D131A"/>
<path d="M68.5712 40.3005C71.9022 40.2274 74.4291 40.6503 76.152 41.5692L76.4026 41.7101L74.8364 46.1427C72.8733 45.8086 71.0146 45.6206 69.2604 45.5789C70.4925 46.0488 71.448 46.5709 72.1267 47.1452C72.3355 47.3331 72.5705 47.4845 72.8315 47.5994C72.9881 47.7247 73.0299 48.0066 72.9568 48.4452L72.7062 51.3898C72.5705 52.9143 72.4243 53.875 72.2676 54.2717C72.0797 54.7208 71.9439 54.94 71.8604 54.9296C71.8186 54.9191 71.7456 54.7469 71.6411 54.4127C71.5054 53.9637 70.9885 53.3424 70.0905 52.5488C68.9523 51.536 67.715 50.8364 66.3784 50.45C68.0387 51.8806 69.7981 53.5252 71.6568 55.3838L68.117 58.4381C65.7049 60.4534 64.3579 61.4349 64.076 61.3827C63.8149 61.3305 63.2145 60.8554 62.2747 59.9574L59.7687 57.5609L61.7266 60.8815C62.4784 62.1658 62.8438 62.9124 62.8229 63.1213C62.7812 63.4658 61.7683 64.0401 59.7844 64.8442L57.4036 66.755C55.7747 67.9872 54.8349 68.5302 54.5843 68.384C54.3337 68.2378 53.7698 67.6008 52.8927 66.4731L50.6842 63.6381L51.9686 67.5069C52.5011 69.094 52.7517 70.0025 52.7204 70.2322C52.6891 70.4723 52.2244 70.9161 51.3264 71.5635L49.3059 72.9262C48.8256 73.2395 48.4862 73.4117 48.2878 73.4431C48.079 73.464 47.9067 73.3491 47.771 73.0985L45.9384 69.5274C46.1681 70.4671 46.5388 71.7619 47.0505 73.4117C44.7219 75.26 43.5107 76.1266 43.4167 76.0118C43.3645 75.9491 43.14 75.3487 42.7432 74.2105L41.6311 71.031L41.9287 76.6696C41.9287 76.7427 41.2813 77.0507 39.9865 77.5937C38.6604 78.1471 37.9243 78.3716 37.7781 78.2672C37.6528 78.1732 37.5275 77.7086 37.4022 76.8732L37.0262 74.3828L37.2299 77.4684C37.2925 78.45 37.2769 78.9668 37.1829 79.019C33.7162 80.0215 31.868 80.413 31.6382 80.1938C31.5025 80.058 31.7218 78.8415 32.2961 76.5443L33.5178 71.8141C33.1001 72.2318 32.0455 73.37 30.3539 75.2286C28.8189 76.8576 27.9418 77.6355 27.7225 77.5624C27.5032 77.4997 27.1326 76.4869 26.6105 74.5238L25.9056 71.5949L28.0514 69.4021L26.2032 70.8274C24.9815 71.7358 24.3132 72.1274 24.1984 72.0021C24.0835 71.8768 24.1514 71.125 24.402 69.7466L24.8092 67.7105L29.9623 63.9827L26.2815 65.643C24.9345 66.259 24.1984 66.494 24.0731 66.3478C23.9478 66.2016 24.308 65.1574 25.1538 63.2152L26.4538 60.3489L30.9804 56.4019L28.5057 57.7019C27.5241 58.2136 27.0073 58.4224 26.955 58.3284C26.8611 58.1614 28.4587 55.9216 31.7479 51.6091L37.5431 50.0898L35.5383 49.8078L34.0346 49.4789C33.8154 49.4163 33.7266 49.3014 33.7684 49.1343L33.9093 48.8994C35.1728 47.7403 36.4572 46.6909 37.7624 45.7512L37.8407 45.6885L40.1432 45.4849L43.9806 45.0933L40.613 44.5138L40.3781 44.3572C40.3154 44.2005 40.4877 43.9917 40.895 43.7307L44.6854 40.9897C46.7946 39.4547 47.9955 38.6402 48.2878 38.5463C49.7393 38.3061 51.6292 38.4993 53.9578 39.1258C56.2863 39.7523 58.5313 40.6764 60.6928 41.8981C62.6246 40.9061 65.2507 40.3736 68.5712 40.3005Z" fill="#0D131A"/>
<path d="M68.3991 45.9235C69.7043 46.3307 70.9939 47.0721 72.2678 48.1476L72.0642 50.356L71.7196 53.3946C71.1036 52.6428 70.2317 51.9014 69.1039 51.1705C67.7256 50.2621 66.4151 49.7139 65.1726 49.5259L64.2328 49.4633C64.1701 49.5364 64.4051 49.7609 64.9376 50.1368C65.4284 50.4918 66.3943 51.3532 67.8352 52.7211L70.4666 55.2585L68.0858 57.2164C68.0336 57.2581 67.3027 56.7726 65.8931 55.7597C64.4729 54.7469 63.6741 54.2822 63.4966 54.3657C63.3191 54.4597 63.8934 55.0706 65.2196 56.1983L67.2244 57.9212L64.0918 60.4742L58.7351 55.7127C58.0564 55.1175 57.6701 54.8356 57.5761 54.8669C57.4612 54.8878 57.6701 55.3107 58.2026 56.1356C58.944 57.2842 60.1657 59.5084 61.8677 62.808L59.5496 63.9357L58.3905 62.1972C57.5865 61.059 57.1166 60.5212 56.9809 60.5839C56.866 60.6361 57.1688 61.2783 57.8893 62.5104L58.9387 64.3743L54.6941 67.4442C52.115 64.1446 50.5852 62.2807 50.1049 61.8526L49.3218 61.1947C49.186 61.1738 49.2487 61.4975 49.5097 62.1658C49.8856 63.1787 50.6844 65.7735 51.9061 69.9503L48.2567 72.4563L47.0037 69.6997L45.3904 66.3008C45.0145 65.5803 44.7952 65.2201 44.7325 65.2201C44.6595 65.2305 44.649 65.5908 44.7012 66.3008C44.743 66.9587 44.9518 68.0968 45.3277 69.7153C45.6723 71.1981 45.9751 72.3414 46.2362 73.1455L43.7615 74.9154L42.7434 71.9394C42.1377 70.227 41.7201 69.1097 41.4903 68.5876C41.1562 67.8567 40.9526 67.4703 40.8795 67.4285C40.7542 67.3659 40.7333 67.7992 40.8168 68.7286L41.2084 76.1997L38.3108 77.3118C37.5799 73.229 37.1047 70.7908 36.8855 69.9972C36.7288 69.3916 36.5722 69.0836 36.4156 69.0731C36.259 69.0731 36.1911 69.4073 36.212 70.0756L36.4782 78.4552L32.5469 79.301C34.0923 73.1925 34.8127 69.9816 34.7083 69.6683C34.6457 69.4804 33.6067 70.4358 31.5914 72.5346L28.0516 76.278L26.689 71.8141L28.8661 69.6683L31.1842 67.2406C31.6123 66.7498 31.7898 66.4522 31.7167 66.3478C31.6541 66.2538 31.3721 66.3478 30.8709 66.6297C30.5055 66.8386 29.5083 67.5434 27.8793 68.7442L25.0757 70.7804L25.4516 68.102C29.6075 65.2096 32.0091 63.4763 32.6565 62.902C33.1264 62.4843 33.33 62.2337 33.2674 62.1502C33.2047 62.0666 32.8914 62.1188 32.3276 62.3068C31.8786 62.453 30.7248 62.9072 28.8661 63.6695L25.3106 65.1104L27.0335 60.7562C30.3749 57.8011 32.479 55.9738 33.3457 55.2742L34.5517 54.2404C34.6039 54.136 34.0766 54.2874 32.9698 54.6946C31.9882 55.0601 31.2051 55.3995 30.6203 55.7127L29.0697 56.5429L32.171 52.2199L35.6168 51.3585L39.7518 50.2151C40.3261 50.0062 40.6028 49.8287 40.5819 49.6825C40.5715 49.5468 40.2686 49.4998 39.6735 49.5416L37.4963 49.4633L34.8493 48.9934C36.0397 47.9492 37.1204 47.0773 38.0915 46.3777L42.6181 45.9548L46.1892 45.5162C46.7426 45.4431 47.0193 45.3335 47.0193 45.1873C47.0193 45.0411 46.7478 44.9263 46.2049 44.8427L43.6831 44.3102L41.9446 43.8873C42.4458 43.574 43.657 42.6969 45.5783 41.2559C47.2908 39.9611 48.2462 39.2824 48.4446 39.2198C50.7105 38.9692 53.4568 39.4547 56.6833 40.6764C58.2914 41.2925 59.6749 41.9294 60.834 42.5873C62.6091 41.6266 65.0734 41.0941 68.2268 40.9897C71.3698 40.8852 73.8132 41.2455 75.557 42.0704L74.6173 45.0307L70.9521 44.8271C68.5401 44.7226 66.8328 44.707 65.8304 44.7801C64.7444 44.8636 64.285 44.9889 64.4521 45.156C64.5878 45.2917 65.042 45.3961 65.8147 45.4692C66.9529 45.5841 67.8144 45.7355 68.3991 45.9235Z" fill="#00A63C"/>
<path d="M65.83 44.7801C64.744 44.8636 64.2846 44.9889 64.4517 45.156C64.5874 45.2917 65.0416 45.3961 65.8143 45.4692C66.9525 45.5841 67.814 45.7355 68.3987 45.9235C69.7039 46.3307 70.9935 47.0721 72.2674 48.1476L72.0638 50.356L71.7192 53.3946C71.1032 52.6428 70.2313 51.9014 69.1035 51.1705C67.7252 50.2621 66.4147 49.7139 65.1722 49.5259L64.2324 49.4633C64.1697 49.5364 64.4047 49.7609 64.9372 50.1368C65.428 50.4918 66.3939 51.3532 67.8348 52.7211L70.4662 55.2585L68.0854 57.2164C68.0332 57.2581 67.3023 56.7726 65.8927 55.7597C64.4726 54.7469 63.6737 54.2822 63.4962 54.3657C63.3187 54.4597 63.893 55.0706 65.2192 56.1983L67.224 57.9212L64.8746 59.8477C62.5147 56.026 59.3874 53.4051 55.4925 51.985C51.2531 50.45 47.1756 50.8364 43.2598 53.144C41.8084 49.4894 39.6417 47.5681 36.7598 47.3801L38.0911 46.3777L42.6177 45.9548L46.1888 45.5162C46.7422 45.4431 47.0189 45.3335 47.0189 45.1873C47.0189 45.0411 46.7474 44.9263 46.2045 44.8427L43.6827 44.3102L41.9442 43.8873C42.4454 43.574 43.6566 42.6969 45.5779 41.2559C47.2904 39.9611 48.2459 39.2824 48.4442 39.2198C50.7101 38.9692 53.4564 39.4547 56.6829 40.6764C58.291 41.2925 59.6745 41.9294 60.8336 42.5873C62.6087 41.6266 65.073 41.0941 68.2264 40.9897C71.3694 40.8852 73.8128 41.2455 75.5566 42.0704L74.6169 45.0307L70.9517 44.8271C68.5397 44.7226 66.8324 44.707 65.83 44.7801Z" fill="#009233"/>
<path d="M59.4085 41.8041H59.4555L61.4133 42.1017L61.9929 41.9451C62.2017 41.9451 61.8519 42.2061 60.9434 42.7282C57.7169 44.0439 54.5478 45.7825 51.4361 47.944C45.4111 52.1103 40.3938 57.587 36.3841 64.3743L36.0552 64.9695C36.0134 65.0008 35.9769 64.7711 35.9456 64.2803C35.862 62.9542 36.358 61.1791 37.4335 58.9549C38.5821 56.5742 40.138 54.2509 42.1011 51.985C47.1236 46.1897 52.8927 42.7961 59.4085 41.8041Z" fill="#0D131A"/>
<path d="M60.1759 42.5246C56.7301 43.4957 53.0911 45.4066 49.2589 48.2572C43.9753 52.1834 39.7829 57.0493 36.6816 62.855C37.0471 61.2887 37.825 59.4875 39.0154 57.4513C40.3311 55.2063 41.9182 53.0918 43.7769 51.1079C48.4966 46.1062 53.7124 43.1616 59.4241 42.274L60.0819 42.3367C60.4265 42.3784 60.4578 42.4411 60.1759 42.5246Z" fill="#00A63C"/>
<path d="M59.4239 42.274L60.0817 42.3367C60.4263 42.3784 60.4576 42.4411 60.1757 42.5246C58.3693 43.0363 56.3592 43.8977 54.1455 45.109C51.3471 46.6544 48.7105 48.5287 46.2358 50.732C45.8181 50.4396 45.3534 50.2046 44.8418 50.0271C46.8988 48.0223 49.0812 46.3777 51.3889 45.0933C53.9993 43.6315 56.6777 42.6917 59.4239 42.274Z" fill="#009233"/>
<path d="M116.75 34.7402C116.802 35.1579 116.113 36.0037 114.682 37.2776C113.262 38.541 112.432 39.0527 112.192 38.8125L109.921 36.1185L110.5 37.8728C110.762 38.7499 110.845 39.3346 110.751 39.627C110.636 39.982 109.817 40.4415 108.292 41.0053C106.778 41.5692 105.969 41.7258 105.864 41.4752C105.791 41.2873 105.494 40.8644 104.971 40.2065L103.593 38.5149L103.562 40.8957C103.551 41.825 103.499 42.3314 103.405 42.415C103.186 42.6134 101.635 42.7074 98.7533 42.6969C95.4119 42.6865 92.6448 42.3993 90.452 41.8355C89.8882 41.6997 89.554 41.5901 89.4496 41.5065C89.199 41.3081 88.9536 40.8174 88.7134 40.0342C88.1391 38.1965 87.0845 36.2073 85.5495 34.0667C84.1086 32.0723 82.4431 30.2136 80.5531 28.4907C78.6736 26.7678 76.8828 25.4678 75.1807 24.5907C73.3743 23.6613 71.9385 23.3637 70.8735 23.6979L70.3409 23.6196C66.7176 21.8653 61.8987 24.6063 55.8841 31.8426C52.8769 35.4555 50.2298 39.2459 47.9431 43.2138H41.5996L41.1297 40.1439L40.3309 41.0836L39.8141 42.0391L39.3598 42.8692C39.1406 42.9736 38.5662 42.8431 37.6369 42.4776L33.6899 41.0993L30.573 40.1125C30.0509 39.9559 29.7376 39.7575 29.6332 39.5174C29.5079 39.225 29.581 38.7133 29.8525 37.9824L30.4633 36.1498L31.0585 34.192C30.6513 34.5366 29.9204 35.4241 28.8657 36.8547C27.8946 38.1704 27.2942 38.8856 27.0645 39.0005C26.7199 39.1571 25.5452 38.6455 23.5404 37.4655C21.5355 36.296 20.4496 35.5024 20.2825 35.0848C20.1885 34.855 20.7889 34.0823 22.0837 32.7667C23.5143 31.3048 25.2476 29.7698 27.2838 28.1618C32.9328 23.6822 38.3835 20.5497 43.6358 18.7641C49.264 16.8428 54.2291 16.138 58.5311 16.6496C62.6348 17.1299 66.6236 18.7798 70.4976 21.5991C74.4028 18.8528 79.0756 17.5842 84.5158 17.793C89.7159 17.9914 95.13 19.5002 100.758 22.3196C104.684 24.3035 108.459 26.8305 112.082 29.9004C115.111 32.4795 116.666 34.0928 116.75 34.7402Z" fill="#0D131A"/>
<path d="M112.145 37.8258L111.205 36.4474C110.61 35.6225 109.947 34.8707 109.216 34.192C108.412 33.4297 107.979 33.1478 107.916 33.3462C107.874 33.4924 108.047 33.9257 108.433 34.6462C108.705 35.1579 108.955 35.7844 109.185 36.5257L109.921 39.0788C109.127 39.6218 107.906 40.0864 106.256 40.4728L104.486 37.8884C103.442 36.4057 102.878 35.7635 102.794 35.9619C102.701 36.1603 102.633 37.0739 102.591 38.7029L102.513 41.6005L97.3438 41.8355C94.4097 41.8041 92.0968 41.4804 90.4052 40.8644C89.8622 38.8804 88.8441 36.7659 87.3509 34.5209C85.91 32.3385 84.2131 30.3233 82.2605 28.475C80.2452 26.5746 78.2352 25.1128 76.2303 24.0895C74.0688 22.9826 72.1371 22.5127 70.4351 22.6798C66.2687 21.0509 61.3715 23.5151 55.7433 30.0727C52.663 33.6438 49.875 37.7213 47.3794 42.3053H42.3829C42.1219 41.1672 41.96 40.2274 41.8974 39.486L41.8504 38.3896C41.7982 38.2748 41.558 38.4209 41.1299 38.8282L39.8142 40.1909C39.3965 40.6921 39.1146 41.1776 38.9684 41.6475C37.5901 41.3969 34.7656 40.5093 30.4948 38.9848C31.3302 36.2177 31.941 34.2703 32.3274 33.1426C32.5989 32.349 32.6981 31.9365 32.625 31.9052L31.7009 32.5004C31.0326 32.9598 30.2442 33.6438 29.3358 34.5522C28.2289 35.6695 27.3727 36.7294 26.7671 37.7318C25.7124 37.4603 24.6682 37.0165 23.6345 36.4004C22.8827 35.9619 22.2457 35.5077 21.7236 35.0378C24.0417 32.6988 26.6626 30.412 29.5864 28.1775C34.7238 24.2617 39.5845 21.5207 44.1685 19.9545C49.8593 18.0227 54.673 17.203 58.6096 17.4954C62.6297 17.7982 66.4724 19.3071 70.1375 22.022L70.623 22.2412C74.1524 20.1842 78.0054 19.0721 82.1822 18.9051C87.6851 18.6753 93.5116 20.1059 99.6619 23.1967C103.317 25.0344 106.867 27.3264 110.313 30.0727C112.641 31.9313 114.484 33.602 115.842 35.0848C115.549 35.5755 114.98 36.1081 114.134 36.6824L112.145 37.8258Z" fill="#E85382"/>
<path d="M86.5519 19.0617C82.7615 20.0746 79.6289 21.9175 77.1542 24.5907C74.6273 23.1184 72.3875 22.4814 70.4348 22.6798C69.0565 22.1473 67.5738 22.069 65.9866 22.4449C64.9633 20.6802 63.6476 19.2183 62.0396 18.0593C64.7649 18.7275 67.4641 20.0484 70.1372 22.022L70.6228 22.2412C75.3947 19.4637 80.7044 18.4038 86.5519 19.0617Z" fill="#C94772"/>
<path d="M102.184 24.5437C105.285 26.3084 108.271 28.3758 111.143 30.7462C113.127 32.3751 114.693 33.8213 115.842 35.0848C115.549 35.586 114.975 36.1237 114.119 36.698C110.997 32.5735 107.018 28.522 102.184 24.5437Z" fill="#C94772"/>
<path d="M49.8383 38.1547C48.8986 39.6479 48.0789 41.0314 47.3793 42.3053H42.978C46.1419 37.7736 50.0367 34.1293 54.6625 31.3727C53.0336 33.388 51.4255 35.6486 49.8383 38.1547Z" fill="#C94772"/>
<path d="M83.5292 22.1786C82.2135 21.291 81.5557 20.7011 81.5557 20.4087C81.5139 20.0223 81.5557 19.6464 81.681 19.281C81.8063 18.8842 82.0151 18.597 82.3075 18.4195L82.3388 18.3882H82.3858C85.8421 18.3255 89.4602 18.8946 93.2402 20.0954L93.4281 20.1581L93.2089 20.6749C92.6972 21.834 92.2743 22.6694 91.9402 23.181C91.1988 24.2983 90.3791 24.9875 89.4811 25.2485C88.7919 25.4469 86.808 24.4236 83.5292 22.1786Z" fill="#0D131A"/>
<path d="M82.6048 18.8267C85.8209 18.785 89.2146 19.3175 92.7857 20.4244L92.723 20.5653C92.2949 21.5364 91.8981 22.283 91.5327 22.8051C90.8644 23.7658 90.123 24.3662 89.3085 24.6063C89.131 24.6585 88.7499 24.5646 88.1651 24.3244C87.4864 24.0425 86.6667 23.6196 85.7061 23.0557C84.6932 22.4605 83.8213 21.8914 83.0904 21.3485C82.443 20.8577 82.1036 20.5444 82.0723 20.4087L82.0566 20.1737C82.0566 19.5368 82.2394 19.0878 82.6048 18.8267Z" fill="#FCEEF4"/>
<path d="M82.6048 18.8267L87.0844 19.1243L84.735 19.5942C83.8161 19.8031 82.9599 20.1268 82.1663 20.5653L82.0723 20.4087L82.0566 20.1737C82.0566 19.5368 82.2394 19.0878 82.6048 18.8267Z" fill="#D9CED4"/>
<path d="M90.8909 29.9944C92.8122 29.2008 94.201 28.9084 95.0573 29.1172C96.0284 29.347 96.7958 30.5269 97.3597 32.657C97.8714 34.5992 97.9758 35.9828 97.673 36.8077C97.4119 37.5386 96.4251 38.1181 94.7127 38.5463L92.2066 38.9535C91.3817 39.131 89.899 38.3531 87.7584 36.6197L87.727 36.5884L86.1138 33.4089C87.1162 32.0305 88.7086 30.8924 90.8909 29.9944Z" fill="#0D131A"/>
<path d="M91.3294 30.3546C93.0836 29.6445 94.3158 29.373 95.0258 29.5401C95.2138 29.5923 95.5166 29.9996 95.9342 30.7618C96.3102 31.451 96.6078 32.1715 96.827 32.9233C97.0776 33.7482 97.2029 34.5 97.2029 35.1787C97.2029 35.68 97.1351 36.1185 96.9993 36.4944C96.6339 37.4968 95.172 38.1234 92.6137 38.374L92.2691 38.421C91.6217 38.5671 90.3792 37.9093 88.5414 36.4474L87.21 34.3016L86.7715 33.5028C87.7426 32.2185 89.2619 31.1691 91.3294 30.3546Z" fill="#FCEEF4"/>
<path d="M103.938 27.5666C106.277 28.7988 107.566 29.608 107.807 29.9944C107.869 30.1092 107.869 30.2241 107.807 30.3389C107.598 30.7148 106.616 31.2735 104.862 32.0149C103.181 32.7249 102.137 33.0799 101.729 33.0799C101.312 33.0799 100.549 32.5108 99.4426 31.3727C98.3567 30.2554 97.7458 29.4409 97.6101 28.9293C97.4743 28.3654 97.5996 27.765 97.986 27.1281C98.1531 26.8566 98.4193 26.5851 98.7848 26.3136C99.1398 26.0525 99.4374 25.8959 99.6776 25.8437C100.137 25.7393 101.557 26.3136 103.938 27.5666Z" fill="#0D131A"/>
<path d="M107.07 30.1823C106.987 30.4225 106.183 30.8715 104.658 31.5293C103.155 32.1663 102.204 32.4847 101.808 32.4847C101.526 32.4847 100.878 31.9783 99.8653 30.9654C98.842 29.9421 98.2677 29.1955 98.1424 28.7257C98.0171 28.2767 98.1267 27.7807 98.4713 27.2377C98.7741 26.7574 99.1135 26.4754 99.4894 26.3919C99.8758 26.3084 101.186 26.8461 103.421 28.0052C105.603 29.1224 106.82 29.8482 107.07 30.1823Z" fill="#FCEEF4"/>
<path d="M54.8974 17.1821L55.1793 17.1665L55.0854 17.4171L54.3805 20.1111C53.9942 21.5521 53.707 22.3248 53.5191 22.4292C53.1849 22.5858 51.9893 22.6171 49.9323 22.5232C47.8335 22.4187 46.5909 22.2412 46.2045 21.9906L45.9696 21.8027L45.8286 21.6304C45.8286 21.4529 46.2828 20.8211 47.1913 19.7352L48.5539 18.1532L49.0082 17.8556L52.0624 17.3858L54.8974 17.1821Z" fill="#0D131A"/>
<path d="M54.5685 17.5424L54.0673 19.6099L53.7227 21.0509C53.587 21.5103 53.4513 21.7766 53.3155 21.8497C53.0231 21.9959 51.932 22.0115 50.042 21.8967C48.152 21.7818 47.0765 21.6356 46.8154 21.4581C46.8676 21.1866 47.3897 20.4505 48.3817 19.2496L48.9612 18.5291C50.9556 18.0279 52.8247 17.699 54.5685 17.5424Z" fill="#FCEEF4"/>
<path d="M40.926 26.5485C43.8602 25.0345 45.4944 24.3035 45.8285 24.3557C46.1835 24.4184 46.8675 25.6975 47.8803 28.1931C48.8828 30.6574 49.3787 32.2133 49.3683 32.8607C49.3579 33.602 47.8125 34.2599 44.7321 34.8342C41.6831 35.398 40.028 35.4763 39.767 35.0691L37.8405 32.5631C36.6396 30.9446 36.0758 29.9839 36.1489 29.6811C36.2846 29.1486 37.877 28.1044 40.926 26.5485Z" fill="#0D131A"/>
<path d="M36.8384 29.8377C36.9324 29.4827 38.3211 28.6004 41.0047 27.1907C43.6361 25.8124 45.1815 25.1075 45.6409 25.0762C45.9228 25.2642 46.5076 26.4284 47.3951 28.569C48.2931 30.7409 48.7421 32.1245 48.7421 32.7197V32.7353L48.5072 33.0329C48.2253 33.2418 47.7606 33.4506 47.1132 33.6595C45.8393 34.0771 44.3983 34.3695 42.7903 34.5366C41.2762 34.7036 40.4461 34.688 40.2999 34.4896L39.2661 33.2679C37.6476 31.4823 36.8384 30.365 36.8384 29.916V29.8377Z" fill="#FCEEF4"/>
<path d="M53.582 24.8883C53.9996 24.2826 54.2972 23.9328 54.4747 23.8388C55.1952 23.4838 56.3856 23.2593 58.0459 23.1653C60.2178 23.0505 61.6066 23.4995 62.2122 24.5124L62.3062 24.669L62.1652 24.763C60.6094 25.7758 59.017 27.1333 57.388 28.8353L57.3254 28.8979L57.2314 28.8823L54.7567 28.5534L52.4856 28.2558C52.0783 28.1722 51.8486 28.0626 51.7964 27.9268C51.7546 27.8538 51.7599 27.7754 51.8121 27.6919L52.2976 26.9244L53.582 24.8883Z" fill="#0D131A"/>
<path d="M54.9287 24.1364C55.4612 23.865 56.4741 23.6718 57.9673 23.5569C59.8677 23.4212 61.1364 23.7136 61.7733 24.434C60.3741 25.3947 58.8757 26.6999 57.2781 28.3498L55.0696 28.0678L52.5166 27.6763L52.9395 27.0027C54.0255 25.2067 54.6885 24.2513 54.9287 24.1364Z" fill="#FCEEF4"/>
<path d="M88.1343 122.076C88.6773 122.41 89.3299 122.948 90.0921 123.689C90.9066 124.473 91.3191 124.995 91.3295 125.256C91.3608 125.559 91.105 126.128 90.562 126.963C90.0608 127.746 89.5909 128.352 89.1524 128.78C89.215 127.36 89.1941 126.206 89.0897 125.318C88.9435 124.076 88.625 122.995 88.1343 122.076Z" fill="#DBDCDC"/>
</g>
<defs>
<clipPath id="clip0_70_92">
<rect width="143" height="130.143" fill="white"/>
</clipPath>
</defs>
</svg>
